<svg id="Layer_1" enable-background="new 0 0 512 512" height="512" viewBox="0 0 512 512" width="512" xmlns="http://www.w3.org/2000/svg"><g><path d="m466.321 445.638c-6.56 8.189-15.16 15.968-25.39 23.107v.01c-22.97 16.048-54.18 28.947-89.02 36.296-21.99 4.649-44.28 6.949-66.19 6.949-32.56 0-64.28-5.089-92.94-15.148-44.49-15.608-79.87-42.185-105.15-78.981-28.93-42.105-43.6-96.569-43.6-161.871s14.67-119.766 43.6-161.871c25.28-36.796 60.66-63.373 105.15-78.981 47.95-16.828 104.46-19.748 159.13-8.199 34.84 7.349 66.05 20.258 89.02 36.306 10.23 7.149 18.83 14.918 25.39 23.107 2.57 3.21 2.08 7.879-1.1 10.489-.62.51-62.49 51.534-92.92 96.379-1.13 1.67-2.88 2.81-4.86 3.17s-4.02-.08-5.66-1.24c-8.28-5.819-17.83-10.579-28.11-14.078-9.17-3.14-18.93-5.259-28.88-6.239-22.29-2.21-43.26 1.4-60.65 10.429-30.84 16.008-47.14 47.385-47.14 90.729 0 43.345 16.3 74.721 47.14 90.729 17.39 9.029 38.36 12.639 60.65 10.429 9.95-.98 19.71-3.1 28.88-6.239 10.28-3.5 19.83-8.259 28.11-14.078 1.64-1.16 3.68-1.6 5.66-1.24s3.73 1.5 4.86 3.17c30.43 44.845 92.3 95.869 92.92 96.379 3.18 2.608 3.67 7.277 1.1 10.487z" fill="#eff4f4"/><path d="m466.321 445.638c-6.56 8.189-15.16 15.968-25.39 23.107-22.3-21.167-64.74-63.622-107.26-117.826 10.28-3.5 19.83-8.259 28.11-14.078 1.64-1.16 3.68-1.6 5.66-1.24s3.73 1.5 4.86 3.17c30.43 44.845 92.3 95.869 92.92 96.379 3.18 2.609 3.67 7.278 1.1 10.488z" fill="#daeaef"/><path d="m465.221 76.851c-.62.51-62.49 51.534-92.92 96.379-1.13 1.67-2.88 2.81-4.86 3.17s-4.02-.08-5.66-1.24c-8.28-5.819-17.83-10.579-28.11-14.078 42.52-54.204 84.96-96.659 107.26-117.826 10.23 7.149 18.83 14.918 25.39 23.107 2.57 3.209 2.08 7.879-1.1 10.488z" fill="#daeaef"/><g><path d="m420.061 435.479c1.71 1.57 2.6 3.85 2.4 6.169s-1.46 4.41-3.42 5.669c-5.89 3.78-13.69 8.179-23.55 12.568-12.94 5.759-29.43 11.489-49.84 15.798-19.98 4.209-40.18 6.299-59.99 6.299-29.21 0-57.56-4.539-83.1-13.518-38.32-13.478-68.68-36.256-90.26-67.682-25.39-36.996-38.27-85.7-38.27-144.783s12.88-107.787 38.27-144.783c21.58-31.426 51.94-54.204 90.26-67.682 25.52-8.969 53.47-13.528 83.08-13.528 19.97 0 40.16 2.13 60.01 6.309 21.24 4.479 38.24 10.509 51.4 16.498 9.13 4.16 16.41 8.289 21.99 11.869 1.96 1.26 3.22 3.35 3.42 5.669s-.69 4.599-2.4 6.169c-15.48 14.198-37.85 35.876-56.45 58.473-2.13 2.58-5.71 3.45-8.78 2.11-8.27-3.59-17.06-6.489-26.05-8.619-6.95-1.65-14.03-2.84-21.08-3.539-28.11-2.77-54.89 1.96-77.46 13.708-40.78 21.207-63.24 62.882-63.24 117.346s22.46 96.139 63.24 117.346c22.57 11.749 49.35 16.488 77.46 13.708 6.86-.68 13.74-1.82 20.51-3.41 9.19-2.14 18.18-5.089 26.62-8.749 3.07-1.34 6.65-.47 8.78 2.11 18.6 22.599 40.97 44.277 56.45 58.475z" fill="#ff83dc"/></g><g fill="#ff60cf"><path d="m420.061 76.521c-15.48 14.198-37.85 35.876-56.45 58.473-2.13 2.58-5.71 3.45-8.78 2.11-8.27-3.59-17.06-6.489-26.05-8.619 12.98-19.378 35.93-49.364 68.27-75.671 9.13 4.16 16.41 8.289 21.99 11.869 1.96 1.26 3.22 3.35 3.42 5.669s-.69 4.6-2.4 6.169z"/><path d="m422.461 441.648c-.2 2.32-1.46 4.41-3.42 5.669-5.89 3.78-13.69 8.179-23.55 12.568-31.33-26.937-53.92-56.403-67.28-76.241 9.19-2.14 18.18-5.089 26.62-8.749 3.07-1.34 6.65-.47 8.78 2.11 18.6 22.597 40.97 44.275 56.45 58.473 1.71 1.571 2.6 3.851 2.4 6.17z"/></g></g></svg>