<?xml version="1.0" standalone="no"?>
<!DOCTYPE svg PUBLIC "-//W3C//DTD SVG 20010904//EN"
 "http://www.w3.org/TR/2001/REC-SVG-20010904/DTD/svg10.dtd">
<svg version="1.0" xmlns="http://www.w3.org/2000/svg"
 width="1876.000000pt" height="2041.000000pt" viewBox="0 0 1876.000000 2041.000000"
 preserveAspectRatio="xMidYMid meet">

<g transform="translate(0.000000,2041.000000) scale(0.100000,-0.100000)"
fill="#000000" stroke="none">
<path d="M10363 16283 c4 -823 3 -817 74 -962 67 -139 215 -254 373 -292 76
-18 231 -16 309 5 195 51 357 225 408 441 14 61 17 165 20 808 l4 737 -170 0
-170 0 -3 -727 c-3 -803 0 -759 -67 -836 -48 -53 -110 -80 -190 -80 -147 0
-231 78 -251 236 -5 39 -10 372 -10 740 l0 667 -165 0 -166 0 4 -737z"/>
<path d="M11940 16040 l0 -980 168 2 167 3 3 639 2 640 376 -642 376 -642 159
0 159 0 0 980 0 980 -165 0 -165 0 -2 -641 -3 -640 -375 640 -375 641 -162 0
-163 0 0 -980z"/>
<path d="M13957 16048 c-185 -535 -337 -976 -337 -981 0 -4 77 -6 172 -5 l172
3 71 200 71 200 361 3 361 2 68 -202 69 -203 173 -3 c94 -1 172 0 172 4 0 3
-152 444 -337 980 l-337 974 -171 0 -171 0 -337 -972z m632 109 c61 -175 111
-320 111 -322 0 -3 -106 -5 -236 -5 -221 0 -236 1 -229 18 6 14 164 461 212
600 9 24 19 40 23 35 5 -4 58 -151 119 -326z"/>
<path d="M15596 16068 c-81 -524 -150 -965 -153 -980 l-5 -28 160 0 c89 0 163
3 166 8 2 4 45 273 96 597 50 325 94 598 98 607 4 11 76 -212 191 -597 l184
-615 147 0 146 0 184 608 c100 334 185 611 188 617 3 5 38 -204 78 -465 40
-261 83 -539 95 -617 l21 -143 159 0 c154 0 159 1 159 21 0 20 -275 1855 -286
1912 l-6 27 -162 0 -163 0 -111 -367 c-61 -203 -152 -506 -203 -675 -51 -170
-96 -308 -99 -308 -3 0 -95 303 -206 673 l-200 672 -165 3 -165 2 -148 -952z"/>
<path d="M13220 14399 c-443 -25 -778 -54 -1090 -94 -207 -27 -586 -86 -700
-109 -41 -8 -127 -25 -190 -36 -285 -53 -670 -146 -782 -189 -131 -51 -171
-75 -194 -117 -62 -113 -49 -203 50 -342 50 -69 73 -121 81 -177 25 -180 53
-229 147 -261 85 -28 203 -14 673 80 161 33 255 41 299 26 20 -6 36 -15 36
-20 0 -28 -151 -109 -250 -135 -72 -19 -202 -18 -528 5 -193 14 -255 7 -350
-36 -82 -37 -132 -81 -160 -143 l-25 -54 16 -103 c10 -56 17 -115 17 -132 0
-16 6 -35 14 -41 31 -26 156 72 172 135 4 14 4 64 0 110 -5 68 -3 86 8 90 42
16 311 -47 311 -73 0 -6 -40 -38 -90 -71 -49 -32 -100 -70 -112 -83 -45 -50
-57 -126 -23 -157 10 -10 83 -42 160 -70 149 -56 527 -247 742 -375 149 -89
214 -117 267 -117 32 0 41 4 41 18 0 23 -38 52 -229 167 -130 80 -177 114
-230 171 -90 96 -141 196 -141 274 0 48 5 64 26 89 30 36 78 48 128 31 70 -23
72 -83 6 -125 -48 -30 -51 -56 -14 -111 72 -106 153 -182 317 -299 114 -80
330 -162 369 -139 8 5 41 37 73 72 69 74 68 76 -45 111 -126 39 -327 146 -381
204 -36 38 -59 94 -59 142 0 39 5 51 30 73 96 85 101 93 100 136 -1 23 -1 46
-1 52 1 6 27 28 58 49 71 47 150 121 169 157 19 36 18 113 -2 174 -19 54 -79
150 -148 234 -52 62 -56 77 -23 89 76 29 636 105 1047 142 504 46 1821 34
2363 -22 199 -20 788 -100 866 -118 68 -15 69 -7 -25 -144 -121 -176 -161
-359 -96 -446 26 -37 103 -86 170 -110 106 -39 107 -39 104 -105 -4 -77 12
-119 59 -157 22 -17 39 -39 39 -50 0 -77 -153 -225 -317 -308 -35 -17 -63 -37
-63 -44 0 -20 22 -45 54 -61 25 -12 35 -12 80 0 28 8 87 33 132 54 63 31 96
55 150 112 80 85 155 204 157 249 2 27 -4 35 -33 51 -49 27 -70 55 -70 93 0
62 74 94 140 60 68 -35 94 -114 65 -198 -51 -151 -189 -285 -436 -425 -74 -42
-84 -54 -68 -83 16 -30 50 -58 70 -59 9 0 21 11 27 25 10 21 16 24 42 19 27
-6 30 -4 30 20 0 21 5 26 24 26 14 0 28 -4 31 -10 3 -5 13 -10 21 -10 11 0 14
10 12 38 l-3 37 38 -3 c34 -3 37 -1 37 23 0 24 2 25 35 19 35 -6 35 -6 35 30
0 41 19 48 58 20 20 -14 23 -14 28 1 4 9 2 21 -5 28 -30 30 2 77 39 57 12 -6
28 -9 36 -6 13 5 12 9 -2 31 -24 36 -9 43 36 17 49 -28 60 -13 24 33 -25 33
-26 38 -12 52 15 14 21 13 66 -13 28 -16 54 -25 58 -21 4 4 -9 24 -29 45 -58
59 -45 78 30 47 40 -17 73 -20 73 -6 0 5 -19 22 -42 38 -79 53 -48 74 42 28
96 -49 109 -25 20 35 -33 22 -60 45 -60 50 0 14 1 14 101 -31 64 -29 94 -38
102 -30 15 15 -5 35 -79 76 -116 65 -88 78 35 15 43 -22 86 -40 95 -40 34 0
13 30 -49 69 -70 45 -80 61 -37 61 39 0 85 -31 131 -89 92 -118 63 -160 -219
-310 -68 -36 -134 -83 -198 -139 -163 -143 -248 -193 -427 -251 -105 -34 -110
-37 -113 -66 -5 -37 19 -56 62 -49 151 27 326 96 466 184 118 75 355 212 465
268 74 39 118 54 170 61 134 19 165 44 165 135 0 40 -7 53 -59 119 -59 75
-167 174 -242 224 -46 30 -46 43 2 60 47 16 221 17 241 1 12 -10 17 -37 20
-113 5 -99 18 -145 56 -187 21 -25 49 -22 58 5 4 12 20 49 37 82 16 33 36 85
43 115 14 54 13 56 -18 119 -22 42 -46 74 -73 93 -100 73 -173 84 -515 78
-151 -3 -356 -5 -455 -5 -173 0 -182 1 -235 26 -62 29 -134 92 -128 111 4 10
49 13 199 12 204 0 289 -11 579 -72 168 -36 247 -36 323 1 68 34 80 54 96 160
13 90 21 108 95 211 80 111 102 194 76 287 -19 68 -95 116 -291 184 -475 165
-1100 296 -1959 410 -375 50 -526 57 -1280 60 -388 2 -775 -1 -860 -6z m1625
-49 c197 -14 587 -56 745 -80 69 -10 204 -31 300 -45 366 -56 869 -170 1271
-289 297 -89 367 -123 389 -192 25 -74 -10 -197 -77 -278 -38 -45 -70 -116
-82 -179 -12 -69 -17 -77 -39 -77 -9 0 -107 27 -217 59 -334 98 -379 109 -690
172 -419 84 -956 169 -1330 209 -160 17 -462 29 -1035 40 -533 10 -935 3
-1165 -20 -55 -6 -176 -17 -270 -25 -636 -58 -1437 -204 -1835 -335 -127 -42
-186 -69 -267 -120 -64 -41 -72 -31 -88 108 -14 124 -28 158 -91 232 -83 97
-107 176 -79 261 30 90 140 138 513 223 108 25 244 54 302 66 58 12 170 35
250 51 184 37 526 93 695 113 485 58 1048 107 1380 120 185 7 1276 -3 1420
-14z m-3144 -947 c105 -111 189 -235 189 -277 0 -21 -20 -16 -93 21 -78 39
-227 84 -297 90 -75 6 -282 -23 -495 -69 -151 -32 -387 -50 -407 -30 -14 14
109 86 201 118 119 41 735 190 842 203 3 1 30 -25 60 -56z m4661 18 c253 -44
882 -216 933 -256 20 -15 20 -15 1 -30 -31 -24 -136 -18 -286 14 -233 51 -348
64 -570 65 -236 1 -256 -3 -390 -85 -45 -27 -86 -49 -91 -49 -15 0 -10 46 11
94 29 69 80 144 141 209 65 67 71 68 251 38z m-4564 -333 c47 -24 91 -51 96
-60 17 -28 -79 -118 -180 -169 -79 -40 -85 -42 -151 -36 -37 3 -102 11 -143
18 -90 14 -369 6 -452 -12 -55 -13 -61 -12 -173 24 -71 23 -165 44 -245 54
-72 10 -130 20 -130 24 0 15 63 32 153 41 70 8 137 7 230 -1 73 -6 209 -11
303 -11 143 0 183 3 236 20 95 29 186 73 248 119 68 51 86 50 208 -11z m4427
-8 c35 -35 71 -59 125 -82 73 -30 79 -31 230 -32 85 0 270 4 410 8 283 9 443
-1 513 -33 45 -19 95 -66 84 -78 -4 -3 -40 0 -79 7 -111 21 -239 16 -352 -14
-95 -25 -97 -25 -193 -10 -136 21 -431 30 -517 15 -37 -7 -100 -26 -138 -43
l-71 -32 -66 17 c-120 32 -197 80 -221 137 -11 28 -11 34 7 58 27 37 169 132
196 132 14 0 42 -19 72 -50z m-5831 -252 c24 -83 21 -136 -10 -181 -15 -23
-32 -37 -42 -35 -22 4 -40 69 -41 150 -1 62 2 70 30 103 18 20 35 32 39 28 4
-4 15 -33 24 -65z m7210 -49 c14 -11 26 -30 26 -41 0 -33 -61 -139 -78 -136
-29 6 -35 80 -16 176 6 28 33 29 68 1z"/>
<path d="M13221 14263 c-12 -10 -26 -35 -31 -56 -11 -53 5 -338 22 -373 31
-66 108 -50 128 26 12 46 4 290 -11 352 -16 61 -66 85 -108 51z m63 -40 c4 -9
10 -96 13 -192 5 -158 4 -178 -11 -190 -27 -23 -40 1 -48 92 -8 106 -10 271
-2 291 8 21 40 20 48 -1z"/>
<path d="M13384 14265 c-9 -21 1 -439 10 -453 4 -6 13 -9 21 -5 12 4 15 28 15
114 0 64 4 109 10 109 5 0 23 -45 40 -99 32 -103 54 -138 66 -106 12 31 -2
423 -16 440 -22 27 -30 5 -30 -83 0 -101 -8 -99 -47 13 -28 80 -55 107 -69 70z"/>
<path d="M13634 14269 c-8 -14 -54 -370 -54 -421 0 -54 26 -51 40 5 17 66 19
69 42 65 15 -2 26 -13 32 -33 17 -58 26 -76 36 -70 6 3 10 23 10 43 0 45 -55
396 -64 411 -9 14 -33 14 -42 0z m39 -241 c3 -21 1 -40 -5 -44 -18 -11 -27 10
-21 54 7 49 18 45 26 -10z"/>
<path d="M13770 14051 c0 -261 -1 -258 75 -247 47 8 65 36 23 36 -48 0 -49 5
-55 229 -6 196 -7 211 -25 211 -17 0 -18 -13 -18 -229z"/>
<path d="M14180 14256 c-8 -22 -70 -406 -70 -435 0 -6 6 -11 14 -11 9 0 20 19
28 48 11 40 18 47 40 50 22 3 28 -1 33 -22 3 -14 7 -37 10 -51 3 -14 12 -25
22 -25 14 0 15 12 9 106 -10 158 -34 334 -47 350 -17 20 -28 17 -39 -10z m30
-242 c0 -32 -4 -44 -15 -44 -16 0 -20 36 -9 77 10 36 24 16 24 -33z"/>
<path d="M14316 14228 c-3 -24 -8 -117 -11 -208 -5 -154 -4 -167 14 -197 17
-27 27 -33 54 -33 46 0 66 25 77 96 13 79 13 371 0 379 -19 12 -28 -42 -35
-223 -8 -189 -16 -222 -50 -208 -16 6 -17 23 -14 218 4 193 2 213 -13 216 -13
2 -18 -6 -22 -40z"/>
<path d="M12934 14235 c-15 -23 -16 -47 -11 -188 6 -177 18 -229 58 -259 50
-37 99 11 99 98 0 82 -35 89 -42 9 -8 -101 -45 -99 -59 2 -15 106 -21 297 -10
313 15 21 33 0 46 -53 7 -26 17 -43 28 -45 35 -7 14 118 -23 138 -33 18 -69
12 -86 -15z"/>
<path d="M13104 14073 c9 -224 15 -267 39 -271 21 -4 22 39 7 258 -12 176 -17
200 -37 200 -14 0 -15 -21 -9 -187z"/>
<path d="M14510 14255 c0 -2 9 -13 21 -24 20 -18 20 -23 11 -217 -5 -110 -7
-205 -4 -211 2 -7 10 -13 17 -13 15 0 21 48 34 274 8 146 11 157 45 169 5 2 6
9 2 15 -7 11 -126 18 -126 7z"/>
<path d="M14717 14249 c-37 -21 -48 -74 -54 -254 l-6 -173 27 -27 c21 -21 33
-26 54 -20 60 14 70 48 79 271 l6 162 -26 26 c-28 28 -51 32 -80 15z m55 -64
c9 -35 -10 -333 -23 -357 -13 -25 -27 -22 -41 7 -13 29 5 334 23 366 14 27 31
20 41 -16z"/>
<path d="M12767 14218 c-3 -13 -9 -119 -13 -237 -7 -204 -6 -213 12 -209 13 2
21 16 26 47 4 25 12 49 18 55 17 17 43 -6 60 -52 17 -49 40 -56 40 -13 0 27
-69 331 -91 399 -12 38 -44 44 -52 10z m61 -248 c-5 -55 -23 -41 -26 20 -2 51
-1 54 13 35 9 -12 15 -35 13 -55z"/>
<path d="M14876 14208 c-11 -63 -36 -420 -30 -429 3 -5 11 -9 19 -9 14 0 20
27 31 145 3 39 10 76 14 84 7 14 11 2 45 -161 16 -75 35 -99 49 -63 12 32 37
438 27 448 -17 17 -30 -3 -36 -61 -14 -127 -25 -130 -50 -13 -18 86 -20 91
-45 91 -14 0 -21 -9 -24 -32z"/>
<path d="M15127 14219 c-30 -18 -46 -64 -62 -174 -19 -137 -22 -244 -6 -272
25 -48 104 -42 126 10 34 83 53 394 25 421 -21 20 -61 28 -83 15z m51 -87 c3
-41 -23 -288 -34 -324 -3 -10 -14 -18 -25 -18 -17 0 -19 7 -19 58 0 65 27 309
36 324 3 5 13 8 22 6 12 -2 18 -16 20 -46z"/>
<path d="M12638 14214 c-3 -3 -4 -44 -2 -92 l4 -87 -42 88 c-35 72 -46 87 -63
85 -24 -4 -24 -25 6 -263 22 -184 25 -195 46 -195 13 0 14 11 9 78 -4 42 -10
97 -13 121 -8 64 8 46 52 -56 91 -214 105 -168 54 175 -10 74 -22 138 -25 143
-6 10 -18 12 -26 3z"/>
<path d="M15286 14184 c-16 -41 -58 -417 -49 -440 3 -8 9 -14 14 -14 15 0 26
41 39 143 7 53 16 95 20 92 4 -2 10 -55 14 -117 4 -62 11 -117 16 -122 11 -11
29 27 60 134 28 93 44 114 36 45 -17 -145 -18 -183 -6 -190 6 -4 16 -3 22 3
11 11 61 429 54 449 -3 7 -19 13 -35 13 -29 0 -31 -4 -52 -72 -11 -40 -26 -84
-31 -98 l-11 -25 -7 25 c-5 14 -8 51 -9 82 -1 77 -14 108 -45 108 -13 0 -27
-7 -30 -16z"/>
<path d="M12146 14157 c-17 -12 -16 -23 9 -222 15 -116 31 -218 36 -227 12
-22 29 -22 74 -4 60 25 65 57 40 248 -19 144 -30 184 -58 203 -26 18 -77 20
-101 2z m89 -60 c17 -42 51 -307 42 -330 -7 -18 -34 -33 -43 -25 -8 8 -42 218
-49 307 -7 79 -7 81 14 81 15 0 26 -10 36 -33z"/>
<path d="M15642 14161 c-14 -9 -132 -392 -132 -428 0 -38 25 -26 41 19 29 79
79 74 79 -8 0 -42 14 -64 30 -48 5 5 12 108 16 229 6 185 5 222 -7 232 -8 7
-20 8 -27 4z m-21 -294 c-5 -5 -15 -6 -21 -2 -12 8 -8 35 12 82 12 27 13 27
16 -21 2 -27 -1 -53 -7 -59z"/>
<path d="M11997 14134 c-9 -9 -9 -426 -1 -448 11 -29 34 -18 34 17 0 56 10 77
37 77 19 0 28 -9 43 -45 19 -43 33 -55 44 -36 6 9 -58 251 -97 366 -22 64 -42
87 -60 69z m59 -219 c18 -44 18 -75 0 -75 -18 0 -26 22 -26 71 0 48 7 49 26 4z"/>
<path d="M11778 14109 c-24 -13 -23 -44 7 -240 36 -232 33 -224 83 -223 51 1
78 23 85 70 6 34 -23 251 -43 325 -17 64 -83 97 -132 68z m76 -51 c16 -26 43
-165 52 -279 5 -58 3 -77 -8 -86 -7 -7 -19 -9 -26 -4 -13 8 -62 281 -62 349 0
48 20 57 44 20z"/>
<path d="M15965 14093 c-6 -18 -43 -215 -65 -351 -7 -40 -9 -79 -6 -87 3 -8
21 -17 41 -21 42 -8 77 12 100 56 18 36 55 243 55 312 0 62 -11 83 -51 97 -45
16 -66 14 -74 -6z m73 -35 c17 -17 15 -67 -9 -198 -25 -142 -35 -177 -56 -184
-28 -11 -36 9 -29 68 5 37 16 66 32 85 28 34 29 44 10 74 -13 19 -13 31 -2 83
18 84 28 98 54 72z"/>
<path d="M11673 14074 c-6 -17 26 -240 53 -371 11 -51 20 -73 30 -73 8 0 17 6
20 14 6 15 -50 361 -67 414 -11 35 -26 41 -36 16z"/>
<path d="M11533 14058 c-51 -56 -36 -129 48 -230 33 -38 62 -82 65 -96 3 -15
8 -33 10 -40 6 -20 -14 -52 -32 -52 -9 0 -22 17 -31 40 -20 49 -49 52 -46 5 4
-45 34 -80 75 -83 49 -4 72 24 72 91 0 63 -18 100 -84 172 -27 30 -52 67 -56
82 -3 16 -7 34 -10 41 -5 19 7 42 22 42 8 0 22 -16 31 -35 20 -43 39 -40 36 5
-3 60 -65 96 -100 58z"/>
<path d="M11326 14027 c-17 -13 -16 -23 22 -227 40 -207 61 -270 78 -227 3 10
2 52 -3 95 -9 69 -7 104 4 77 23 -57 80 -158 88 -157 20 3 15 42 -15 113 -28
66 -30 80 -24 139 11 118 -29 200 -99 200 -18 0 -41 -6 -51 -13z m77 -44 c24
-28 41 -107 28 -132 -25 -46 -49 -11 -58 84 -6 68 1 79 30 48z"/>
<path d="M16356 14013 c-11 -39 -66 -377 -66 -410 0 -69 25 -26 49 85 13 61
28 109 33 106 4 -3 8 -56 8 -119 0 -66 4 -116 10 -120 11 -7 35 44 69 148 13
37 27 67 32 67 5 0 7 -10 5 -22 -16 -77 -27 -201 -19 -209 24 -24 34 21 97
410 6 37 -3 51 -34 51 -25 0 -29 -6 -59 -90 -18 -49 -37 -90 -42 -90 -5 0 -9
39 -9 86 0 47 -5 94 -10 105 -13 24 -57 25 -64 2z"/>
<path d="M11200 14008 c-19 -5 -38 -14 -41 -19 -13 -21 72 -437 92 -449 10 -7
82 5 101 16 19 12 6 24 -26 24 -44 0 -51 11 -65 95 l-12 70 27 21 c30 25 25
44 -12 44 -30 0 -44 32 -47 104 -2 44 1 51 23 63 28 14 33 37 10 40 -8 1 -31
-3 -50 -9z"/>
<path d="M11083 13859 c4 -66 3 -118 -2 -115 -4 3 -28 48 -51 101 -43 93 -70
120 -70 70 0 -14 19 -71 43 -128 24 -56 58 -139 76 -184 52 -131 86 -137 75
-13 -12 129 -43 370 -49 380 -3 6 -11 10 -17 10 -8 0 -9 -36 -5 -121z"/>
<path d="M16646 13969 c-17 -48 -96 -402 -96 -428 0 -19 21 -29 88 -44 33 -8
28 24 -7 44 l-29 17 14 73 c14 75 30 99 66 99 27 0 22 25 -7 38 -23 11 -25 16
-19 49 15 86 27 108 59 111 52 5 61 10 44 27 -21 21 -107 32 -113 14z"/>
<path d="M16807 13943 c-4 -3 -7 -49 -7 -102 0 -119 -7 -145 -69 -251 -34 -60
-46 -89 -39 -97 17 -21 26 -15 65 45 l37 57 9 -65 c9 -72 10 -75 32 -67 12 5
15 27 15 121 l0 115 45 92 c45 93 56 134 33 127 -7 -3 -26 -23 -41 -46 -16
-23 -33 -40 -38 -37 -5 4 -9 26 -9 49 0 41 -19 74 -33 59z"/>
<path d="M10885 13920 c-10 -16 0 -61 51 -245 48 -169 68 -215 87 -196 12 12
8 33 -58 270 -42 149 -64 197 -80 171z"/>
<path d="M10796 13891 c-4 -5 3 -43 14 -83 11 -40 20 -77 20 -82 0 -17 -29 16
-70 80 -27 41 -49 64 -61 64 -29 0 -24 -31 26 -203 70 -238 71 -242 89 -245
19 -4 21 25 6 78 -6 19 -17 61 -25 93 -12 52 -12 57 1 46 9 -7 38 -50 67 -96
55 -92 64 -100 79 -85 13 13 -16 133 -76 311 -38 117 -55 146 -70 122z"/>
<path d="M16987 13893 c-11 -18 -98 -356 -104 -403 -5 -41 -3 -50 10 -50 10 0
22 21 36 63 32 99 92 348 89 370 -3 22 -23 34 -31 20z"/>
<path d="M17101 13854 c-29 -21 -52 -75 -96 -229 -42 -147 -43 -189 -2 -219
26 -19 30 -19 55 -6 30 17 74 95 70 124 -6 39 -28 27 -52 -28 -29 -65 -56 -76
-56 -22 0 35 57 246 84 310 9 21 22 36 32 36 15 0 16 -8 11 -59 -5 -46 -3 -60
8 -64 24 -10 39 23 40 85 0 48 -4 62 -19 74 -26 18 -46 18 -75 -2z"/>
<path d="M10584 13825 c-5 -12 14 -82 49 -190 62 -187 69 -225 37 -225 -25 0
-30 10 -94 197 -30 87 -57 166 -61 176 -10 25 -35 21 -35 -6 0 -24 99 -328
119 -364 30 -57 84 -70 122 -32 31 31 22 81 -46 274 -60 168 -79 203 -91 170z"/>
<path d="M17282 13803 c-7 -3 -21 -22 -32 -43 -31 -60 -110 -310 -110 -347 0
-70 77 -98 122 -44 27 31 128 325 128 370 0 42 -26 71 -63 70 -18 0 -38 -3
-45 -6z m56 -64 c3 -26 -55 -222 -89 -298 -29 -65 -59 -78 -59 -25 0 32 87
301 108 332 18 28 36 24 40 -9z"/>
<path d="M8360 13020 l0 -970 200 0 200 0 0 435 0 435 320 0 320 0 0 180 0
180 -320 0 -320 0 0 175 0 175 320 0 320 0 0 180 0 180 -520 0 -520 0 0 -970z"/>
<path d="M14817 13573 c-2 -5 -10 -25 -16 -45 -15 -45 -25 -47 -57 -13 -35 37
-60 32 -86 -17 -33 -64 -31 -148 5 -213 l28 -50 -20 -16 c-30 -25 -152 -42
-247 -36 -103 6 -111 1 -96 -52 22 -72 114 -131 206 -131 37 0 49 -15 19 -24
-45 -14 -175 -27 -248 -25 -90 3 -92 1 -48 -64 45 -65 163 -117 265 -117 26 0
48 -4 48 -10 0 -13 -111 -87 -176 -117 -63 -28 -142 -39 -199 -26 -52 13 -65
7 -65 -27 0 -68 38 -120 115 -156 85 -40 189 -29 314 35 96 50 37 -21 -75 -89
-29 -17 -85 -43 -125 -57 -66 -23 -83 -25 -161 -18 -81 6 -88 5 -88 -12 0 -25
36 -92 69 -126 112 -121 352 -92 532 64 31 27 64 49 72 49 9 0 37 -29 62 -65
91 -126 135 -143 196 -73 l36 42 82 -38 c74 -35 88 -38 149 -34 74 4 104 20
149 80 22 30 33 98 15 98 -4 0 -25 -9 -47 -20 -54 -28 -83 -25 -157 13 -68 35
-117 94 -138 165 -15 49 -24 254 -16 324 13 100 46 113 231 87 97 -14 148 -3
195 41 41 38 38 70 -8 82 -42 11 -32 28 17 28 49 0 84 -28 99 -79 15 -50 30
-46 72 17 23 35 30 57 30 94 0 117 -66 166 -289 212 -74 15 -140 35 -165 50
-53 31 -132 118 -171 186 -16 30 -35 55 -42 57 -6 3 -29 -12 -51 -31 -22 -20
-46 -36 -53 -36 -8 0 -41 23 -74 50 -57 48 -79 58 -88 43z m103 -148 c22 -23
24 -34 25 -117 l0 -90 -63 -50 c-76 -61 -96 -96 -97 -168 l0 -54 -85 -45 c-79
-42 -91 -45 -175 -49 -137 -6 -205 30 -79 41 88 8 218 45 250 69 21 17 25 27
22 67 -3 46 -3 46 -38 44 -167 -10 -195 -8 -237 15 -24 12 -43 27 -43 32 0 6
39 10 93 10 51 0 120 5 152 11 70 13 165 47 165 59 0 5 -24 33 -54 62 -44 45
-56 64 -65 107 -8 40 -8 57 0 67 17 21 24 18 53 -26 42 -64 97 -120 116 -120
17 0 17 3 4 53 -15 55 -18 110 -8 120 9 9 34 -6 64 -38z m196 -15 c29 -44 27
-58 -5 -41 -23 13 -54 65 -44 75 13 12 23 5 49 -34z m-20 -140 c36 0 37 0 19
-20 -21 -23 -34 -25 -70 -8 -27 12 -41 47 -31 75 6 14 10 11 26 -15 16 -27 26
-32 56 -32z m105 -78 c-8 -20 -27 -36 -54 -48 -23 -10 -63 -40 -88 -67 -48
-51 -69 -55 -69 -11 0 32 -10 30 -61 -11 -47 -40 -86 -44 -81 -10 5 26 77 100
117 119 24 12 40 13 66 6 63 -18 97 -13 137 24 20 19 39 33 41 31 2 -3 -2 -17
-8 -33z m102 -12 c-21 -37 -120 -136 -128 -128 -5 5 132 158 142 158 2 0 -4
-13 -14 -30z m216 -1 c50 -11 105 -31 123 -43 39 -26 64 -67 55 -90 -6 -15
-10 -15 -49 5 -37 19 -53 21 -128 16 -93 -6 -234 -48 -244 -73 -8 -22 31 -41
112 -54 76 -13 97 -30 35 -30 -60 1 -248 44 -248 57 0 6 34 41 76 77 42 35 92
85 110 110 18 25 40 46 50 46 10 0 58 -9 108 -21z m-550 -220 c14 -9 26 -9 51
0 44 15 52 3 47 -70 -6 -69 -32 -129 -57 -129 -11 0 -31 20 -49 51 l-32 50
-35 -21 c-42 -27 -64 -15 -64 34 0 71 81 120 139 85z m-191 -148 c6 -41 -19
-80 -100 -157 -96 -89 -154 -131 -220 -156 -87 -33 -214 -18 -231 26 -8 20 -2
23 71 35 133 21 265 93 372 203 77 78 103 90 108 49z m129 -67 c3 -8 0 -34 -7
-57 -15 -53 -101 -140 -133 -135 -54 8 -8 118 74 178 48 34 57 36 66 14z m119
-66 c19 -36 13 -112 -12 -161 -14 -27 -17 -28 -31 -14 -24 24 -30 150 -9 182
22 33 32 32 52 -7z m-118 -188 c4 -75 -17 -144 -45 -148 -37 -5 -53 23 -53 93
0 60 2 65 33 89 48 38 61 31 65 -34z m-163 -40 c4 -6 4 -30 0 -53 -10 -59 -96
-142 -199 -192 -65 -31 -91 -38 -159 -42 -66 -3 -89 -1 -117 14 -54 28 -45 44
35 64 133 33 221 77 363 186 45 34 66 40 77 23z m260 -195 c0 -78 -11 -93 -53
-71 -37 19 -62 52 -62 82 0 25 89 79 105 63 6 -6 10 -39 10 -74z m312 -77
c-17 -11 -77 2 -114 24 -55 33 -37 36 46 9 45 -15 74 -29 68 -33z"/>
<path d="M12810 13495 c-27 -29 -34 -32 -123 -44 -38 -5 -75 -15 -83 -22 -9
-7 -14 -30 -14 -61 0 -66 69 -266 115 -333 41 -59 44 -98 15 -164 -28 -60 -26
-98 6 -124 74 -62 70 -51 78 -208 4 -79 12 -150 18 -156 17 -21 83 -36 122
-29 46 9 51 27 50 176 -1 85 -6 135 -22 193 -26 92 -26 87 -7 87 8 0 15 -4 15
-10 0 -16 43 -12 69 6 19 14 22 24 19 60 -3 42 -3 43 13 23 20 -27 54 -18 73
19 12 24 12 32 0 61 -14 34 -14 34 5 17 25 -23 45 -16 71 26 29 46 21 85 -32
152 -109 140 -128 172 -128 218 0 53 -29 85 -103 117 -68 29 -127 28 -157 -4z
m140 -57 c43 -22 45 -26 48 -69 2 -36 11 -56 38 -87 43 -51 77 -126 69 -153
-4 -11 -51 -70 -106 -131 -112 -126 -112 -126 -84 -257 21 -99 29 -250 16
-283 -11 -30 -32 -36 -49 -15 -6 7 -14 60 -17 117 -8 130 -18 171 -51 210 -22
25 -25 37 -20 68 24 137 21 164 -35 256 -54 90 -105 238 -93 271 4 8 28 16 62
21 65 7 88 17 119 51 27 29 47 29 103 1z m240 -317 c0 -13 -240 -271 -251
-271 -23 0 -1 30 108 151 106 116 143 147 143 120z m24 -77 c-9 -13 -23 -24
-30 -24 -20 0 -17 10 7 37 28 29 44 20 23 -13z m-87 -118 c-4 -9 -11 -16 -16
-16 -13 0 -24 37 -15 51 10 16 38 -16 31 -35z m-93 -87 c-13 -13 -24 -16 -34
-9 -12 7 -11 13 10 35 21 22 25 24 33 9 7 -11 4 -22 -9 -35z"/>
<path d="M12820 13272 c-37 -11 -55 -83 -28 -110 14 -14 53 -16 78 -2 57 31
13 131 -50 112z"/>
<path d="M12474 13315 c-58 -27 -137 -107 -153 -154 -6 -19 -11 -53 -11 -76 0
-41 1 -43 38 -49 20 -3 52 -6 70 -6 62 0 37 -28 -68 -77 -92 -42 -115 -62 -90
-78 22 -14 315 -65 340 -60 34 7 64 39 85 87 23 56 19 81 -29 171 -24 45 -58
121 -76 169 -18 48 -39 89 -45 92 -7 2 -34 -6 -61 -19z m51 -149 c14 -39 44
-94 66 -123 33 -44 39 -59 34 -83 -16 -72 -68 -97 -140 -66 l-30 13 37 24 c43
28 59 64 51 114 -7 43 -24 53 -101 63 l-57 8 2 34 c1 27 11 44 43 74 51 47 57
43 95 -58z"/>
<path d="M12231 13229 c-59 -23 -153 -102 -172 -143 -25 -55 -24 -116 1 -148
22 -29 78 -58 109 -58 19 0 20 4 14 47 -6 46 -5 48 37 84 41 35 44 42 56 116
20 122 18 127 -45 102z m-23 -117 c2 -14 -11 -37 -39 -67 -66 -72 -93 -53 -44
31 38 64 77 81 83 36z"/>
<path d="M13246 12969 c-28 -33 -35 -93 -16 -130 16 -29 61 -24 94 10 31 32
31 52 -1 119 -19 41 -44 41 -77 1z m58 -62 c8 -22 7 -30 -4 -38 -23 -14 -45
-6 -48 19 -8 56 34 71 52 19z"/>
<path d="M13139 12849 c-15 -15 -19 -30 -17 -61 4 -51 24 -66 64 -47 34 16 41
44 24 94 -13 41 -39 46 -71 14z m49 -60 c-4 -33 -38 -39 -38 -7 0 28 20 52 33
39 5 -5 7 -19 5 -32z"/>
<path d="M13307 12809 c-29 -17 -47 -63 -40 -105 12 -77 30 -90 76 -54 36 29
44 79 21 127 -21 41 -31 47 -57 32z m39 -56 c8 -29 -6 -58 -27 -58 -18 0 -24
52 -8 71 17 21 28 17 35 -13z"/>
<path d="M13046 12769 c-21 -16 -26 -29 -26 -63 0 -45 13 -66 41 -66 40 0 60
54 43 117 -8 31 -29 35 -58 12z m34 -59 c0 -20 -5 -30 -15 -30 -15 0 -21 40
-8 53 14 15 23 6 23 -23z"/>
<path d="M13166 12689 c-22 -17 -26 -28 -26 -74 0 -66 16 -83 60 -65 36 15 50
37 50 79 0 76 -33 100 -84 60z m40 -45 c4 -17 1 -31 -9 -41 -15 -15 -17 -14
-28 10 -9 21 -9 30 1 42 18 22 29 19 36 -11z"/>
<path d="M13055 12607 c-28 -28 -35 -43 -35 -75 0 -46 23 -62 60 -42 38 21 55
115 25 140 -12 10 -21 6 -50 -23z m25 -62 c0 -15 -6 -25 -14 -25 -22 0 -30 19
-16 35 18 22 30 18 30 -10z"/>
<path d="M13333 12620 c-27 -11 -43 -40 -43 -80 0 -68 35 -88 84 -49 21 16 26
29 26 64 0 26 -6 50 -16 59 -17 18 -20 18 -51 6z m35 -58 c5 -32 -16 -56 -34
-41 -15 12 -19 51 -7 63 14 13 38 0 41 -22z"/>
<path d="M13195 12524 c-42 -22 -55 -42 -55 -83 0 -53 11 -65 53 -57 60 11 82
36 79 91 -1 25 -4 51 -7 56 -9 13 -36 10 -70 -7z m35 -69 c0 -25 -34 -49 -52
-38 -12 7 -9 38 4 51 22 22 48 14 48 -13z"/>
<path d="M13390 12483 c-25 -9 -60 -46 -60 -63 0 -17 81 -221 116 -295 18 -36
23 -40 55 -39 55 1 95 25 91 54 -5 52 -118 296 -152 330 -21 21 -25 22 -50 13z
m98 -207 c53 -111 58 -136 24 -136 -14 0 -32 27 -71 112 -29 61 -49 118 -46
125 13 35 42 4 93 -101z"/>
<path d="M13055 12453 c-42 -10 -58 -61 -32 -98 24 -32 63 -13 75 37 10 40 3
70 -17 67 -3 -1 -15 -3 -26 -6z m15 -54 c0 -10 -7 -19 -15 -19 -15 0 -21 31
-9 43 11 10 24 -3 24 -24z"/>
<path d="M13244 12377 l-27 -23 17 -56 c9 -31 32 -95 52 -142 l36 -86 54 0
c34 0 54 4 54 12 0 6 -21 63 -46 127 -83 205 -88 212 -140 168z m82 -112 c29
-64 42 -125 26 -125 -18 0 -39 40 -56 106 -19 73 -19 74 -5 74 5 0 21 -25 35
-55z"/>
<path d="M12686 12359 c-86 -54 -286 -200 -286 -209 0 -23 92 -50 170 -50 36
0 44 6 135 106 106 115 113 135 59 166 -30 18 -31 18 -78 -13z m50 -40 c7 -12
-123 -149 -161 -169 -32 -17 -75 -5 -75 20 0 14 31 41 103 89 105 72 121 79
133 60z"/>
<path d="M10428 12328 c-19 -15 -88 -177 -88 -207 0 -11 10 -27 22 -35 29 -20
43 -8 72 65 25 62 53 81 42 28 -4 -19 -10 -51 -13 -73 -5 -33 -4 -38 13 -34
11 2 28 23 41 51 13 26 27 47 33 47 10 0 9 -12 -12 -94 -7 -30 -6 -42 4 -53
26 -25 47 -4 69 70 36 123 17 182 -76 227 -47 23 -84 26 -107 8z"/>
<path d="M13138 12329 c-16 -9 -18 -26 -18 -127 0 -79 4 -122 12 -130 18 -18
158 -16 158 2 0 8 -23 71 -51 140 -53 129 -61 139 -101 115z m66 -143 c26 -69
26 -86 1 -86 -21 0 -32 28 -39 105 -8 84 2 79 38 -19z"/>
<path d="M12814 12298 c-58 -63 -145 -181 -137 -188 4 -4 39 -12 77 -19 83
-14 85 -13 151 99 56 96 58 116 8 129 -57 16 -66 14 -99 -21z m63 -29 c8 -8 4
-26 -14 -67 -33 -73 -42 -82 -70 -71 -31 11 -29 21 13 90 35 59 50 69 71 48z"/>
<path d="M12976 12278 c-47 -80 -89 -179 -80 -188 15 -15 153 -28 170 -15 10
7 19 44 26 114 11 97 10 105 -7 117 -10 8 -34 14 -51 14 -28 0 -37 -6 -58 -42z
m73 -60 c-2 -84 -10 -103 -47 -106 -42 -4 -49 15 -23 67 12 22 21 46 21 54 0
17 20 37 37 37 9 0 13 -16 12 -52z"/>
<path d="M17500 12240 c-18 -18 -20 -33 -20 -188 0 -151 -2 -171 -18 -185 -66
-60 -95 31 -101 321 -1 18 -6 23 -23 20 -23 -3 -23 -3 -23 -203 0 -139 4 -206
12 -221 33 -57 158 -71 208 -24 24 22 25 29 25 134 0 61 -3 168 -7 239 -7 136
-12 148 -53 107z"/>
<path d="M14689 12184 c-54 -47 -69 -63 -69 -76 0 -5 50 -8 110 -8 61 0 110 2
110 5 0 3 -14 32 -30 65 -20 40 -36 60 -48 60 -10 0 -43 -21 -73 -46z"/>
<path d="M17416 12184 c-9 -24 -7 -237 3 -253 5 -7 14 -10 20 -7 12 8 16 213
5 254 -7 26 -19 29 -28 6z"/>
<path d="M10748 12164 c-21 -11 -32 -30 -48 -80 -11 -36 -20 -82 -20 -101 0
-32 2 -34 28 -31 23 2 29 10 40 48 7 25 18 54 23 65 10 20 9 16 -8 -82 -4 -25
-2 -34 11 -39 23 -9 35 5 57 68 20 58 27 32 9 -34 -12 -42 0 -78 26 -78 21 0
34 42 41 130 7 90 -3 115 -52 136 -43 18 -73 17 -107 -2z"/>
<path d="M17171 12153 c-23 -19 -25 -28 -30 -151 -7 -144 -16 -169 -51 -137
-24 22 -40 75 -40 137 0 59 -7 78 -31 78 -18 0 -19 -10 -19 -169 l0 -169 30
-25 c42 -35 81 -42 125 -21 20 9 39 22 41 28 2 6 3 110 2 230 l-3 218 -24 -19z"/>
<path d="M10997 12080 c-32 -26 -50 -78 -51 -152 -1 -41 3 -61 14 -68 21 -13
30 -3 30 38 0 56 11 112 21 106 5 -3 9 -34 9 -68 0 -41 5 -68 13 -75 21 -17
27 -3 27 60 0 53 8 69 36 69 2 0 4 -29 4 -65 0 -63 1 -65 25 -65 18 0 26 7 32
28 11 41 8 115 -7 151 -24 58 -104 79 -153 41z"/>
<path d="M17085 12081 c-6 -10 1 -111 11 -160 11 -52 25 -1 22 79 -3 78 -15
109 -33 81z"/>
<path d="M15727 12043 c-4 -3 -7 -31 -7 -61 0 -51 3 -57 36 -86 122 -104 175
-191 221 -362 22 -85 26 -120 26 -249 1 -130 -3 -166 -27 -270 -32 -135 -85
-296 -175 -528 -33 -87 -77 -213 -97 -280 -64 -219 -57 -439 18 -552 35 -52
109 -93 184 -101 107 -12 190 73 181 185 -3 47 -9 59 -40 88 -44 40 -82 43
-138 11 -58 -32 -64 -21 -63 120 2 159 47 337 152 598 113 282 155 591 122
912 -20 188 -96 358 -212 467 -83 80 -162 127 -181 108z"/>
<path d="M12166 12022 c-3 -6 -9 -485 -13 -1064 -6 -1078 -3 -1200 32 -1408
24 -138 60 -275 116 -435 58 -168 71 -196 177 -380 139 -241 268 -409 453
-591 169 -165 248 -230 424 -348 135 -91 433 -246 472 -246 30 0 241 111 396
207 207 130 536 407 718 605 291 316 562 809 643 1169 42 186 56 590 56 1634
0 457 -4 835 -8 842 -11 17 -3455 32 -3466 15z m3422 -49 c15 -20 16 -1088 2
-1803 -10 -482 -14 -529 -71 -707 -106 -334 -244 -598 -446 -855 -109 -139
-400 -443 -523 -546 -232 -194 -643 -451 -723 -452 -59 0 -241 88 -396 193
-228 153 -322 227 -457 361 -225 225 -382 442 -513 711 -97 197 -168 404 -219
633 l-26 117 -6 1160 c-3 707 -2 1171 4 1189 l9 29 1676 -6 c1562 -6 1677 -8
1689 -24z"/>
<path d="M13158 11960 c-81 -14 -123 -65 -123 -150 0 -127 115 -199 229 -145
47 23 86 87 86 144 0 102 -86 169 -192 151z m68 -87 c13 -48 9 -139 -5 -157
-18 -22 -48 -20 -61 3 -14 27 -13 154 2 169 22 22 57 14 64 -15z"/>
<path d="M12641 11949 l-25 -10 28 -26 c28 -25 28 -26 24 -137 l-3 -111 69 -3
c38 -2 73 1 79 7 6 6 4 22 -4 45 -18 51 -5 68 65 82 67 13 96 36 96 76 0 42
-15 64 -51 77 -39 13 -245 13 -278 0z m224 -74 c0 -13 -8 -21 -24 -23 -28 -4
-46 11 -37 33 9 25 61 16 61 -10z"/>
<path d="M13473 11953 c-45 -6 -58 -25 -33 -48 17 -16 20 -31 20 -108 0 -70
-4 -95 -16 -108 -16 -17 -15 -19 10 -29 38 -14 113 -13 122 2 5 7 7 28 5 46
l-3 34 52 -41 c45 -35 59 -41 100 -41 27 0 52 5 56 11 3 6 -17 35 -46 64 l-52
53 31 18 c51 30 56 92 10 126 -21 16 -46 20 -125 23 -54 2 -113 1 -131 -2z
m181 -69 c9 -23 -2 -34 -33 -34 -29 0 -51 16 -51 37 0 20 76 17 84 -3z"/>
<path d="M14350 11936 c0 -8 5 -18 10 -21 6 -3 10 -13 10 -21 0 -24 -112 -193
-132 -199 -10 -4 -18 -13 -18 -21 0 -11 15 -14 65 -14 67 0 74 5 53 39 -10 17
-6 28 25 75 21 31 44 56 52 56 8 0 27 -19 44 -42 46 -66 98 -118 118 -118 10
0 40 25 66 55 27 30 52 55 56 55 16 0 45 -55 46 -85 0 -25 5 -30 34 -36 43 -9
150 1 158 14 3 6 -3 17 -14 26 -36 30 -133 185 -133 213 0 21 -6 29 -24 34
-38 9 -66 -4 -66 -31 0 -30 -61 -120 -82 -120 -9 0 -44 35 -77 78 l-61 77 -65
0 c-50 0 -65 -3 -65 -14z"/>
<path d="M15043 11934 c-3 -9 -1 -25 5 -35 15 -23 16 -185 2 -194 -5 -3 -10
-15 -10 -25 0 -24 43 -34 105 -25 34 6 45 12 45 26 0 10 -4 21 -10 24 -15 9
-11 144 5 189 8 22 12 43 9 48 -3 4 -37 8 -75 8 -55 0 -71 -3 -76 -16z"/>
<path d="M12257 11793 c-4 -3 -7 -35 -7 -70 0 -54 3 -63 18 -63 10 0 23 5 30
12 8 8 22 4 54 -17 71 -46 90 -66 76 -82 -24 -30 -109 -64 -139 -58 -25 6 -30
3 -39 -21 -13 -34 -2 -114 17 -121 7 -3 21 1 31 10 9 8 69 42 132 75 116 60
134 78 108 109 -11 14 -102 78 -209 146 -16 11 -32 30 -35 43 -7 26 -27 47
-37 37z"/>
<path d="M15264 11647 c-3 -8 -4 -47 -2 -88 l3 -74 33 3 c18 2 32 -1 32 -7 0
-6 -4 -11 -9 -11 -15 0 -59 -74 -66 -111 -5 -25 -2 -39 8 -47 12 -10 19 -7 39
15 48 57 54 58 95 24 62 -51 123 -35 143 38 6 22 8 85 5 143 -3 56 -5 109 -5
116 0 20 -31 14 -37 -8 -7 -26 -38 -33 -120 -28 -54 3 -69 8 -81 26 -16 25
-30 28 -38 9z m230 -167 c16 -16 -14 -70 -39 -70 -30 0 -54 52 -34 76 13 16
54 12 73 -6z"/>
<path d="M12629 11593 c-12 -13 -16 -187 -23 -976 -8 -959 -8 -960 13 -1073
50 -257 193 -580 374 -839 85 -121 325 -362 468 -470 169 -127 316 -202 373
-191 57 12 253 115 361 191 128 91 432 388 562 550 186 232 346 513 389 683
33 132 41 317 54 1285 11 811 10 826 -24 849 -6 4 -579 8 -1272 8 -1161 0
-1263 -1 -1275 -17z m2525 -53 c12 -12 -11 -1767 -24 -1900 -17 -166 -44 -250
-131 -415 -76 -144 -211 -340 -352 -513 -80 -97 -310 -319 -382 -367 -33 -22
-69 -48 -80 -58 -28 -26 -169 -109 -276 -162 l-89 -45 -52 23 c-137 61 -359
217 -491 346 -226 220 -382 461 -516 798 -93 235 -111 355 -111 753 0 552 13
1460 21 1460 18 0 62 -94 64 -135 1 -29 9 -52 26 -72 13 -17 29 -38 35 -48 7
-13 16 -16 28 -12 24 9 17 60 -24 166 -35 90 -47 141 -33 141 11 0 63 -109 63
-131 0 -43 59 -182 104 -249 51 -73 54 -76 136 -109 80 -32 86 -33 136 -21 66
16 104 3 132 -44 16 -27 31 -36 83 -50 73 -20 135 -54 188 -101 25 -23 54 -36
96 -45 48 -10 67 -20 92 -49 18 -20 32 -47 33 -62 0 -28 -67 -169 -101 -210
-25 -32 -49 -124 -49 -194 0 -38 6 -60 26 -89 29 -43 75 -162 94 -246 15 -68
47 -112 105 -146 54 -31 55 -40 19 -144 -16 -46 -29 -115 -35 -177 -6 -72 -20
-135 -45 -210 -27 -82 -36 -124 -35 -173 0 -75 -14 -167 -35 -225 -10 -30 -13
-78 -12 -185 3 -132 5 -149 28 -194 29 -57 80 -103 127 -112 49 -10 63 21 68
151 6 122 22 170 80 238 22 26 38 56 42 82 5 31 20 54 66 102 59 61 60 63 42
83 -16 18 -16 20 -1 26 9 3 31 4 48 0 27 -5 37 1 97 56 36 34 78 78 93 99 14
20 43 47 65 59 58 35 100 78 154 156 61 91 78 104 190 144 89 32 92 35 112 79
15 32 22 73 24 136 3 62 10 103 23 130 75 157 81 180 68 241 -12 59 -14 61
-102 133 -127 102 -163 123 -227 130 -69 9 -109 39 -109 82 0 47 -18 78 -60
106 -23 16 -56 40 -75 56 -18 15 -36 27 -41 27 -5 0 -30 21 -55 46 -43 42 -53
47 -101 51 -81 6 -199 32 -239 54 -47 24 -50 24 -131 -7 l-68 -26 -32 27 c-28
24 -38 27 -79 22 -84 -10 -109 10 -123 98 -10 60 -19 69 -78 75 l-53 5 4 50
c2 28 4 77 5 110 l1 60 -40 -1 c-32 -1 -45 -8 -70 -37 -54 -62 -110 -74 -161
-35 -61 47 -79 97 -65 174 11 59 3 78 -47 103 -20 10 -46 28 -56 40 -11 12
-31 21 -48 21 -44 0 -118 46 -118 73 0 13 2221 0 2234 -13z"/>
<path d="M13712 11199 c-26 -8 -33 -14 -30 -32 3 -18 19 -26 108 -53 138 -41
202 -66 208 -82 2 -6 -3 -12 -12 -12 -22 0 -20 -17 3 -29 23 -13 117 -17 149
-7 39 13 27 43 -29 74 -29 15 -77 47 -108 72 -84 67 -115 80 -191 79 -36 0
-80 -5 -98 -10z"/>
<path d="M14315 10998 c-16 -5 -36 -12 -44 -14 -11 -3 -11 -7 0 -20 10 -13 9
-16 -9 -21 -12 -3 -22 -11 -22 -18 0 -15 109 -27 167 -18 72 10 76 60 8 89
-39 16 -58 17 -100 2z"/>
<path d="M13976 10941 c-9 -14 23 -34 55 -34 38 0 49 11 25 29 -22 16 -72 19
-80 5z"/>
<path d="M14542 10941 c-26 -16 -9 -46 27 -49 47 -5 63 14 32 39 -25 21 -39
23 -59 10z"/>
<path d="M14686 10464 c-8 -22 12 -56 32 -52 21 4 28 34 12 53 -16 20 -36 19
-44 -1z"/>
<path d="M12254 11326 c-3 -8 -6 -83 -7 -168 l-2 -153 40 0 c37 0 40 2 38 25
-2 14 -4 39 -5 55 l-3 30 98 0 c92 0 99 -2 116 -24 12 -16 24 -22 35 -18 13 5
16 23 16 101 0 106 -10 125 -45 83 -20 -26 -24 -27 -123 -27 -115 0 -125 6
-97 59 9 18 13 36 10 41 -9 15 -65 12 -71 -4z"/>
<path d="M15263 11203 c-9 -23 -9 -83 0 -106 6 -15 10 -16 27 -5 30 19 40 -2
40 -84 0 -72 -11 -89 -40 -63 -37 34 -53 -10 -48 -134 l3 -74 45 38 c25 21 84
67 132 102 151 111 166 147 70 176 -55 16 -202 119 -202 141 0 23 -19 29 -27
9z m167 -204 c0 -13 -29 -31 -40 -24 -11 7 -14 38 -4 48 7 6 44 -14 44 -24z"/>
<path d="M12250 10941 c-13 -26 -13 -107 1 -132 10 -19 12 -19 35 -4 21 13 44
15 127 12 56 -3 116 -8 133 -12 30 -7 31 -5 37 32 18 105 1 140 -48 101 -23
-18 -37 -20 -124 -16 -70 2 -105 8 -124 21 -25 16 -27 16 -37 -2z"/>
<path d="M12277 10748 c-21 -21 -26 -39 -32 -103 -9 -91 0 -234 15 -249 7 -7
14 -6 22 2 16 16 239 17 255 1 7 -7 19 -9 27 -6 12 5 16 21 16 70 0 71 -17
100 -40 72 -14 -17 -67 -20 -90 -5 -23 14 -3 39 66 81 57 35 59 37 62 83 4 62
-14 69 -85 30 l-54 -29 -27 33 c-38 46 -100 55 -135 20z m103 -128 c6 -12 10
-38 8 -58 -3 -33 -6 -37 -34 -40 -56 -5 -83 47 -48 96 19 28 60 29 74 2z"/>
<path d="M15253 10703 c-10 -3 -13 -45 -13 -163 0 -87 3 -165 6 -174 3 -9 17
-16 30 -16 24 0 24 1 18 69 -5 49 -3 70 6 76 7 4 49 -30 114 -94 57 -56 108
-101 114 -101 6 0 16 9 22 19 11 21 14 278 4 329 -7 33 -30 47 -58 36 -18 -7
-22 -39 -6 -49 13 -8 13 -125 0 -125 -6 0 -47 35 -93 77 -118 111 -131 121
-144 116z"/>
<path d="M12250 10270 c0 -74 2 -81 18 -75 37 14 230 18 262 5 17 -7 33 -11
35 -8 3 3 7 33 10 68 5 73 -6 96 -38 79 -21 -12 -222 -7 -264 6 -23 7 -23 6
-23 -75z"/>
<path d="M15247 10293 c-4 -3 -7 -37 -7 -74 l0 -68 37 2 c31 2 38 -2 44 -23
15 -51 10 -106 -11 -125 -19 -17 -21 -17 -41 1 -17 15 -22 16 -29 4 -12 -19
-7 -215 5 -215 5 0 17 16 26 35 13 26 36 46 100 82 158 89 168 96 175 123 8
31 -19 65 -51 65 -21 0 -146 80 -192 122 -12 11 -25 33 -28 49 -6 29 -15 35
-28 22z m163 -208 c15 -18 5 -35 -21 -35 -14 0 -19 7 -19 25 0 28 21 33 40 10z"/>
<path d="M12272 10144 c-21 -14 -22 -22 -22 -146 l0 -130 23 8 c12 4 69 9 126
11 96 4 105 3 127 -18 36 -33 45 -15 42 77 -3 73 -5 79 -23 76 -84 -15 -99
-14 -112 4 -7 10 -13 34 -13 53 0 74 -6 81 -69 81 -35 0 -65 -6 -79 -16z m92
-73 c29 -32 17 -56 -29 -56 -34 0 -40 3 -43 23 -7 48 40 69 72 33z"/>
<path d="M12247 9823 c-2 -5 -3 -46 -3 -93 1 -102 17 -136 70 -145 46 -9 71 6
107 65 34 56 65 72 86 44 20 -27 16 -50 -17 -87 -33 -38 -26 -57 23 -57 41 0
69 17 59 36 -5 9 -5 38 0 67 13 68 3 114 -32 149 -33 32 -53 34 -110 12 -29
-12 -48 -30 -70 -66 -17 -27 -36 -47 -43 -45 -19 7 -9 49 21 80 22 23 24 29
12 37 -18 12 -97 13 -103 3z"/>
<path d="M15231 9568 c-8 -23 -25 -94 -25 -113 -1 -5 15 -10 34 -10 33 0 35
-2 35 -35 0 -44 -30 -54 -56 -19 -14 19 -20 21 -32 11 -21 -18 -59 -110 -55
-135 3 -19 9 -21 43 -19 43 3 141 -33 164 -62 7 -9 19 -16 25 -16 17 0 56 84
56 119 0 25 -5 30 -34 35 -47 9 -60 27 -45 60 15 31 28 33 62 6 43 -34 53 -27
80 66 19 64 10 82 -30 65 -24 -10 -40 -8 -96 9 -39 12 -73 29 -80 40 -16 26
-36 25 -46 -2z"/>
<path d="M12513 9463 c-21 -8 -15 -33 17 -70 45 -51 37 -103 -16 -103 -26 0
-35 18 -22 43 11 22 2 37 -22 37 -48 0 -61 -22 -37 -61 10 -17 9 -22 -8 -35
-17 -13 -21 -12 -37 4 -18 17 -23 49 -16 102 3 22 -1 25 -26 25 -45 0 -54 -24
-34 -99 36 -138 108 -252 108 -171 0 32 29 50 103 65 50 10 62 9 82 -4 56 -37
72 -16 45 56 -11 29 -27 80 -36 113 -25 95 -50 119 -101 98z"/>
<path d="M15075 9198 c-34 -40 -58 -95 -51 -114 3 -8 15 -14 26 -14 22 0 25
-12 9 -42 -11 -20 -11 -20 -31 2 -19 21 -21 21 -40 3 -11 -10 -41 -49 -66 -86
-55 -83 -50 -96 30 -79 29 6 102 14 162 17 104 5 136 14 136 39 0 6 -27 60
-61 119 -41 71 -62 119 -63 144 -1 48 -17 51 -51 11z m65 -197 c14 -27 13 -31
-8 -31 -24 0 -42 19 -35 36 7 20 31 17 43 -5z"/>
<path d="M12725 8920 c-21 -23 -19 -25 26 -48 18 -10 42 -30 53 -45 l21 -29
-35 -29 c-74 -63 -124 -91 -152 -85 -23 5 -28 2 -28 -15 0 -25 63 -115 90
-129 21 -11 24 -8 33 31 10 39 132 129 176 129 35 0 25 34 -30 107 -64 85
-109 133 -124 133 -7 0 -20 -9 -30 -20z"/>
<path d="M14793 8775 c-120 -138 -137 -241 -45 -261 37 -7 62 -20 94 -45 41
-34 66 -20 154 87 81 98 93 126 60 132 -11 2 -53 30 -95 62 -120 90 -112 89
-168 25z m58 -65 c26 -15 24 -52 -5 -79 -31 -29 -60 -24 -64 11 -3 27 23 78
40 78 5 0 18 -5 29 -10z m107 -82 c19 -19 14 -42 -13 -68 -21 -19 -30 -22 -43
-14 -25 16 -25 37 -2 67 23 29 39 34 58 15z"/>
<path d="M12942 8658 c-20 -20 -14 -35 23 -57 40 -23 44 -40 15 -66 -16 -15
-22 -15 -35 -5 -8 7 -15 19 -15 27 0 20 -40 13 -54 -10 -9 -15 -7 -22 12 -34
12 -9 22 -21 22 -28 0 -20 -37 -47 -62 -43 -19 2 -24 11 -29 46 -8 63 -22 71
-58 34 -22 -21 -29 -36 -24 -49 12 -33 155 -184 171 -181 9 2 19 14 22 27 8
36 136 131 176 131 17 0 34 3 37 6 10 10 -12 44 -63 99 -25 27 -57 65 -69 83
-23 33 -48 41 -69 20z"/>
<path d="M14523 8437 l-95 -92 20 -25 20 -25 49 53 c27 28 54 52 61 52 15 0
56 -45 90 -97 15 -24 32 -43 39 -43 15 0 71 47 83 70 8 16 0 28 -46 72 -31 29
-65 70 -75 90 -11 21 -26 38 -35 38 -8 0 -58 -42 -111 -93z"/>
<path d="M14341 8286 c-32 -33 -33 -37 -21 -66 12 -28 11 -33 -11 -56 -27 -29
-111 -84 -127 -84 -7 0 -12 9 -12 19 0 31 -11 51 -27 51 -24 0 -138 -90 -138
-109 0 -11 12 -18 40 -22 22 -4 87 -32 145 -63 58 -31 112 -55 120 -54 19 4
39 60 40 113 0 22 10 87 21 145 33 170 29 187 -30 126z m-29 -226 c-5 -33 -24
-52 -45 -44 -20 7 -22 45 -5 62 7 7 22 11 33 10 15 -2 19 -9 17 -28z"/>
<path d="M13320 8238 c0 -24 -11 -96 -25 -161 -14 -64 -25 -126 -25 -137 0
-32 49 -25 101 13 47 36 152 83 209 93 65 12 77 35 30 59 -37 19 -70 19 -70 0
0 -30 -34 -35 -76 -11 -38 22 -39 23 -37 74 2 47 0 53 -30 76 -18 13 -42 27
-54 31 -21 6 -23 3 -23 -37z m124 -177 c9 -14 -21 -33 -45 -29 -29 4 -34 21
-14 42 16 16 45 10 59 -13z"/>
<path d="M13658 8033 c-2 -10 5 -46 16 -80 l19 -61 -26 -32 c-37 -43 -36 -92
1 -129 19 -20 51 -33 114 -49 130 -33 147 -30 126 24 -9 24 -6 50 11 129 12
55 24 109 27 121 5 18 -3 23 -62 43 -77 25 -90 18 -68 -36 11 -25 12 -39 4
-53 -21 -39 -43 -19 -61 55 -15 62 -34 85 -70 85 -18 0 -29 -6 -31 -17z m140
-241 c2 -22 -2 -34 -12 -38 -22 -8 -46 13 -46 41 0 28 9 37 35 33 15 -2 21
-12 23 -36z"/>
<path d="M11241 11983 c-24 -20 -55 -124 -46 -153 7 -23 36 -34 47 -18 4 7 8
24 9 38 0 14 4 34 9 45 7 15 9 9 9 -25 1 -53 13 -75 35 -67 11 5 16 19 16 52
0 25 5 45 10 45 6 0 10 -23 10 -50 0 -36 4 -52 15 -57 22 -8 24 -4 39 68 8 42
10 71 4 85 -23 49 -115 71 -157 37z"/>
<path d="M16884 11978 c-5 -7 -7 -56 -6 -108 3 -72 0 -100 -12 -115 -24 -32
-38 -6 -47 87 -4 46 -8 84 -8 86 -1 1 -13 2 -28 2 l-26 0 6 -116 c8 -137 17
-154 82 -154 32 0 47 6 66 26 23 24 24 31 24 162 0 133 -1 137 -22 140 -11 2
-25 -3 -29 -10z"/>
<path d="M10305 11968 c-18 -52 -75 -647 -75 -781 0 -126 41 -177 144 -177 80
0 108 15 123 65 13 44 66 771 57 786 -10 16 -43 9 -54 -12 -7 -11 -16 -80 -21
-152 -21 -313 -42 -494 -58 -525 -18 -35 -50 -47 -70 -28 -13 14 -16 47 -19
209 -2 159 1 226 22 387 l25 195 -25 23 c-28 25 -43 28 -49 10z"/>
<path d="M11989 11901 c-113 -116 -169 -257 -205 -518 -14 -106 -15 -151 -5
-330 12 -238 33 -374 98 -658 51 -222 67 -388 43 -446 -12 -29 -16 -30 -49
-24 -124 24 -174 3 -204 -84 -22 -66 -11 -117 38 -165 67 -67 171 -69 282 -6
94 54 143 161 143 316 0 129 -22 222 -139 589 -72 226 -118 554 -108 770 10
209 59 342 168 455 64 67 74 87 64 136 -10 57 -45 47 -126 -35z"/>
<path d="M11448 11897 c-16 -15 -29 -40 -33 -65 -12 -73 16 -85 44 -19 l18 42
-1 -39 c-1 -50 19 -58 38 -14 l14 33 1 -47 c1 -34 5 -48 15 -48 19 0 26 23 26
90 0 49 -4 61 -22 74 -32 23 -71 20 -100 -7z"/>
<path d="M10420 11865 c-28 -73 -71 -597 -52 -631 6 -11 12 -13 16 -6 15 24
71 563 67 640 -1 29 -19 28 -31 -3z"/>
<path d="M16666 11877 c-14 -11 -19 -28 -20 -80 0 -37 -5 -68 -11 -69 -5 -2
-15 24 -20 57 -9 48 -14 60 -29 60 -17 0 -19 -7 -17 -79 1 -43 6 -89 11 -102
10 -26 47 -39 82 -29 45 14 48 22 48 141 0 120 -4 130 -44 101z"/>
<path d="M11665 11850 c-29 -11 -46 -34 -55 -73 -14 -65 30 -93 55 -34 14 32
20 28 27 -18 5 -32 30 -23 43 14 13 39 30 28 19 -12 -7 -32 14 -47 33 -22 31
44 4 126 -48 144 -37 13 -46 13 -74 1z"/>
<path d="M15730 11821 c-16 -30 -13 -173 4 -197 14 -19 15 -19 44 3 23 17 38
20 71 16 36 -5 41 -3 41 14 0 36 -112 183 -140 183 -5 0 -14 -9 -20 -19z"/>
<path d="M16478 11819 c-14 -8 -18 -24 -18 -74 0 -63 -12 -87 -32 -67 -9 9
-15 39 -17 88 -1 17 -30 25 -50 15 -16 -9 -17 -18 -9 -83 7 -54 15 -78 30 -90
27 -24 80 -23 109 1 22 18 24 26 24 117 0 99 -5 112 -37 93z"/>
<path d="M10646 11768 c-18 -172 -47 -592 -44 -642 3 -56 5 -61 36 -79 31 -18
35 -19 77 -3 54 21 71 54 79 161 4 44 17 172 28 285 28 268 28 274 2 278 -20
3 -22 -6 -43 -180 -12 -101 -26 -232 -32 -292 -5 -61 -15 -116 -21 -123 -15
-18 -67 -17 -74 2 -4 8 3 124 15 257 12 134 22 275 24 313 2 65 0 70 -20 73
-19 3 -22 -3 -27 -50z"/>
<path d="M10736 11761 c-8 -12 -49 -381 -50 -451 -1 -42 2 -55 14 -55 8 0 17
14 21 35 13 66 51 418 47 446 -3 28 -21 43 -32 25z"/>
<path d="M16271 11744 c-20 -15 -22 -21 -16 -65 6 -41 4 -50 -11 -56 -21 -8
-44 21 -44 56 0 35 -13 53 -33 45 -12 -4 -17 -18 -17 -48 0 -80 46 -124 110
-106 19 5 37 15 42 22 10 17 11 168 0 168 -4 0 -18 -7 -31 -16z"/>
<path d="M12073 11723 c-9 -16 -32 -43 -51 -60 -29 -27 -32 -36 -22 -48 7 -8
20 -15 30 -15 9 0 25 -9 35 -20 37 -41 45 -27 45 75 0 100 -8 114 -37 68z"/>
<path d="M10895 11708 c-9 -45 -26 -247 -32 -398 l-6 -156 32 -27 c35 -29 74
-34 116 -15 31 14 26 -8 65 317 25 213 28 266 18 272 -36 24 -42 7 -73 -231
-33 -247 -55 -299 -92 -212 -14 32 -14 54 -4 177 16 199 15 295 -4 295 -8 0
-17 -10 -20 -22z"/>
<path d="M8360 10740 l0 -970 575 0 575 0 0 180 0 180 -377 2 -378 3 -3 252
-2 253 377 2 378 3 3 178 2 177 -380 0 -380 0 0 175 0 175 380 0 380 0 0 180
0 180 -575 0 -575 0 0 -970z"/>
<path d="M10971 11669 c-11 -28 -35 -359 -27 -367 13 -12 19 12 36 140 28 206
29 226 14 239 -11 9 -16 6 -23 -12z"/>
<path d="M11151 11647 c-11 -29 -41 -300 -41 -371 0 -66 32 -112 85 -122 43
-8 98 18 114 53 7 15 16 92 21 172 5 80 12 171 15 202 4 44 3 58 -9 62 -30 12
-38 -12 -67 -198 -23 -155 -30 -175 -60 -175 -25 0 -42 43 -35 90 16 99 25
285 14 297 -15 19 -27 16 -37 -10z"/>
<path d="M11231 11627 c-11 -29 -31 -188 -31 -249 0 -57 23 -66 38 -15 14 45
36 263 28 276 -11 18 -26 13 -35 -12z"/>
<path d="M17527 11622 c-15 -16 -17 -48 -17 -238 0 -201 -2 -222 -20 -251 -16
-27 -26 -33 -54 -33 -19 0 -38 6 -43 13 -4 6 -10 116 -13 244 -3 135 -9 236
-15 242 -5 5 -19 11 -29 13 -30 5 -34 -29 -38 -316 l-3 -265 30 -30 c63 -67
159 -62 217 11 l33 42 7 201 c3 110 7 242 7 293 1 90 1 92 -22 92 -13 0 -31
-8 -40 -18z"/>
<path d="M17194 11589 c-17 -19 -20 -42 -24 -199 -5 -184 -11 -210 -50 -210
-28 0 -32 23 -37 200 -5 189 -8 210 -28 210 -29 0 -35 -51 -35 -276 0 -253 3
-265 70 -285 29 -9 43 -8 66 2 39 19 56 59 65 154 11 110 11 425 1 425 -5 0
-17 -9 -28 -21z"/>
<path d="M11390 11430 l0 -170 29 -32 c24 -27 36 -33 71 -33 33 0 47 6 65 27
20 23 24 42 30 140 4 62 5 136 3 163 -2 42 -6 50 -23 50 -18 0 -21 -9 -28
-105 -10 -134 -22 -180 -46 -180 -38 0 -45 27 -49 171 -4 139 -4 139 -28 139
l-24 0 0 -170z"/>
<path d="M11467 11513 c-10 -100 -8 -151 4 -159 18 -11 27 15 34 102 8 87 2
124 -19 124 -9 0 -15 -22 -19 -67z"/>
<path d="M16916 11557 c-16 -12 -19 -32 -21 -180 -1 -92 -5 -170 -9 -174 -4
-4 -15 -2 -24 3 -15 10 -18 35 -22 180 -5 162 -6 169 -26 172 -18 3 -22 -4
-28 -44 -10 -75 -7 -308 5 -364 16 -77 64 -101 114 -57 25 21 26 27 41 231 17
244 14 265 -30 233z"/>
<path d="M11619 11558 c0 -2 -4 -55 -8 -118 -11 -164 16 -224 91 -198 42 15
59 73 56 188 -3 79 -6 95 -20 98 -13 3 -18 -7 -23 -45 -11 -88 -29 -148 -45
-148 -12 0 -16 21 -18 113 -2 90 -5 112 -17 112 -8 0 -15 -1 -16 -2z"/>
<path d="M16689 11548 c-1 -2 -7 -69 -13 -151 -11 -136 -24 -183 -43 -163 -4
4 -10 75 -12 157 -3 133 -5 150 -20 147 -21 -4 -29 -69 -30 -259 -1 -129 1
-148 17 -162 25 -23 78 -21 102 3 19 19 20 33 20 225 0 130 -4 205 -10 205 -5
0 -10 -1 -11 -2z"/>
<path d="M17424 11539 c-10 -17 -18 -289 -10 -333 8 -40 30 -48 40 -13 8 29 8
321 0 341 -7 19 -20 21 -30 5z"/>
<path d="M16473 11523 c-9 -3 -13 -34 -13 -106 0 -113 -6 -147 -25 -147 -15 0
-21 32 -31 153 -6 76 -9 87 -25 87 -18 0 -19 -10 -19 -164 0 -174 3 -186 51
-201 25 -8 67 18 78 48 13 33 18 330 6 333 -5 1 -16 0 -22 -3z"/>
<path d="M17102 11371 c2 -82 6 -152 10 -156 21 -21 28 15 28 140 0 142 -4
165 -27 165 -12 0 -14 -23 -11 -149z"/>
<path d="M15877 11482 c-12 -13 -17 -36 -17 -81 0 -53 -2 -62 -17 -59 -12 2
-20 20 -28 63 -6 33 -14 66 -18 73 -11 16 -39 15 -62 -2 -18 -13 -18 -19 -6
-132 8 -66 18 -127 23 -136 19 -38 150 -8 193 44 26 31 27 36 21 109 -10 112
-18 133 -47 137 -15 2 -32 -5 -42 -16z"/>
<path d="M16266 11488 c-3 -7 -7 -55 -10 -107 -3 -52 -8 -96 -11 -99 -2 -3
-11 1 -20 8 -11 9 -15 32 -15 81 0 50 -4 72 -17 84 -26 27 -31 2 -24 -125 7
-120 17 -152 52 -171 18 -9 26 -7 46 14 32 31 42 84 43 213 0 84 -3 103 -16
108 -22 8 -24 8 -28 -6z"/>
<path d="M12005 11461 c-34 -5 -40 -10 -40 -30 0 -30 33 -41 91 -32 27 4 40
12 42 25 4 20 -23 47 -42 45 -6 -1 -29 -5 -51 -8z"/>
<path d="M11978 11353 c-21 -5 -35 -50 -21 -64 6 -6 37 -9 69 -7 56 3 59 4 62
31 2 16 -2 29 -10 31 -26 9 -83 14 -100 9z"/>
<path d="M15870 11160 c-16 -16 -20 -33 -20 -89 0 -83 13 -124 37 -119 27 5
46 55 51 136 4 56 1 76 -9 83 -22 14 -37 11 -59 -11z"/>
<path d="M11960 11160 c-12 -8 -14 -31 -12 -127 4 -125 11 -149 43 -132 16 8
19 21 19 84 0 40 5 77 10 80 12 7 30 -36 30 -73 0 -37 19 -102 30 -102 5 0 16
8 26 17 14 15 16 32 11 123 -7 142 -6 140 -81 140 -33 0 -68 -5 -76 -10z"/>
<path d="M15752 11142 c-20 -13 -33 -73 -27 -122 14 -110 14 -110 44 -110 16
0 33 6 39 13 17 21 25 168 10 197 -14 26 -44 36 -66 22z"/>
<path d="M11664 11126 c-8 -20 13 -345 26 -402 11 -49 4 -78 -12 -49 -6 9 -22
112 -37 228 -23 185 -29 212 -45 215 -10 2 -22 0 -28 -6 -10 -10 26 -287 58
-447 26 -130 92 -295 117 -295 7 0 7 77 2 218 -4 119 -11 291 -14 382 l-6 165
-28 3 c-17 2 -29 -2 -33 -12z"/>
<path d="M11480 11043 c0 -99 21 -284 52 -453 33 -184 39 -253 23 -258 -24 -8
-66 168 -106 448 -22 157 -42 286 -44 288 -2 2 -13 1 -24 -3 -18 -5 -20 -12
-16 -43 3 -20 19 -143 35 -272 39 -304 71 -423 151 -572 33 -62 72 -125 87
-140 25 -27 56 -36 65 -20 3 4 -6 50 -19 102 -25 98 -69 351 -129 732 -18 120
-36 222 -40 228 -3 5 -13 10 -21 10 -10 0 -14 -13 -14 -47z"/>
<path d="M11266 11034 c-9 -23 -7 -90 4 -159 5 -33 16 -141 25 -240 9 -99 27
-259 41 -355 14 -96 27 -193 30 -215 5 -39 5 -39 -9 -15 -18 32 -51 154 -81
305 -23 109 -45 307 -62 555 -8 107 -16 130 -46 130 -19 0 -20 -4 -14 -82 3
-46 11 -186 16 -313 6 -126 18 -275 26 -330 23 -143 79 -294 165 -441 74 -125
74 -126 82 -92 12 53 -2 265 -33 508 -32 243 -40 309 -70 557 -10 89 -24 171
-30 182 -13 25 -35 27 -44 5z"/>
<path d="M11031 11001 c-22 -14 -24 -88 -7 -347 41 -633 47 -711 52 -749 5
-31 4 -38 -6 -28 -13 12 -52 230 -69 385 -5 51 -15 194 -21 318 -7 124 -15
259 -18 300 l-7 75 -30 0 -30 0 -3 -75 c-6 -148 26 -563 58 -748 36 -210 92
-421 125 -479 30 -51 74 -103 86 -103 18 0 4 284 -26 555 -8 72 -21 263 -30
425 -24 476 -24 480 -43 480 -10 0 -23 -4 -31 -9z"/>
<path d="M16682 10973 c-5 -10 -12 -49 -16 -88 -12 -129 -74 -443 -118 -597
-34 -119 -63 -177 -80 -160 -7 7 2 61 30 179 57 234 62 267 69 449 6 170 2
214 -22 214 -19 0 -22 -20 -30 -160 -14 -262 -67 -578 -131 -785 -9 -27 -43
-108 -76 -179 -62 -131 -76 -188 -48 -193 17 -3 110 112 170 210 52 87 153
325 191 452 82 276 129 675 79 675 -5 0 -13 -8 -18 -17z"/>
<path d="M16295 10948 c-3 -18 -12 -85 -20 -148 -33 -260 -69 -406 -157 -628
-45 -113 -58 -156 -49 -161 25 -16 65 3 125 59 155 146 257 423 273 741 7 135
1 169 -27 169 -11 0 -20 -6 -20 -12 0 -7 -5 -80 -10 -163 -10 -163 -33 -273
-82 -405 -28 -77 -93 -190 -118 -205 -15 -9 -12 28 6 71 21 49 38 116 58 223
9 47 21 101 26 120 5 20 21 105 36 190 26 149 26 154 9 168 -30 21 -44 15 -50
-19z"/>
<path d="M16214 10948 c-4 -6 -15 -82 -25 -168 -10 -85 -23 -169 -30 -185
l-13 -30 -4 28 c-2 15 1 59 7 97 20 124 11 260 -14 220 -4 -7 -12 -79 -17
-159 -4 -80 -17 -191 -28 -246 -11 -55 -20 -110 -20 -122 0 -28 18 -39 35 -22
17 18 83 177 107 259 23 77 38 323 20 334 -6 3 -14 1 -18 -6z"/>
<path d="M16740 10538 c-29 -233 -56 -481 -61 -553 -8 -136 -34 -244 -108
-443 -50 -135 -36 -173 30 -84 113 150 182 281 237 452 74 229 104 441 128
902 6 125 5 138 -10 144 -42 16 -47 -14 -87 -556 -6 -80 -17 -182 -25 -227
-24 -142 -114 -364 -114 -283 0 14 7 66 14 115 8 50 33 259 56 465 22 206 43
392 46 412 4 29 1 41 -15 57 -12 12 -25 21 -29 21 -5 0 -32 -190 -62 -422z"/>
<path d="M10786 10937 c-30 -22 -40 -216 -27 -492 18 -357 40 -650 56 -759 17
-113 20 -216 5 -216 -5 0 -12 15 -15 33 -3 17 -19 104 -35 192 -35 186 -52
361 -83 862 -13 200 -25 364 -28 367 -2 2 -15 7 -28 11 l-24 7 6 -348 c6 -341
40 -815 67 -941 35 -160 181 -516 217 -530 28 -11 31 13 22 152 -5 77 -25 412
-44 745 -44 756 -53 882 -63 909 -7 19 -10 20 -26 8z"/>
<path d="M17525 10917 c-31 -26 -30 -6 -46 -542 -9 -319 -14 -381 -40 -541
-27 -169 -136 -655 -161 -716 -10 -28 -22 -35 -32 -20 -8 13 22 279 45 400 57
309 86 642 91 1050 l3 294 -29 24 c-15 14 -30 24 -31 22 -2 -2 -8 -127 -14
-278 -17 -408 -29 -563 -67 -900 -19 -168 -39 -359 -44 -425 -21 -256 -50
-433 -111 -671 -52 -204 -57 -234 -35 -234 34 0 173 305 269 591 126 372 223
861 246 1234 14 226 24 696 16 718 -10 23 -29 21 -60 -6z"/>
<path d="M15796 10895 c-50 -18 -54 -22 -62 -72 -5 -36 -4 -44 11 -49 25 -10
107 13 123 33 15 21 16 75 0 91 -15 15 -23 15 -72 -3z"/>
<path d="M17046 10888 c-9 -43 -36 -363 -51 -603 -9 -132 -23 -325 -32 -430
-13 -156 -14 -211 -4 -310 11 -117 10 -137 -15 -442 -6 -72 -5 -83 9 -83 20 0
106 217 141 355 43 171 95 492 112 685 16 199 31 781 20 824 -7 27 -39 36 -52
15 -8 -13 -17 -174 -39 -665 -8 -198 -20 -388 -26 -424 -26 -164 -63 -280 -83
-259 -2 2 4 126 15 274 34 488 40 627 37 854 -2 165 -6 225 -15 228 -7 3 -14
-6 -17 -19z"/>
<path d="M10216 10819 c-9 -95 -7 -495 4 -721 21 -400 59 -598 236 -1219 87
-307 125 -414 147 -406 18 6 13 130 -27 717 -19 283 -49 772 -67 1085 -17 314
-34 574 -38 578 -9 9 -56 -7 -66 -22 -3 -6 1 -206 9 -443 9 -238 20 -572 26
-743 12 -362 16 -428 36 -513 17 -77 18 -105 2 -100 -15 5 -23 34 -48 173 -11
61 -33 175 -50 255 -47 226 -61 394 -70 845 -5 226 -9 436 -9 468 -1 48 -5 62
-26 82 -39 40 -51 33 -59 -36z"/>
<path d="M12070 10725 c-14 -7 -34 -16 -44 -19 -17 -6 -18 -13 -13 -65 12
-116 59 -194 86 -143 18 34 34 198 21 221 -13 25 -17 25 -50 6z"/>
<path d="M15735 10688 c-9 -36 -1 -213 10 -213 9 0 68 136 80 186 6 23 3 27
-22 32 -15 3 -36 9 -45 12 -13 5 -19 0 -23 -17z"/>
<path d="M11854 9531 c-125 -7 -109 1 -268 -135 -48 -42 -95 -76 -103 -76 -8
0 -33 13 -56 28 -64 44 -105 56 -182 57 -59 0 -77 -4 -117 -28 -50 -29 -68
-52 -68 -85 0 -27 19 -32 93 -25 85 8 96 -10 23 -33 -69 -22 -117 -68 -119
-115 l-2 -34 125 0 c97 -1 134 -4 165 -18 81 -36 125 -103 125 -189 0 -46 -7
-65 -46 -132 -43 -71 -45 -79 -31 -94 35 -34 167 21 222 94 55 72 70 194 40
319 -25 103 -24 104 69 191 46 44 131 120 189 169 58 50 106 96 106 103 1 7
-10 11 -26 10 -16 -1 -78 -4 -139 -7z"/>
<path d="M15724 9509 c-3 -6 -10 -44 -15 -85 -13 -119 -61 -176 -102 -120 -40
55 -63 22 -52 -75 10 -84 21 -93 114 -85 127 12 146 18 149 49 2 15 -4 62 -12
103 -18 88 -20 117 -6 112 9 -3 145 -153 281 -311 l59 -68 -6 -114 c-9 -150 3
-193 70 -260 105 -104 221 -121 179 -26 -45 103 -53 134 -53 202 0 75 8 98 48
141 51 55 155 45 237 -23 26 -21 51 -39 56 -39 16 0 31 53 24 86 -3 17 -28 57
-56 90 -49 55 -50 58 -30 66 13 4 41 3 65 -4 75 -20 97 6 51 60 -59 70 -211
96 -326 54 l-56 -20 -39 22 c-22 12 -66 43 -99 68 -33 25 -95 68 -139 97 l-79
51 -109 0 c-85 0 -110 3 -114 14 -7 19 -32 28 -40 15z"/>
<path d="M8692 9465 c-270 -61 -452 -298 -412 -535 31 -185 131 -303 506 -602
300 -239 348 -318 269 -440 -57 -87 -217 -119 -328 -65 -62 31 -135 100 -185
175 -19 29 -38 51 -42 50 -32 -14 -320 -184 -320 -189 0 -17 107 -165 155
-214 204 -210 571 -263 847 -124 78 39 187 144 226 217 91 170 82 389 -23 546
-58 88 -143 168 -365 346 -222 178 -324 270 -346 312 -52 101 52 202 190 183
73 -9 143 -50 219 -126 l67 -69 140 117 c77 64 140 119 140 123 0 4 -35 41
-78 82 -116 110 -187 156 -312 198 -84 28 -257 36 -348 15z"/>
<path d="M12026 9404 c-4 -15 -4 -52 0 -83 6 -49 12 -61 48 -93 23 -21 50 -38
60 -38 17 0 18 6 13 73 -8 105 -21 132 -68 151 -49 20 -46 21 -53 -10z"/>
<path d="M11865 9129 c-3 -19 -5 -58 -3 -88 l3 -55 100 -23 c231 -53 296 -65
303 -59 4 4 7 28 6 52 -1 59 -21 79 -77 78 -30 -1 -45 4 -55 17 -7 10 -31 24
-54 31 -39 12 -41 11 -64 -18 -20 -24 -26 -27 -34 -14 -5 8 -10 29 -10 46 0
39 -18 54 -69 61 -39 5 -40 5 -46 -28z"/>
<path d="M15782 9128 c-17 -17 -15 -53 3 -68 20 -17 61 -5 68 19 11 42 -42 78
-71 49z"/>
<path d="M15630 9105 c-10 -12 -10 -21 -1 -41 9 -21 17 -25 44 -22 25 2 33 8
35 26 7 45 -49 72 -78 37z"/>
<path d="M15488 9085 c-13 -29 3 -55 33 -55 27 0 46 44 29 65 -19 23 -49 18
-62 -10z"/>
<path d="M15459 8983 c-16 -2 -29 -12 -32 -24 -7 -26 3 -88 15 -95 8 -5 263
10 361 22 l48 6 -3 47 -3 46 -180 1 c-99 1 -192 -1 -206 -3z"/>
<path d="M11882 8912 c-8 -6 -12 -23 -10 -43 3 -33 4 -34 73 -50 354 -81 378
-84 383 -38 2 14 -3 31 -10 37 -17 13 -303 88 -373 96 -27 4 -56 2 -63 -2z"/>
<path d="M15416 8820 c-45 -14 -74 -48 -85 -102 -23 -105 -9 -178 34 -178 24
0 25 2 25 69 0 109 24 150 86 151 48 0 62 -24 70 -122 6 -77 9 -88 26 -88 27
0 41 45 35 116 -10 135 -76 188 -191 154z"/>
<path d="M15721 8820 c-18 -5 -45 -20 -59 -34 -22 -22 -27 -37 -30 -96 -6 -95
3 -140 28 -140 18 0 20 7 20 88 0 73 3 92 18 105 46 42 111 6 137 -76 9 -28
18 -58 21 -65 7 -22 44 5 44 32 0 41 -32 124 -59 155 -29 32 -68 42 -120 31z"/>
<path d="M11800 8760 c-6 -4 -10 -20 -8 -36 3 -33 37 -45 57 -20 25 30 -15 77
-49 56z"/>
<path d="M12012 8728 c-19 -19 -14 -56 8 -63 23 -7 50 10 50 31 0 13 -27 44
-39 44 -4 0 -12 -5 -19 -12z"/>
<path d="M15452 8728 c-7 -7 -12 -44 -12 -95 0 -90 9 -105 49 -83 18 9 21 20
21 85 0 40 -3 80 -6 89 -7 19 -35 21 -52 4z"/>
<path d="M15730 8715 c-14 -17 -5 -141 11 -151 6 -3 21 -3 35 0 20 5 24 12 24
44 0 66 -23 121 -51 122 -4 0 -12 -7 -19 -15z"/>
<path d="M12182 8698 c-26 -26 1 -65 38 -53 16 5 20 14 18 33 -3 30 -35 41
-56 20z"/>
<path d="M12396 8655 c-9 -24 4 -45 29 -45 13 0 25 7 29 15 9 24 -4 45 -29 45
-13 0 -25 -7 -29 -15z"/>
<path d="M11720 8575 c-15 -18 -29 -126 -30 -226 0 -62 4 -81 20 -102 57 -72
277 -79 305 -10 3 10 11 76 17 147 10 121 9 130 -8 143 -25 18 -62 16 -73 -4
-5 -10 -15 -54 -22 -98 -19 -122 -37 -142 -101 -109 l-31 16 5 118 c3 77 1
123 -5 129 -16 16 -63 13 -77 -4z"/>
<path d="M12087 8496 c-9 -10 -17 -48 -22 -108 -11 -153 17 -219 102 -239 59
-13 141 -11 173 6 53 27 60 48 60 175 0 63 -4 121 -8 127 -11 17 -68 28 -76
14 -4 -6 -13 -49 -21 -96 -7 -48 -19 -93 -26 -101 -14 -17 -70 -19 -87 -2 -8
8 -12 49 -12 119 0 102 -1 107 -22 113 -34 9 -45 7 -61 -8z"/>
<path d="M17586 8495 c-20 -20 -20 -26 -1 -51 22 -29 18 -61 -9 -79 -22 -15
-27 -15 -55 -1 -44 23 -66 20 -94 -13 -18 -22 -26 -47 -31 -93 l-7 -64 -47
-16 c-26 -10 -83 -40 -127 -68 l-80 -51 -17 22 c-10 12 -18 29 -18 39 0 34
-26 43 -107 36 -85 -7 -113 6 -113 51 0 37 -28 40 -62 5 -33 -32 -33 -62 0
-62 10 0 27 -9 37 -20 18 -20 18 -23 2 -68 -9 -26 -17 -57 -17 -69 0 -25 44
-63 72 -63 29 0 58 -19 58 -37 0 -22 -80 -97 -131 -123 -60 -31 -134 -31 -184
1 -78 49 -133 64 -230 62 -81 -1 -103 -6 -214 -48 -151 -57 -226 -98 -254
-140 -41 -59 -134 -180 -151 -194 -9 -7 -16 -26 -16 -41 0 -15 -16 -61 -35
-101 -38 -81 -48 -122 -65 -274 -12 -116 -25 -141 -77 -151 -21 -4 -50 -13
-65 -20 -15 -8 -47 -14 -71 -14 -33 0 -54 -7 -85 -30 -33 -24 -52 -30 -91 -30
-44 0 -52 -3 -67 -29 -21 -36 -131 -86 -164 -76 -16 5 -29 0 -50 -20 -20 -20
-41 -28 -84 -32 -51 -5 -56 -4 -56 14 0 22 28 51 78 79 17 10 32 22 32 26 0
12 70 44 125 57 73 18 215 107 215 135 0 22 102 148 134 167 32 18 34 23 39
92 12 146 34 268 50 285 9 9 36 23 59 32 41 15 43 18 49 66 4 27 16 72 28 98
11 27 21 56 21 65 0 10 -37 44 -87 80 l-86 64 -66 -33 c-36 -17 -73 -35 -81
-40 -8 -4 -18 -24 -21 -44 -6 -34 -28 -67 -72 -108 -11 -11 -35 -18 -58 -18
-170 0 -314 -106 -429 -315 -18 -33 -44 -72 -58 -87 -14 -15 -24 -39 -24 -55
0 -46 -15 -63 -54 -63 -43 0 -49 3 -193 98 -136 89 -165 102 -230 102 -39 0
-69 -10 -148 -50 -86 -44 -106 -50 -160 -50 -151 0 -377 80 -558 197 -119 78
-145 101 -195 174 -48 70 -143 157 -195 179 -22 10 -79 21 -126 24 -73 6 -96
4 -148 -14 -33 -12 -76 -21 -94 -19 -81 5 -116 -17 -165 -104 -51 -91 -54 -91
-130 -11 -37 38 -91 98 -121 133 -42 49 -70 71 -119 93 -49 22 -66 36 -77 61
-25 61 -101 106 -149 87 -30 -11 -117 -96 -142 -139 -10 -18 -52 -56 -93 -85
-40 -28 -82 -57 -93 -65 -25 -18 -45 0 -88 80 -18 34 -52 83 -76 110 -24 27
-44 53 -44 57 0 4 -11 20 -25 36 -14 16 -25 42 -25 58 0 33 -24 95 -47 120
-19 22 -10 48 17 48 15 0 26 -11 36 -35 29 -70 104 -27 90 50 -9 44 -54 75
-108 75 -47 0 -82 -13 -127 -50 -35 -27 -183 -75 -195 -62 -4 3 -6 25 -6 49 0
49 -26 83 -63 83 -13 0 -45 -15 -71 -32 -26 -18 -74 -49 -108 -68 -73 -41
-108 -96 -108 -168 l0 -45 -60 6 c-87 9 -96 17 -104 81 -10 74 -20 84 -96 93
l-65 8 3 52 c2 43 -1 52 -16 58 -39 12 -122 -39 -122 -76 0 -9 11 -24 25 -33
33 -22 31 -52 -5 -100 -40 -53 -39 -79 7 -113 20 -15 52 -42 71 -59 l35 -30
-15 -45 c-8 -26 -23 -48 -36 -54 -32 -14 -35 -33 -11 -72 19 -30 21 -45 17
-125 -4 -91 -4 -91 24 -108 40 -24 94 -98 107 -146 11 -41 25 -54 58 -54 27 0
114 -73 128 -107 12 -29 19 -33 53 -33 25 0 50 -8 71 -24 35 -26 90 -94 91
-113 0 -15 -119 -103 -141 -103 -31 0 -44 -30 -44 -106 0 -59 -4 -78 -22 -103
-32 -42 -30 -70 7 -82 29 -10 47 -40 36 -58 -3 -5 -31 -23 -61 -40 -86 -49
-120 -125 -75 -166 39 -35 16 -87 -46 -104 -41 -11 -39 -29 6 -81 34 -38 43
-43 57 -34 13 8 17 22 15 46 -2 26 4 40 23 58 l25 23 60 -18 c56 -17 61 -17
78 -1 11 9 25 35 31 59 25 81 54 88 112 25 37 -41 39 -42 73 -30 27 10 50 10
121 -3 48 -8 97 -15 108 -15 11 0 31 -10 44 -22 l23 -22 39 22 c33 19 54 22
144 22 81 0 107 -3 117 -15 21 -26 54 -18 70 18 12 26 26 35 70 49 70 21 208
24 235 4 11 -8 38 -51 60 -97 l40 -82 100 -44 c55 -25 112 -56 127 -70 22 -21
32 -24 55 -18 15 4 69 10 118 12 82 4 93 2 109 -16 26 -29 47 -26 76 9 20 24
39 33 98 45 40 8 85 15 100 15 16 0 40 13 62 33 41 39 145 103 181 112 21 5
31 1 48 -21 39 -49 29 -76 -59 -167 -84 -89 -100 -116 -100 -177 0 -70 26 -94
48 -46 18 39 51 53 137 59 44 3 99 13 123 22 l43 18 48 -52 c43 -46 53 -52 82
-49 l34 3 6 65 c5 64 48 180 67 180 5 0 17 -9 27 -20 10 -11 24 -20 31 -20 7
0 46 -18 88 -40 77 -41 124 -54 234 -65 72 -7 77 0 37 59 -83 122 54 67 161
-65 77 -95 113 -119 175 -119 26 0 50 4 53 9 4 5 -2 23 -11 39 -10 17 -15 33
-12 37 4 3 43 -12 89 -34 106 -52 176 -67 246 -52 91 18 137 64 77 77 -82 17
-163 61 -163 88 0 7 30 34 66 60 36 27 84 73 106 104 l41 55 123 -7 c88 -4
147 -14 211 -33 48 -14 122 -36 164 -49 250 -75 472 -55 679 61 30 17 69 37
85 46 34 17 84 86 125 175 16 33 36 66 44 73 21 18 74 7 120 -24 23 -16 51
-25 75 -25 50 0 91 -31 91 -70 0 -42 22 -56 69 -40 32 10 43 10 68 -3 16 -9
38 -28 47 -42 15 -23 22 -26 49 -20 18 4 57 9 87 11 47 5 60 2 88 -20 l34 -24
50 26 c43 22 63 26 127 25 75 -1 77 0 118 38 24 21 48 39 55 39 14 0 53 115
64 188 4 23 11 45 15 48 17 10 9 47 -17 73 -31 31 -107 146 -131 198 -17 36
-20 38 -69 39 -29 1 -82 12 -120 25 -61 21 -86 24 -209 23 -112 -1 -156 -6
-220 -24 -191 -53 -371 -89 -446 -90 -44 0 -89 32 -89 64 0 59 149 149 363
220 60 20 132 48 160 63 74 40 206 174 246 250 21 42 40 65 54 68 12 3 103 9
202 14 201 11 275 28 379 91 80 48 173 134 198 183 31 61 34 148 9 227 l-21
65 56 50 c66 59 71 85 30 139 -14 19 -26 41 -26 48 0 25 31 58 55 58 74 0 75
41 3 75 -29 13 -63 31 -74 40 -20 15 -23 14 -38 0z m-15 -236 c32 -18 59 -36
59 -41 0 -24 -24 -48 -59 -59 -57 -17 -96 6 -104 62 -10 79 11 87 104 38z
m-6791 -166 c-13 -37 -5 -52 30 -53 11 -1 10 -4 -4 -15 -26 -20 -90 -19 -110
1 -21 21 -20 27 3 21 29 -7 38 4 45 55 7 45 6 47 -21 50 l-28 3 35 22 34 22
15 -35 c12 -30 12 -43 1 -71z m390 58 c47 -34 55 -66 37 -146 -10 -38 -18 -81
-19 -95 -2 -17 -9 -25 -23 -25 -14 0 -19 6 -17 20 32 180 -23 217 -228 155
-67 -20 -76 -13 -39 34 27 34 67 55 143 71 70 16 111 12 146 -14z m-822 -73
c3 -39 0 -49 -18 -58 -27 -14 -50 -7 -85 30 -44 45 -13 82 65 77 34 -2 35 -3
38 -49z m6706 -33 c22 -57 18 -80 -14 -79 -28 2 -110 31 -123 44 -24 22 43 79
94 80 22 0 29 -7 43 -45z m426 22 c64 -26 80 -50 80 -122 0 -100 -70 -203
-185 -269 -46 -27 -181 -70 -274 -86 -76 -13 -379 -21 -419 -11 -20 5 -28 15
-30 35 -6 46 20 63 97 68 81 4 137 36 251 143 130 122 269 240 298 252 43 19
121 15 182 -10z m-6392 -59 c21 -21 13 -46 -33 -105 -25 -32 -67 -87 -93 -123
-26 -36 -52 -65 -57 -65 -6 0 -11 14 -13 31 -2 24 -16 42 -53 74 -52 43 -86
97 -72 111 16 15 238 87 274 88 19 1 40 -4 47 -11z m-502 -54 c30 -13 66 -40
88 -66 99 -115 244 -397 316 -614 42 -125 43 -128 36 -225 -8 -113 1 -125 51
-63 20 25 40 38 71 45 42 9 47 9 232 -31 54 -12 120 -44 120 -59 0 -13 169
-195 213 -228 23 -18 64 -40 90 -49 27 -9 50 -21 53 -28 2 -6 -2 -48 -9 -91
l-13 -80 -76 -7 c-41 -4 -110 -16 -154 -27 -129 -33 -255 -44 -419 -37 -218 9
-262 17 -351 68 -144 82 -199 157 -198 270 2 116 54 190 170 240 30 13 56 29
59 36 9 24 -43 107 -107 168 -35 34 -101 87 -148 119 -104 72 -216 183 -252
251 -31 58 -58 152 -58 204 0 63 29 140 68 182 58 62 115 67 218 22z m1353 1
c16 -8 34 -27 41 -44 16 -40 40 -60 113 -97 62 -30 75 -43 212 -213 28 -34 57
-77 67 -94 33 -64 57 -77 171 -92 120 -16 140 -24 223 -93 32 -27 114 -81 181
-120 67 -40 124 -76 127 -81 9 -13 -13 -26 -69 -41 -86 -24 -173 -121 -200
-226 -8 -32 -19 -62 -24 -67 -4 -4 -45 7 -92 25 l-84 34 -41 80 c-29 56 -47
79 -60 79 -16 0 -19 -9 -22 -58 l-3 -58 -47 6 c-73 10 -79 13 -88 48 -15 49
-41 47 -49 -3 -5 -29 -13 -44 -28 -50 -19 -8 -148 -30 -174 -30 -4 0 -6 23 -5
50 6 84 -37 105 -59 30 -9 -31 -9 -44 4 -69 l15 -31 -41 -25 c-23 -13 -57 -40
-76 -59 -28 -28 -37 -33 -60 -26 -54 15 -130 61 -182 108 l-54 49 13 60 c6 32
12 67 12 76 0 25 -30 21 -62 -10 l-28 -27 -42 31 c-38 27 -42 35 -40 65 2 22
-2 39 -12 47 -12 10 -20 7 -47 -18 -18 -17 -35 -31 -38 -30 -3 0 -28 8 -56 17
-52 18 -54 22 -40 74 5 22 3 29 -10 35 -13 4 -31 -7 -65 -44 -54 -58 -88 -74
-105 -50 -6 9 -17 46 -24 84 l-13 68 64 60 c35 33 90 78 123 100 174 117 235
163 290 214 33 31 93 83 133 115 41 32 81 70 90 85 20 32 113 129 125 130 4 1
21 -6 36 -14z m-626 -75 c20 -21 46 -58 58 -82 12 -24 39 -60 61 -80 51 -47
46 -62 -32 -112 -33 -21 -123 -85 -201 -142 -112 -83 -144 -102 -158 -94 -27
14 -62 118 -55 162 5 29 2 40 -15 54 -11 10 -21 24 -21 31 0 17 104 186 125
203 9 8 37 12 66 11 64 -2 108 20 116 59 3 17 9 30 13 30 4 0 24 -18 43 -40z
m4272 -115 c19 -18 25 -35 25 -68 0 -60 -41 -121 -129 -191 l-71 -57 34 -33
c32 -29 35 -37 30 -72 -16 -108 -122 -270 -250 -378 -78 -66 -99 -79 -218
-127 -94 -38 -139 -76 -199 -168 -71 -106 -97 -118 -152 -70 -61 54 -62 60
-10 143 34 55 54 104 80 202 62 226 147 389 269 521 87 94 124 113 214 113 70
0 92 -10 92 -42 0 -30 29 -33 58 -5 15 13 37 28 50 32 28 8 28 22 1 51 -29 31
-18 75 35 130 35 37 49 44 80 44 26 0 44 -7 61 -25z m979 -19 c41 -17 50 -41
42 -110 -9 -69 5 -101 51 -123 21 -10 39 -25 41 -34 2 -9 -12 -36 -30 -60 -61
-80 -124 -121 -303 -197 -289 -124 -307 -134 -403 -226 l-87 -84 -52 5 c-74 8
-79 17 -65 119 18 119 56 245 108 353 37 77 60 108 123 170 86 86 162 131 291
172 99 32 228 39 284 15z m-3571 -45 c19 -12 46 -39 60 -60 45 -68 209 -224
272 -260 212 -118 215 -120 215 -149 0 -31 27 -76 59 -98 31 -22 44 -9 36 37
-4 22 -3 39 3 39 5 0 35 -9 68 -21 127 -45 320 -32 461 30 106 46 132 43 244
-31 52 -35 110 -75 129 -90 19 -15 57 -36 83 -47 l49 -21 -7 -53 c-9 -64 -43
-151 -83 -209 -50 -73 -52 -74 -142 -53 -126 29 -172 20 -357 -68 -87 -41
-170 -78 -186 -81 -32 -8 -48 7 -116 102 -56 79 -118 143 -209 215 -96 77
-420 285 -552 355 -58 31 -124 70 -146 86 -37 27 -42 37 -48 81 -3 28 -6 67
-6 87 0 45 -8 68 -25 68 -17 0 -25 -23 -25 -76 0 -55 -17 -64 -64 -34 -34 20
-38 27 -50 81 -9 43 -34 44 -54 1 -14 -31 -23 -38 -57 -43 -44 -7 -79 2 -88
24 -3 7 7 32 21 54 15 22 39 61 54 87 25 41 31 46 65 47 21 1 67 7 103 14 97
20 251 12 293 -14z m174 -698 c31 -21 56 -69 48 -93 -9 -27 -21 -25 -42 6 -26
41 -74 57 -126 43 -85 -22 -117 -86 -96 -187 9 -45 19 -65 50 -94 72 -69 147
-80 464 -68 123 5 176 -19 267 -123 84 -96 112 -117 155 -117 17 0 35 -5 39
-11 13 -22 -19 -34 -99 -36 -45 0 -87 -2 -93 -2 -6 -1 -14 -23 -18 -49 -7 -57
-24 -83 -79 -123 -41 -30 -81 -38 -92 -18 -4 6 14 31 40 57 55 54 65 76 65
142 0 41 -6 56 -39 98 -84 105 -158 143 -280 141 -83 -1 -115 -10 -119 -33 -6
-27 15 -36 83 -36 89 -1 142 -16 196 -58 59 -45 94 -108 84 -153 -11 -49 -30
-46 -90 15 -56 57 -109 88 -265 156 -121 52 -194 102 -227 157 -67 108 -99
122 -70 30 36 -110 109 -175 278 -247 91 -38 124 -63 156 -113 23 -37 25 -48
21 -116 -3 -42 -15 -109 -28 -149 -18 -60 -25 -71 -36 -61 -10 9 -14 41 -15
128 0 131 -13 186 -44 186 -18 0 -20 -8 -25 -86 -4 -72 -9 -92 -33 -128 -39
-59 -120 -94 -171 -75 -24 9 -19 27 15 60 51 49 89 114 89 153 -1 47 -32 114
-78 171 -108 129 -162 231 -181 337 -24 128 40 259 149 307 41 19 110 13 147
-11z m217 -73 c38 -22 99 -67 137 -101 75 -66 175 -177 167 -185 -3 -2 -27 4
-54 14 -78 31 -129 35 -265 21 -255 -25 -375 31 -343 159 7 29 14 38 35 40 19
2 28 -4 39 -25 26 -52 41 -63 85 -63 28 0 51 7 68 21 30 23 52 89 43 131 -7
38 5 36 88 -12z m3558 -61 c45 -11 100 -33 124 -49 117 -81 183 -244 136 -336
-54 -106 -146 -147 -332 -146 -156 1 -228 21 -421 120 -160 82 -254 112 -398
128 -89 10 -121 47 -91 104 23 44 65 60 192 75 86 11 154 26 226 51 201 71
416 91 564 53z m-1029 -51 c14 -7 17 -16 13 -36 -22 -88 -25 -112 -19 -155 7
-62 32 -92 88 -106 40 -10 45 -14 45 -39 0 -91 -195 -255 -353 -296 -152 -40
-346 -29 -516 29 -120 40 -153 58 -144 81 3 8 -2 21 -13 29 -26 19 -27 19 -46
-15 -16 -28 -21 -30 -75 -29 -118 1 -216 16 -230 35 -17 24 -17 78 2 113 31
60 64 77 215 106 171 32 226 51 435 145 196 88 332 138 405 150 62 10 165 4
193 -12z m-3493 -23 c64 -4 118 -17 220 -51 74 -25 142 -50 151 -54 8 -5 28
-45 42 -90 15 -45 46 -113 68 -151 36 -60 40 -73 31 -94 -16 -34 -88 -80 -207
-131 -228 -98 -444 -99 -628 -1 -69 36 -97 67 -143 158 -27 55 -34 80 -34 128
0 63 25 142 61 192 41 58 190 110 294 103 33 -2 98 -6 145 -9z m2003 -151 c79
-20 113 -38 160 -82 31 -30 37 -43 37 -78 0 -23 -7 -61 -16 -85 -11 -33 -14
-62 -9 -117 7 -72 6 -75 -22 -104 -33 -35 -105 -74 -154 -83 -31 -6 -43 0
-119 54 -70 50 -86 67 -95 98 -9 33 -15 38 -42 41 -18 2 -41 -2 -53 -8 -24
-13 -98 4 -106 24 -3 7 0 25 5 39 15 38 4 55 -41 68 -100 27 -112 47 -40 74
26 10 103 47 171 83 189 100 213 105 324 76z m-3770 -157 c14 -27 16 -44 10
-64 -16 -48 -36 -50 -89 -12 -63 46 -68 71 -17 98 52 28 74 23 96 -22z m3344
-261 c99 -28 197 -85 284 -163 36 -32 85 -75 109 -95 25 -21 39 -38 32 -38 -8
0 -64 27 -126 60 -62 33 -124 60 -138 60 -24 0 -25 -1 -15 -38 6 -22 7 -48 3
-58 -7 -18 -9 -17 -27 6 -11 14 -40 51 -64 82 -54 69 -126 107 -214 115 -61 6
-61 6 -61 37 0 18 5 37 12 44 19 19 116 13 205 -12z m-242 -146 c22 -23 26
-33 17 -42 -8 -8 -22 -7 -56 6 -57 22 -74 41 -49 55 31 18 58 12 88 -19z"/>
<path d="M17266 7987 c-28 -20 -13 -57 23 -57 40 0 55 20 35 48 -17 25 -33 28
-58 9z"/>
<path d="M17425 7974 c-8 -9 -15 -27 -15 -40 0 -23 3 -25 38 -22 33 3 37 6 37
32 0 36 -36 54 -60 30z"/>
<path d="M17145 7859 c-12 -35 31 -52 59 -24 21 22 9 45 -24 45 -20 0 -31 -6
-35 -21z"/>
<path d="M17305 7814 c-37 -38 10 -88 54 -58 25 18 28 59 5 68 -25 10 -42 7
-59 -10z"/>
<path d="M17090 7715 c0 -28 4 -35 19 -35 52 0 67 28 29 54 -35 25 -48 20 -48
-19z"/>
<path d="M16960 7710 c-16 -31 -5 -50 28 -50 59 0 72 63 15 68 -24 2 -34 -2
-43 -18z"/>
<path d="M10548 7865 c-13 -29 3 -55 33 -55 23 0 36 44 19 65 -18 22 -39 18
-52 -10z"/>
<path d="M10401 7768 c-5 -13 -6 -29 -4 -35 7 -17 44 -16 67 0 15 11 17 17 7
35 -16 30 -59 29 -70 0z"/>
<path d="M10634 7596 c-12 -31 0 -51 31 -51 27 0 30 3 30 30 0 25 -4 30 -28
33 -17 2 -29 -2 -33 -12z"/>
<path d="M10473 7573 c-18 -7 -16 -58 2 -73 8 -6 22 -10 32 -8 25 5 30 58 7
75 -19 14 -22 14 -41 6z"/>
<path d="M10684 7386 c-10 -27 15 -57 44 -54 38 4 42 40 7 56 -34 16 -44 15
-51 -2z"/>
<path d="M10855 7390 c-4 -6 -4 -24 0 -40 5 -25 12 -30 35 -30 38 0 46 25 15
56 -26 26 -40 30 -50 14z"/>
<path d="M11300 6950 c-22 -22 -25 -42 -10 -71 13 -23 43 -25 60 -4 9 11 9 22
0 49 -15 46 -25 51 -50 26z"/>
<path d="M10785 6830 c-15 -16 -17 -26 -9 -48 11 -32 35 -39 58 -16 22 21 17
53 -10 70 -18 13 -23 12 -39 -6z"/>
<path d="M11086 6821 c-30 -33 -1 -80 39 -65 18 7 20 55 3 72 -16 16 -22 15
-42 -7z"/>
<path d="M11354 6746 c-8 -34 12 -68 38 -64 30 4 42 28 29 61 -14 36 -58 38
-67 3z"/>
<path d="M11170 6695 c-16 -19 2 -65 24 -65 23 0 39 36 26 60 -13 24 -33 26
-50 5z"/>
<path d="M10824 6655 c-13 -20 -14 -28 -4 -40 18 -22 57 -19 65 5 7 23 1 36
-25 50 -16 8 -22 6 -36 -15z"/>
<path d="M11583 6638 c-29 -37 -15 -84 23 -76 15 2 19 12 19 43 0 42 -22 59
-42 33z"/>
<path d="M11026 6604 c-15 -38 -1 -64 34 -64 18 0 31 39 20 60 -13 24 -45 26
-54 4z"/>
<path d="M11273 6563 c-26 -10 -7 -83 22 -83 8 0 19 9 25 19 25 48 -1 83 -47
64z"/>
<path d="M11552 7610 c-52 -32 -66 -100 -20 -100 28 0 113 83 105 104 -9 22
-45 20 -85 -4z"/>
<path d="M11688 7567 c-29 -22 -44 -42 -46 -60 -3 -24 0 -27 27 -27 55 0 120
97 76 114 -8 3 -34 -9 -57 -27z"/>
<path d="M11823 7558 c-18 -22 -63 -117 -63 -132 0 -24 32 -28 60 -8 32 24 50
60 53 109 2 32 -1 38 -19 41 -11 2 -25 -3 -31 -10z"/>
<path d="M11960 7535 c-11 -13 -10 -28 1 -83 13 -61 16 -67 39 -67 24 0 25 3
24 51 -2 52 -20 105 -40 111 -6 2 -17 -3 -24 -12z"/>
<path d="M12244 7526 c-7 -19 32 -130 51 -146 18 -15 45 -1 44 24 0 11 -12 46
-27 76 -28 55 -57 75 -68 46z"/>
<path d="M12107 7524 c-20 -21 13 -158 41 -169 9 -3 22 1 30 8 12 13 11 25
-10 88 -21 69 -41 92 -61 73z"/>
<path d="M11305 7410 c-21 -24 -14 -52 12 -43 26 9 53 34 53 50 0 20 -44 16
-65 -7z"/>
<path d="M11452 7327 c-33 -34 -42 -67 -18 -67 17 0 76 68 76 87 0 23 -25 14
-58 -20z"/>
<path d="M11606 7274 c-32 -32 -32 -84 0 -84 15 0 44 56 44 85 0 20 -24 19
-44 -1z"/>
<path d="M12640 7269 c0 -26 69 -122 105 -145 29 -19 55 -12 55 13 0 10 -24
47 -53 83 -38 46 -60 66 -80 68 -22 3 -27 -1 -27 -19z"/>
<path d="M11937 7256 c-16 -16 -6 -161 13 -180 21 -21 45 8 48 60 6 88 -27
153 -61 120z"/>
<path d="M11783 7248 c-18 -22 -34 -84 -27 -102 13 -33 39 -12 50 39 11 50 9
75 -6 75 -4 0 -12 -6 -17 -12z"/>
<path d="M12460 7230 c0 -31 47 -118 71 -130 32 -17 63 -9 67 19 3 18 -10 37
-49 77 -56 57 -89 69 -89 34z"/>
<path d="M12295 7221 c-10 -32 22 -129 46 -142 53 -28 63 19 22 102 -30 58
-57 74 -68 40z"/>
<path d="M12126 7215 c-19 -50 10 -149 41 -143 23 4 30 91 10 128 -15 30 -42
37 -51 15z"/>
<path d="M12690 7015 c-26 -32 39 -145 75 -132 8 4 15 13 15 22 0 37 -50 125
-70 125 -4 0 -13 -7 -20 -15z"/>
<path d="M11810 6959 c-17 -30 -25 -135 -12 -143 33 -20 66 45 60 119 -4 46
-30 59 -48 24z"/>
<path d="M11067 7746 c-8 -9 -21 -32 -27 -52 -10 -30 -10 -39 2 -50 21 -21 43
-8 64 37 13 29 15 45 8 57 -15 23 -29 25 -47 8z"/>
<path d="M11162 7743 c-12 -32 -6 -104 11 -120 13 -13 19 -14 31 -3 19 15 22
110 4 128 -17 17 -38 15 -46 -5z"/>
<path d="M11287 7754 c-4 -4 -7 -22 -7 -41 0 -42 54 -107 69 -83 11 16 5 61
-13 100 -11 25 -36 37 -49 24z"/>
<path d="M15513 7753 c-7 -2 -13 -20 -13 -38 0 -41 35 -59 57 -29 32 44 4 87
-44 67z"/>
<path d="M15090 7500 c-26 -49 19 -86 58 -47 20 21 22 28 13 46 -15 27 -57 28
-71 1z"/>
<path d="M15164 7366 c-17 -46 34 -78 56 -36 6 12 9 28 6 36 -7 18 -55 18 -62
0z"/>
<path d="M15343 7370 c-27 -11 -38 -43 -23 -70 12 -22 49 -27 68 -8 32 32 -3
93 -45 78z"/>
<path d="M14998 7319 c-21 -12 -23 -40 -6 -57 32 -32 80 8 58 48 -12 22 -26
25 -52 9z"/>
<path d="M15291 7182 c-8 -15 -7 -23 3 -31 20 -17 48 -2 44 23 -4 27 -34 32
-47 8z"/>
<path d="M15042 7178 c-18 -18 -15 -36 7 -48 35 -18 51 -12 51 19 0 37 -33 54
-58 29z"/>
<path d="M14865 7140 c-15 -16 -15 -22 -5 -35 18 -21 48 -19 55 5 6 20 -9 50
-25 50 -4 0 -15 -9 -25 -20z"/>
<path d="M15098 7039 c-22 -12 -23 -42 -2 -59 22 -19 64 22 48 47 -14 22 -25
25 -46 12z"/>
<path d="M14802 6878 c-18 -18 -15 -36 9 -49 28 -15 54 9 44 40 -7 23 -34 28
-53 9z"/>
<path d="M16198 7625 c-20 -44 25 -72 66 -42 15 11 16 17 5 40 -16 36 -55 37
-71 2z"/>
<path d="M16365 7600 c-8 -27 1 -40 29 -40 26 0 61 34 51 49 -3 6 -21 11 -40
11 -25 0 -35 -5 -40 -20z"/>
<path d="M16247 7504 c-13 -13 -7 -51 9 -65 23 -19 69 8 69 41 0 21 -5 25 -35
28 -20 2 -39 0 -43 -4z"/>
<path d="M16450 7449 c-16 -30 -5 -49 28 -49 36 0 53 19 45 48 -7 30 -58 31
-73 1z"/>
<path d="M15946 7414 c-11 -28 -7 -42 14 -49 29 -9 60 12 60 40 0 22 -5 25
-34 25 -22 0 -36 -6 -40 -16z"/>
<path d="M16299 7342 c-8 -21 -7 -29 7 -39 23 -17 27 -16 55 6 19 15 21 21 11
34 -7 8 -24 17 -38 20 -20 4 -27 -1 -35 -21z"/>
<path d="M16044 7274 c-4 -14 -2 -30 4 -36 14 -14 53 -6 66 15 9 15 7 21 -8
33 -30 22 -55 17 -62 -12z"/>
<path d="M15878 7136 c-6 -28 8 -46 32 -46 23 0 40 20 40 47 0 19 -5 23 -34
23 -28 0 -34 -4 -38 -24z"/>
<path d="M13064 7495 c-9 -23 4 -61 30 -92 19 -22 27 -25 37 -16 14 14 7 46
-21 91 -21 35 -37 41 -46 17z"/>
<path d="M12924 7485 c-10 -26 19 -109 39 -113 14 -3 17 4 17 35 0 63 -41 119
-56 78z"/>
<path d="M13390 7203 c0 -17 40 -73 61 -83 17 -10 24 -9 37 3 14 14 12 19 -20
51 -32 32 -78 49 -78 29z"/>
<path d="M13275 7160 c-8 -13 42 -63 57 -58 20 7 20 26 -1 47 -23 23 -46 27
-56 11z"/>
<path d="M14247 7123 c-7 -12 9 -47 27 -62 14 -11 16 -11 16 2 0 21 -21 67
-31 67 -4 0 -10 -3 -12 -7z"/>
<path d="M14115 7099 c-19 -30 37 -141 63 -125 16 10 15 40 -3 83 -20 48 -46
66 -60 42z"/>
<path d="M13945 7060 c-10 -16 47 -125 65 -125 24 0 23 36 -2 85 -23 44 -50
62 -63 40z"/>
<path d="M14440 7042 c0 -54 107 -178 111 -129 3 27 -5 44 -43 99 -45 64 -68
74 -68 30z"/>
<path d="M13800 7019 c0 -25 54 -105 81 -119 46 -25 32 50 -21 108 -33 37 -60
42 -60 11z"/>
<path d="M13660 6918 c0 -26 40 -78 60 -78 26 0 26 29 -1 64 -21 27 -59 36
-59 14z"/>
<path d="M14354 6906 c-8 -20 20 -69 56 -100 59 -49 68 -6 15 67 -35 47 -61
59 -71 33z"/>
<path d="M14241 6837 c-8 -10 -2 -22 24 -47 28 -27 35 -30 40 -17 14 34 -42
90 -64 64z"/>
<path d="M16684 6822 c-15 -10 -24 -40 -18 -57 12 -31 79 -12 72 20 -4 22 -40
47 -54 37z"/>
<path d="M16237 6733 c-18 -17 -6 -53 23 -68 34 -18 45 -15 53 14 10 39 -49
81 -76 54z"/>
<path d="M16840 6678 c-24 -26 -24 -27 -1 -55 23 -28 42 -29 64 -5 22 24 21
45 -1 65 -25 22 -37 21 -62 -5z"/>
<path d="M16426 6651 c-23 -26 -6 -61 30 -61 31 0 41 24 24 56 -16 29 -31 30
-54 5z"/>
<path d="M16661 6596 c-18 -22 -2 -46 30 -46 21 0 29 5 29 18 0 36 -37 54 -59
28z"/>
<path d="M17001 6522 c-22 -41 11 -82 50 -62 24 13 25 48 2 66 -25 19 -41 17
-52 -4z"/>
<path d="M16770 6480 c0 -21 24 -60 41 -65 45 -15 56 42 12 63 -32 14 -53 16
-53 2z"/>
<path d="M15584 6666 c-6 -15 22 -66 36 -66 37 0 54 42 28 68 -17 17 -57 15
-64 -2z"/>
<path d="M15313 6623 c-23 -9 -15 -52 13 -70 32 -21 60 -7 56 28 -4 37 -36 56
-69 42z"/>
<path d="M15000 6522 c-27 -22 -21 -55 13 -73 17 -10 24 -8 39 11 42 52 -1
103 -52 62z"/>
<path d="M15362 6433 c3 -33 7 -38 29 -41 18 -2 29 3 33 14 9 23 -20 64 -45
64 -17 0 -20 -5 -17 -37z"/>
<path d="M15695 6430 c-4 -6 -4 -22 -1 -36 5 -19 12 -25 29 -22 32 4 32 62 0
66 -11 2 -24 -2 -28 -8z"/>
<path d="M15173 6385 c-39 -16 -40 -23 -12 -59 25 -31 40 -33 64 -6 15 16 17
26 9 47 -11 33 -21 36 -61 18z"/>
<path d="M15456 6275 c-22 -22 -4 -58 27 -53 17 2 22 10 22 33 0 35 -24 45
-49 20z"/>
<path d="M12098 6655 c-9 -19 -8 -29 6 -50 21 -31 31 -31 61 -1 36 36 18 76
-33 76 -14 0 -26 -9 -34 -25z"/>
<path d="M12432 6644 c-26 -18 -30 -65 -6 -84 11 -10 23 -11 42 -4 33 12 42
56 16 85 -21 23 -24 23 -52 3z"/>
<path d="M12337 6523 c-4 -3 -7 -19 -7 -35 0 -22 6 -31 27 -39 71 -27 112 19
55 60 -30 21 -63 27 -75 14z"/>
<path d="M12671 6516 c-17 -20 -10 -67 11 -80 13 -8 23 -5 43 14 30 28 32 55
6 70 -27 14 -46 13 -60 -4z"/>
<path d="M12116 6388 c-29 -16 -17 -78 15 -78 23 0 52 41 44 63 -8 19 -37 27
-59 15z"/>
<path d="M12410 6320 c-25 -25 -25 -41 -1 -71 18 -22 19 -22 45 -6 31 21 34
56 8 80 -24 22 -28 21 -52 -3z"/>
<path d="M14208 6589 c-40 -23 -9 -76 37 -65 21 5 25 12 25 41 0 30 -3 35 -22
35 -13 0 -31 -5 -40 -11z"/>
<path d="M14442 6528 c-30 -30 1 -88 46 -88 30 0 40 42 18 75 -18 27 -45 32
-64 13z"/>
<path d="M14137 6443 c-13 -12 -7 -51 8 -57 22 -8 45 4 45 23 0 30 -35 52 -53
34z"/>
<path d="M14352 6408 c-23 -23 -7 -68 24 -68 14 0 44 27 44 40 0 13 -30 40
-44 40 -6 0 -17 -5 -24 -12z"/>
<path d="M14405 6269 c-5 -14 -2 -25 6 -30 24 -15 44 -5 47 24 3 23 0 27 -22
27 -16 0 -27 -7 -31 -21z"/>
<path d="M10742 8456 c-19 -13 -61 -28 -103 -36 -118 -21 -165 -84 -145 -194
8 -44 32 -48 64 -11 14 16 32 25 51 25 36 0 49 15 53 65 3 38 5 39 53 51 77
20 123 88 76 113 -14 8 -25 5 -49 -13z"/>
<path d="M11856 8458 c-10 -38 -7 -106 5 -114 18 -11 29 17 29 79 0 42 -4 57
-14 57 -7 0 -16 -10 -20 -22z"/>
<path d="M15909 8470 c-14 -8 -15 -17 -3 -82 7 -40 13 -94 13 -120 1 -46 0
-47 -38 -58 -49 -13 -94 2 -110 37 -7 14 -18 60 -26 101 -8 41 -17 77 -19 80
-13 12 -56 -10 -62 -32 -7 -30 40 -209 67 -252 27 -45 75 -58 155 -43 68 13
109 32 118 54 19 51 -14 275 -45 306 -21 21 -27 22 -50 9z"/>
<path d="M12444 8426 c-14 -22 -14 -39 -5 -131 6 -62 17 -115 26 -129 21 -31
72 -55 135 -63 97 -11 134 25 146 145 5 45 3 60 -9 71 -27 22 -60 9 -80 -31
-9 -21 -21 -38 -27 -38 -5 0 -10 26 -12 57 -4 79 -25 81 -34 4 -4 -42 -11 -61
-20 -61 -8 0 -14 3 -14 8 -1 52 -22 177 -32 184 -25 15 -58 8 -74 -16z"/>
<path d="M15143 8440 c-26 -11 -26 -14 -13 -134 6 -49 8 -97 5 -106 -6 -17
-71 -50 -99 -50 -9 0 -22 29 -35 77 -11 42 -25 81 -30 86 -6 6 -19 0 -35 -16
-24 -24 -26 -33 -26 -115 0 -119 13 -137 97 -136 72 0 196 30 225 54 l22 17
-16 158 c-18 180 -26 193 -95 165z"/>
<path d="M12217 8423 c-12 -11 -8 -121 4 -129 18 -11 29 17 29 79 0 41 -4 57
-13 57 -8 0 -17 -3 -20 -7z"/>
<path d="M15566 8414 c-3 -9 -6 -38 -6 -65 0 -61 -22 -107 -56 -115 -37 -9
-57 14 -89 107 -25 72 -30 80 -49 75 -12 -3 -25 -6 -30 -6 -11 0 -1 -99 20
-190 11 -50 25 -82 46 -106 28 -31 35 -34 87 -34 64 0 115 22 145 63 19 26 19
32 8 138 -7 62 -17 120 -23 130 -12 23 -45 25 -53 3z"/>
<path d="M15790 8415 c-10 -12 -10 -28 2 -83 13 -62 16 -67 42 -70 l27 -3 -7
63 c-11 103 -32 132 -64 93z"/>
<path d="M15462 8354 c8 -92 58 -116 58 -28 0 56 -14 84 -42 84 -19 0 -20 -4
-16 -56z"/>
<path d="M15050 8335 c-10 -12 -11 -30 -4 -73 8 -52 11 -57 34 -57 23 0 25 3
22 42 -7 89 -26 120 -52 88z"/>
<path d="M15778 5747 c-65 -117 -118 -216 -118 -220 0 -4 44 -7 98 -7 l97 0
180 212 c99 117 182 216 183 220 2 4 -70 8 -160 8 l-163 0 -117 -213z"/>
<path d="M10786 5698 c-8 -18 -115 -323 -239 -678 -124 -355 -251 -716 -281
-802 l-55 -158 148 0 149 0 42 118 c24 64 52 141 62 170 l20 52 311 -2 311 -3
57 -165 57 -165 151 -3 151 -3 -11 28 c-6 16 -132 377 -281 803 -149 426 -276
790 -284 808 l-13 32 -141 0 -141 0 -13 -32z m260 -707 c52 -146 94 -269 94
-273 0 -4 -90 -8 -200 -8 -110 0 -200 2 -200 4 0 5 184 527 196 556 6 13 7 13
12 0 3 -8 47 -134 98 -279z"/>
<path d="M12169 5292 c-38 -20 -65 -44 -91 -82 l-38 -53 0 66 0 67 -125 0
-125 0 0 -615 0 -615 139 0 139 0 5 383 c3 233 10 403 17 436 25 117 76 176
145 169 22 -3 47 -8 56 -12 14 -6 24 13 58 116 23 68 41 128 41 135 0 17 -56
33 -115 33 -38 0 -67 -8 -106 -28z"/>
<path d="M12865 5303 c-28 -10 -71 -30 -96 -45 -54 -32 -154 -136 -192 -200
-69 -119 -107 -319 -88 -471 21 -175 89 -316 206 -425 175 -164 407 -178 594
-36 l71 54 0 -60 0 -60 140 0 140 0 0 615 0 615 -140 0 -140 0 0 -66 0 -66
-42 41 c-24 23 -76 59 -117 79 -70 34 -81 37 -180 40 -82 2 -117 -2 -156 -15z
m292 -278 c68 -20 144 -89 180 -163 26 -53 28 -65 28 -182 0 -114 -2 -130 -26
-181 -71 -150 -207 -217 -354 -175 -69 20 -148 93 -183 168 -68 146 -44 337
55 448 84 94 180 121 300 85z"/>
<path d="M14255 5303 c-248 -89 -389 -336 -372 -652 10 -189 58 -310 171 -428
112 -119 243 -171 396 -160 100 7 159 30 238 89 l65 49 -5 -85 c-5 -67 -11
-95 -31 -129 -48 -81 -134 -120 -267 -121 -102 0 -170 20 -228 69 l-40 35
-152 0 -151 0 6 -22 c19 -69 73 -156 130 -213 71 -72 159 -118 263 -140 86
-19 258 -19 345 0 193 41 326 169 384 370 16 54 18 127 21 693 l3 632 -141 0
-140 0 0 -61 0 -60 -57 45 c-99 77 -161 100 -283 103 -81 3 -116 -1 -155 -14z
m342 -299 c62 -30 107 -78 142 -154 22 -47 26 -69 26 -155 0 -125 -19 -185
-82 -255 -57 -64 -110 -91 -188 -98 -129 -10 -239 54 -300 175 -28 54 -30 65
-30 173 0 106 2 119 27 166 37 69 72 110 123 140 84 49 189 52 282 8z"/>
<path d="M15701 5304 c-68 -18 -137 -56 -198 -108 -160 -135 -234 -299 -235
-516 0 -207 54 -345 191 -481 55 -55 106 -95 141 -112 165 -79 349 -76 510 9
90 47 151 102 209 189 253 378 85 897 -328 1019 -68 20 -216 20 -290 0z m276
-300 c97 -48 153 -132 173 -260 28 -178 -54 -351 -193 -409 -21 -9 -67 -15
-110 -15 -89 0 -159 30 -211 92 -132 154 -117 434 31 555 57 47 103 62 189 63
56 0 81 -5 121 -26z"/>
<path d="M17153 5301 c-55 -20 -89 -41 -160 -98 l-43 -34 0 60 0 61 -140 0
-140 0 0 -615 0 -615 140 0 140 0 0 333 c0 183 5 361 11 397 22 137 106 238
208 248 65 6 93 -2 135 -38 70 -62 70 -67 74 -527 l3 -413 140 0 139 0 0 453
c0 481 -4 527 -51 618 -30 59 -102 127 -167 157 -77 36 -211 42 -289 13z"/>
</g>
</svg>
