<svg enable-background="new 0 0 256 256" height="512" viewBox="0 0 256 256" width="512" xmlns="http://www.w3.org/2000/svg"><g id="Layer_29"><g><g><g><path d="m185.971 12.125h-100.367l-50.402 50.401v159.008c0 6.787 5.553 12.341 12.341 12.341h138.428c6.787 0 12.341-5.553 12.341-12.341v-197.068c0-6.788-5.554-12.341-12.341-12.341z" fill="#3a70bf"/></g></g><g><g><path d="m35.202 62.526h38.061c6.787 0 12.341-5.553 12.341-12.341v-38.06z" fill="#5290db"/></g></g><g><g><path d="m55.694 19.551c-4.149.773-7.419 3.976-8.208 8.041-.04.204-.325.204-.364 0-.789-4.065-4.059-7.268-8.208-8.041-.208-.039-.208-.318 0-.357 4.149-.773 7.419-3.976 8.208-8.041.04-.204.325-.204.364 0 .789 4.065 4.059 7.268 8.208 8.041.208.039.208.318 0 .357z" fill="#f5c84c"/></g></g><g><g><path d="m223.188 113.253c-2.91.542-5.204 2.789-5.757 5.64-.028.143-.228.143-.255 0-.553-2.851-2.847-5.098-5.757-5.64-.146-.027-.146-.223 0-.25 2.91-.542 5.204-2.789 5.757-5.64.028-.143.228-.143.255 0 .553 2.851 2.847 5.098 5.757 5.64.146.027.146.222 0 .25z" fill="#fc657e"/></g></g><g><g><circle cx="74.757" cy="3.377" fill="#70d6f9" r="3.377"/></g></g><g><g><circle cx="211.757" cy="87.377" fill="#87d147" r="3.377"/></g></g><g><g><path d="m133.23 246.758h-1.824v-1.824c0-1.366-1.107-2.473-2.473-2.473s-2.473 1.107-2.473 2.473v1.824h-1.824c-1.366 0-2.473 1.107-2.473 2.473s1.107 2.473 2.473 2.473h1.824v1.824c0 1.366 1.107 2.473 2.473 2.473s2.473-1.107 2.473-2.473v-1.824h1.824c1.366 0 2.473-1.107 2.473-2.473s-1.108-2.473-2.473-2.473z" fill="#70d6f9"/></g></g><g><g><circle cx="102.141" cy="245.627" fill="#f5c84c" r="3.377"/></g></g><g><g><path d="m185.971 236.375h-138.428c-8.184 0-14.841-6.658-14.841-14.841v-159.008c0-.663.264-1.299.732-1.768l50.401-50.401c.469-.469 1.104-.732 1.768-.732h100.367c8.184 0 14.841 6.658 14.841 14.841v197.068c.001 8.183-6.657 14.841-14.84 14.841zm-148.269-172.813v157.972c0 5.426 4.415 9.841 9.841 9.841h138.428c5.426 0 9.841-4.415 9.841-9.841v-197.068c0-5.426-4.415-9.841-9.841-9.841h-99.332z"/></g></g><g><g><path d="m73.263 65.026h-37.044c-1.381 0-2.5-1.119-2.5-2.5s1.119-2.5 2.5-2.5h37.044c5.426 0 9.841-4.415 9.841-9.841v-37.31c0-1.381 1.119-2.5 2.5-2.5s2.5 1.119 2.5 2.5v37.311c0 8.183-6.658 14.84-14.841 14.84z"/></g></g><g><g><path d="m177.93 103.283h-122.346c-2.665 0-4.825 2.16-4.825 4.825v46.313c0 2.665 2.16 4.825 4.825 4.825h122.346c2.665 0 4.825-2.16 4.825-4.825v-46.313c-.001-2.665-2.161-4.825-4.825-4.825z" fill="#70d6f9"/></g></g><g><g><path d="m177.93 161.746h-122.346c-4.039 0-7.324-3.286-7.324-7.325v-46.313c0-4.039 3.285-7.325 7.324-7.325h122.346c4.039 0 7.324 3.286 7.324 7.325v46.313c0 4.039-3.285 7.325-7.324 7.325zm-122.346-55.963c-1.281 0-2.324 1.043-2.324 2.325v46.313c0 1.282 1.043 2.325 2.324 2.325h122.346c1.281 0 2.324-1.043 2.324-2.325v-46.313c0-1.282-1.043-2.325-2.324-2.325z"/></g></g><g><g><path d="m79.903 113.299h-4.075c-.276 0-.5.224-.5.5v23.465c0 2.622-1.325 4.202-4.022 4.202-3.185 0-4.427-2.214-4.427-5.411 0-.276-.224-.5-.5-.5h-4.074c-.276 0-.5.224-.5.5 0 6.505 3.791 10.128 9.68 10.128 5.739 0 8.919-3.585 8.919-8.919v-23.465c-.001-.276-.224-.5-.501-.5z"/></g></g><g><g><path d="m100.566 114.206c-.073-.195-.26-.324-.468-.324h-4.612c-.208 0-.395.129-.468.324l-11.688 30.988c-.124.331.123.676.468.676h4.389c.211 0 .398-.132.47-.33l2.522-6.969h13.182l2.522 6.969c.071.198.259.33.47.33h4.389c.345 0 .592-.345.468-.676zm2.268 20.185h-10.127l5.063-13.974z"/></g></g><g><g><path d="m141.744 113.299h-4.434c-.211 0-.398.132-.471.33l-9.288 25.735-9.16-25.733c-.07-.199-.259-.333-.471-.333h-4.479c-.348 0-.588.345-.47.672l11.554 31.57c.072.197.26.328.47.328h5.149c.21 0 .397-.131.47-.328l11.599-31.57c.121-.33-.126-.671-.469-.671z"/></g></g><g><g><path d="m171.856 145.194-11.644-30.988c-.073-.195-.26-.324-.468-.324h-4.612c-.208 0-.395.129-.468.324l-11.688 30.988c-.124.331.123.676.468.676h4.389c.211 0 .398-.132.47-.33l2.522-6.969h13.182l2.522 6.969c.071.198.259.33.47.33h4.389c.346 0 .593-.345.468-.676zm-9.376-10.803h-10.127l5.063-13.974z"/></g></g></g></g></svg>