<svg id="svg" version="1.1" xmlns="http://www.w3.org/2000/svg" xmlns:xlink="http://www.w3.org/1999/xlink" width="400" height="400" viewBox="0, 0, 400,400"><g id="svgg"><path id="path0" d="M381.465 29.896 C 381.549 30.285,377.143 30.415,361.086 30.496 C 349.542 30.555,340.949 30.747,341.400 30.936 C 348.486 33.915,352.868 38.299,355.456 45.000 L 356.538 47.800 356.696 67.600 L 356.855 87.400 358.128 88.499 C 358.827 89.104,359.543 89.599,359.717 89.599 C 359.891 89.600,360.420 89.960,360.892 90.400 C 361.364 90.840,361.987 91.200,362.275 91.200 C 362.564 91.200,362.800 91.380,362.800 91.600 C 362.800 91.820,363.036 92.000,363.325 92.000 C 363.613 92.000,364.236 92.360,364.708 92.800 C 365.180 93.240,365.729 93.600,365.927 93.600 C 366.125 93.600,367.089 94.306,368.069 95.168 C 372.262 98.860,371.195 102.614,364.916 106.260 C 363.862 106.872,362.774 107.592,362.498 107.860 C 362.221 108.128,361.636 108.462,361.198 108.601 C 360.759 108.740,360.400 109.022,360.400 109.227 C 360.400 109.432,360.128 109.600,359.796 109.600 C 359.464 109.600,358.672 110.098,358.035 110.706 L 356.878 111.812 356.719 127.806 C 356.599 139.842,356.429 144.097,356.034 145.000 C 352.941 152.068,349.325 156.682,345.622 158.286 C 344.730 158.672,344.000 159.126,344.000 159.294 C 344.000 159.462,343.651 159.600,343.224 159.600 C 342.797 159.600,342.336 159.780,342.200 160.000 C 342.064 160.220,341.558 160.440,341.076 160.489 C 340.594 160.539,349.380 160.674,360.600 160.789 C 377.189 160.961,381.104 160.901,381.558 160.471 C 381.871 160.173,382.516 160.043,383.033 160.173 C 383.538 160.299,384.063 160.222,384.199 160.001 C 384.336 159.781,384.782 159.600,385.190 159.600 C 385.599 159.600,385.993 159.465,386.067 159.300 C 386.140 159.135,387.083 158.552,388.162 158.005 C 392.083 156.017,397.600 149.580,397.600 146.993 C 397.600 146.653,397.838 146.284,398.128 146.172 C 398.462 146.044,398.593 145.532,398.483 144.785 C 398.363 143.966,398.478 143.600,398.855 143.600 C 399.661 143.600,399.671 48.013,398.864 47.379 C 398.570 47.148,398.382 46.698,398.448 46.379 C 398.514 46.061,398.335 45.380,398.052 44.866 C 397.768 44.352,397.637 43.830,397.761 43.705 C 397.886 43.581,397.693 43.264,397.333 43.000 C 396.629 42.486,396.965 41.408,397.689 41.855 C 397.942 42.012,398.009 41.938,397.849 41.679 C 397.698 41.435,397.322 41.332,397.014 41.450 C 396.672 41.581,396.223 41.218,395.859 40.513 C 394.931 38.719,389.607 33.903,387.394 32.856 C 386.297 32.337,385.087 31.752,384.705 31.556 C 384.323 31.360,383.593 31.200,383.083 31.200 C 382.505 31.200,382.004 30.860,381.756 30.300 C 381.537 29.805,381.406 29.623,381.465 29.896 M243.023 31.200 C 243.872 39.969,244.005 45.748,243.908 69.794 C 243.849 84.606,243.935 96.640,244.100 96.538 C 244.509 96.286,244.404 41.558,243.986 36.800 C 243.802 34.710,243.471 32.190,243.250 31.200 L 242.849 29.400 243.023 31.200 M284.600 164.203 C 283.060 165.413,281.170 166.913,280.400 167.537 C 279.630 168.162,278.595 168.924,278.100 169.232 C 277.597 169.545,277.200 170.192,277.200 170.696 C 277.200 171.316,276.962 171.600,276.443 171.600 C 276.026 171.600,275.572 171.895,275.434 172.257 C 275.232 172.783,275.293 172.821,275.743 172.448 C 276.194 172.073,276.340 172.174,276.491 172.965 C 276.713 174.127,276.331 174.891,275.613 174.721 C 275.331 174.655,275.018 174.825,274.917 175.100 C 274.816 175.375,274.928 175.600,275.167 175.600 C 275.405 175.600,275.600 176.159,275.600 176.843 C 275.600 177.771,275.451 178.029,275.013 177.860 C 274.690 177.736,274.302 177.835,274.151 178.079 C 273.995 178.331,274.057 178.412,274.292 178.266 C 274.747 177.986,275.118 179.381,274.886 180.500 C 274.806 180.885,274.382 181.200,273.942 181.200 C 273.216 181.200,273.200 181.257,273.771 181.829 C 274.829 182.886,274.301 184.644,273.068 184.171 C 272.679 184.022,272.400 184.109,272.400 184.381 C 272.400 184.637,272.559 184.749,272.754 184.628 C 273.172 184.370,273.611 186.307,273.311 187.087 C 273.189 187.406,272.800 187.527,272.353 187.385 C 271.920 187.248,271.600 187.338,271.600 187.597 C 271.600 187.844,271.765 187.945,271.967 187.820 C 272.415 187.544,272.965 189.809,272.596 190.407 C 272.451 190.641,271.988 190.723,271.566 190.589 C 271.121 190.448,270.800 190.535,270.800 190.797 C 270.800 191.044,270.967 191.144,271.171 191.018 C 271.685 190.700,272.111 192.220,271.791 193.229 C 271.636 193.717,271.301 193.971,270.977 193.846 C 270.674 193.730,270.302 193.835,270.151 194.079 C 269.985 194.348,270.059 194.411,270.338 194.238 C 270.865 193.912,270.920 194.167,270.966 197.200 C 271.001 199.467,272.031 201.561,273.125 201.587 C 273.433 201.595,273.598 201.958,273.525 202.463 C 273.456 202.937,273.625 203.402,273.900 203.496 C 274.219 203.605,274.312 203.436,274.157 203.033 C 273.960 202.520,274.221 202.400,275.534 202.400 C 276.424 202.400,277.264 202.220,277.400 202.000 C 277.747 201.438,278.707 201.502,278.913 202.100 C 279.008 202.375,279.032 202.261,278.966 201.848 C 278.827 200.964,279.160 200.600,281.700 198.862 C 282.745 198.147,283.600 197.390,283.600 197.181 C 283.600 196.971,283.879 196.800,284.220 196.800 C 284.561 196.800,285.488 196.170,286.281 195.400 C 287.074 194.630,287.889 194.000,288.092 194.000 C 288.295 194.000,289.002 193.460,289.662 192.800 C 290.322 192.140,290.989 191.600,291.145 191.600 C 291.301 191.600,292.232 190.885,293.214 190.011 C 294.197 189.138,295.143 188.418,295.318 188.411 C 295.493 188.405,296.086 187.950,296.636 187.400 C 297.186 186.850,297.765 186.400,297.922 186.400 C 298.080 186.400,298.656 185.990,299.204 185.489 C 299.752 184.987,300.830 184.141,301.600 183.608 C 302.370 183.075,303.090 182.534,303.200 182.405 C 303.310 182.277,303.940 181.768,304.600 181.274 C 306.383 179.939,307.900 178.753,309.682 177.300 C 310.558 176.585,311.416 176.000,311.587 176.000 C 311.759 176.000,312.687 175.280,313.649 174.400 C 314.612 173.520,315.559 172.800,315.753 172.800 C 315.947 172.800,316.397 172.476,316.753 172.081 C 317.109 171.686,318.030 170.929,318.800 170.400 C 319.570 169.871,320.491 169.114,320.847 168.719 C 321.203 168.324,321.621 168.000,321.775 168.000 C 321.930 168.000,322.285 167.775,322.563 167.500 C 322.841 167.225,323.569 166.640,324.181 166.200 C 324.793 165.760,325.970 164.860,326.797 164.200 C 327.624 163.540,328.638 162.786,329.050 162.524 C 329.636 162.151,325.161 162.042,308.600 162.026 L 287.400 162.004 284.600 164.203 M285.429 197.029 C 285.005 197.338,284.736 197.669,284.830 197.763 C 284.924 197.857,285.348 197.681,285.771 197.371 C 286.195 197.062,286.464 196.731,286.370 196.637 C 286.276 196.543,285.852 196.719,285.429 197.029 M281.414 254.900 C 281.325 255.175,281.148 257.560,281.020 260.200 C 280.893 262.840,280.622 267.250,280.419 270.000 C 280.216 272.750,279.853 277.790,279.612 281.200 C 279.177 287.348,278.775 292.903,277.995 303.500 C 277.773 306.525,277.418 311.520,277.206 314.600 C 276.994 317.680,276.629 322.810,276.395 326.000 C 275.505 338.121,275.230 342.085,274.620 351.600 C 273.475 369.484,273.358 370.362,271.734 373.400 C 270.730 375.276,269.663 376.298,267.217 377.723 C 264.934 379.053,265.186 379.124,272.800 379.295 C 282.564 379.514,286.200 382.310,286.200 389.600 C 286.200 393.867,282.745 399.200,279.980 399.200 C 279.577 399.200,279.128 399.393,278.981 399.630 C 278.793 399.935,283.179 400.022,294.025 399.930 C 305.823 399.830,309.372 399.685,309.500 399.300 C 309.592 399.025,309.972 398.800,310.345 398.800 C 310.718 398.800,311.283 398.440,311.600 398.000 C 311.917 397.560,312.425 397.200,312.728 397.200 C 313.031 397.200,313.783 396.660,314.400 396.000 C 315.017 395.340,315.854 394.797,316.260 394.794 C 316.884 394.789,316.906 394.727,316.400 394.400 C 316.000 394.142,315.967 394.010,316.300 394.006 C 316.575 394.003,316.800 393.680,316.800 393.288 C 316.800 392.897,317.160 392.317,317.600 392.000 C 318.040 391.683,318.400 391.003,318.400 390.488 C 318.400 389.966,318.577 389.662,318.800 389.800 C 319.042 389.950,319.200 389.396,319.200 388.400 C 319.200 387.404,319.358 386.850,319.600 387.000 C 319.864 387.163,320.000 382.545,320.000 373.447 C 320.000 364.679,319.854 359.557,319.600 359.400 C 319.341 359.240,319.200 350.929,319.200 335.776 C 319.200 320.459,319.062 312.400,318.800 312.400 C 318.546 312.400,318.400 309.267,318.400 303.800 C 318.400 298.855,318.244 295.200,318.033 295.200 C 317.832 295.200,317.667 294.350,317.667 293.311 C 317.667 292.272,317.472 291.357,317.233 291.278 C 316.995 291.198,316.800 290.518,316.800 289.767 C 316.800 289.015,316.620 288.400,316.400 288.400 C 316.180 288.400,316.000 287.759,316.000 286.976 C 316.000 286.129,315.838 285.653,315.600 285.800 C 315.373 285.940,315.200 285.604,315.200 285.024 C 315.200 284.461,315.020 284.000,314.800 284.000 C 314.580 284.000,314.400 283.640,314.400 283.200 C 314.400 282.760,314.220 282.400,314.000 282.400 C 313.780 282.400,313.600 282.040,313.600 281.600 C 313.600 281.160,313.420 280.800,313.200 280.800 C 312.980 280.800,312.800 280.440,312.800 280.000 C 312.800 279.560,312.620 279.200,312.400 279.200 C 312.180 279.200,312.000 278.930,312.000 278.600 C 312.000 278.270,311.820 278.000,311.600 278.000 C 311.380 278.000,311.200 277.642,311.200 277.203 C 311.200 276.765,310.840 276.182,310.400 275.907 C 309.960 275.632,309.600 275.170,309.600 274.880 C 309.600 274.590,309.442 274.450,309.249 274.570 C 309.055 274.689,308.790 274.250,308.659 273.594 C 308.525 272.924,308.164 272.400,307.837 272.400 C 307.516 272.400,307.140 272.040,307.000 271.600 C 306.860 271.160,306.578 270.800,306.373 270.800 C 306.168 270.800,306.000 270.526,306.000 270.191 C 306.000 269.517,302.057 265.469,301.217 265.281 C 300.924 265.215,300.189 264.630,299.582 263.981 C 298.975 263.331,298.271 262.800,298.016 262.800 C 297.761 262.800,297.664 262.620,297.800 262.400 C 297.936 262.180,297.716 262.000,297.312 262.000 C 296.907 262.000,296.317 261.640,296.000 261.200 C 295.683 260.760,295.093 260.400,294.688 260.400 C 294.284 260.400,294.063 260.222,294.197 260.005 C 294.333 259.786,294.188 259.707,293.872 259.828 C 293.559 259.948,293.197 259.769,293.067 259.430 C 292.930 259.074,292.571 258.913,292.215 259.050 C 291.877 259.179,291.600 259.086,291.600 258.843 C 291.600 258.599,291.240 258.400,290.800 258.400 C 290.360 258.400,290.000 258.220,290.000 258.000 C 290.000 257.780,289.730 257.600,289.400 257.600 C 289.070 257.600,288.800 257.420,288.800 257.200 C 288.800 256.980,288.440 256.800,288.000 256.800 C 287.560 256.800,287.200 256.620,287.200 256.400 C 287.200 256.180,286.840 256.000,286.400 256.000 C 285.960 256.000,285.600 255.820,285.600 255.600 C 285.600 255.380,285.150 255.200,284.600 255.200 C 284.050 255.200,283.600 255.020,283.600 254.800 C 283.600 254.218,281.604 254.309,281.414 254.900 M33.200 255.600 C 33.200 255.820,32.840 256.000,32.400 256.000 C 31.960 256.000,31.600 256.180,31.600 256.400 C 31.600 256.620,31.240 256.800,30.800 256.800 C 30.360 256.800,30.000 256.980,30.000 257.200 C 30.000 257.420,29.655 257.600,29.233 257.600 C 28.812 257.600,28.407 257.735,28.333 257.900 C 28.260 258.065,27.480 258.558,26.600 258.994 C 25.720 259.431,24.730 260.061,24.400 260.394 C 24.070 260.728,23.532 261.059,23.204 261.132 C 22.876 261.205,22.516 261.393,22.404 261.551 C 22.292 261.709,21.570 262.270,20.800 262.798 C 19.127 263.944,10.800 272.269,10.800 272.796 C 10.800 272.998,10.361 273.603,9.824 274.139 C 9.288 274.676,8.958 275.224,9.091 275.358 C 9.224 275.491,9.123 275.600,8.867 275.600 C 8.610 275.600,8.400 275.870,8.400 276.200 C 8.400 276.530,8.220 276.800,8.000 276.800 C 7.780 276.800,7.600 277.160,7.600 277.600 C 7.600 278.040,7.420 278.400,7.200 278.400 C 6.980 278.400,6.800 278.670,6.800 279.000 C 6.800 279.330,6.620 279.600,6.400 279.600 C 6.180 279.600,6.000 280.061,6.000 280.624 C 6.000 281.204,5.827 281.540,5.600 281.400 C 5.380 281.264,5.200 281.523,5.200 281.976 C 5.200 282.429,5.020 282.800,4.800 282.800 C 4.580 282.800,4.400 283.250,4.400 283.800 C 4.400 284.350,4.220 284.800,4.000 284.800 C 3.780 284.800,3.600 285.149,3.600 285.576 C 3.600 286.003,3.420 286.464,3.200 286.600 C 2.980 286.736,2.800 287.467,2.800 288.224 C 2.800 288.981,2.620 289.600,2.400 289.600 C 2.180 289.600,2.000 290.320,2.000 291.200 C 2.000 292.080,1.820 292.800,1.600 292.800 C 1.376 292.800,1.200 293.907,1.200 295.320 C 1.200 296.706,1.028 298.012,0.817 298.223 C 0.189 298.851,0.073 390.489,0.700 390.699 C 0.975 390.791,1.200 391.172,1.200 391.545 C 1.200 391.918,1.560 392.483,2.000 392.800 C 2.440 393.117,2.800 393.613,2.800 393.902 C 2.800 394.584,5.416 397.200,6.098 397.200 C 6.387 397.200,6.883 397.560,7.200 398.000 C 7.517 398.440,8.082 398.800,8.455 398.800 C 8.828 398.800,9.208 399.025,9.300 399.300 C 9.428 399.687,13.044 399.822,25.233 399.896 C 40.613 399.990,40.966 399.975,39.600 399.276 C 31.979 395.373,30.631 387.236,36.697 381.748 C 38.762 379.879,41.361 379.200,46.446 379.200 C 50.804 379.200,51.655 378.918,49.821 378.083 C 48.427 377.447,45.762 374.957,44.785 373.376 C 43.159 370.744,43.234 371.345,41.602 348.000 C 40.278 329.062,39.244 314.502,38.819 308.800 C 38.419 303.436,37.984 297.300,37.189 285.800 C 36.961 282.500,36.607 277.640,36.403 275.000 C 36.200 272.360,35.833 267.230,35.588 263.600 C 35.037 255.445,34.991 255.200,33.992 255.200 C 33.557 255.200,33.200 255.380,33.200 255.600 " stroke="none" fill="#45bcc0" fill-rule="evenodd"></path><path id="path1" d="M111.157 40.580 C 106.222 41.941,101.904 45.616,99.633 50.388 L 98.200 53.400 98.000 78.039 C 97.785 104.584,97.836 104.000,95.706 104.000 C 95.145 104.000,93.653 103.206,92.293 102.184 C 85.318 96.940,71.600 94.677,71.600 98.770 C 71.600 99.033,71.392 99.119,71.138 98.962 C 70.873 98.798,70.784 98.851,70.930 99.086 C 71.069 99.311,70.737 100.014,70.192 100.648 C 69.647 101.282,69.201 102.205,69.200 102.700 C 69.200 103.195,69.020 103.600,68.800 103.600 C 68.554 103.600,68.400 105.592,68.400 108.776 C 68.400 111.796,68.567 114.056,68.800 114.200 C 69.020 114.336,69.200 115.337,69.200 116.424 C 69.200 117.511,69.380 118.400,69.600 118.400 C 69.820 118.400,70.000 119.390,70.000 120.600 C 70.000 121.810,70.180 122.800,70.400 122.800 C 70.620 122.800,70.800 123.700,70.800 124.800 C 70.800 125.900,70.980 126.800,71.200 126.800 C 71.420 126.800,71.600 127.700,71.600 128.800 C 71.600 129.900,71.780 130.800,72.000 130.800 C 72.220 130.800,72.400 131.340,72.400 132.000 C 72.400 132.660,72.580 133.200,72.800 133.200 C 73.020 133.200,73.200 133.560,73.200 134.000 C 73.200 134.440,73.380 134.800,73.600 134.800 C 73.820 134.800,74.000 135.078,74.000 135.418 C 74.000 137.854,78.553 139.678,84.246 139.523 L 88.802 139.400 88.801 147.500 C 88.800 152.634,88.946 155.600,89.200 155.600 C 89.420 155.600,89.600 156.320,89.600 157.200 C 89.600 158.080,89.780 158.800,90.000 158.800 C 90.220 158.800,90.400 159.520,90.400 160.400 C 90.400 161.280,90.580 162.000,90.800 162.000 C 91.020 162.000,91.200 162.510,91.200 163.133 C 91.200 163.757,91.319 164.386,91.465 164.532 C 91.611 164.678,92.036 165.653,92.408 166.699 C 93.332 169.292,94.893 172.571,95.281 172.733 C 95.457 172.807,95.600 173.172,95.600 173.545 C 95.600 173.918,95.960 174.483,96.400 174.800 C 96.840 175.117,97.200 175.697,97.200 176.088 C 97.200 176.480,97.380 176.800,97.600 176.800 C 97.820 176.800,98.000 177.036,98.000 177.325 C 98.000 177.613,98.360 178.236,98.800 178.708 C 99.240 179.180,99.600 179.727,99.600 179.924 C 99.600 180.121,100.140 180.846,100.800 181.537 C 101.460 182.228,102.000 182.956,102.000 183.156 C 102.000 183.356,102.900 184.438,104.000 185.561 C 105.100 186.685,106.003 187.738,106.006 187.902 C 106.010 188.066,106.892 189.055,107.966 190.100 C 109.041 191.145,109.873 192.000,109.816 192.000 C 109.759 192.000,110.500 192.810,111.462 193.800 C 112.424 194.790,113.389 195.600,113.606 195.600 C 113.823 195.600,114.000 195.780,114.000 196.000 C 114.000 196.220,114.179 196.400,114.398 196.400 C 114.617 196.400,115.715 197.300,116.839 198.400 C 117.962 199.500,119.061 200.400,119.280 200.400 C 119.499 200.400,120.183 200.940,120.800 201.600 C 121.417 202.260,122.120 202.800,122.364 202.800 C 122.608 202.800,123.372 203.340,124.063 204.000 C 124.754 204.660,125.490 205.200,125.699 205.200 C 126.066 205.200,125.867 218.042,125.472 219.800 C 125.374 220.240,125.159 221.185,124.996 221.900 C 124.833 222.615,124.543 223.200,124.350 223.200 C 124.158 223.200,124.000 223.478,124.000 223.818 C 124.000 224.158,123.550 224.886,123.000 225.436 C 122.450 225.986,122.000 226.311,122.000 226.157 C 122.000 226.003,121.664 226.265,121.253 226.739 C 120.842 227.212,120.212 227.600,119.853 227.600 C 119.494 227.600,119.199 227.735,119.197 227.900 C 119.192 228.348,117.173 229.200,116.115 229.200 C 115.606 229.200,114.877 229.358,114.495 229.551 C 113.328 230.140,110.992 230.800,110.072 230.800 C 109.592 230.800,109.200 230.980,109.200 231.200 C 109.200 231.420,108.480 231.600,107.600 231.600 C 106.720 231.600,106.000 231.780,106.000 232.000 C 106.000 232.220,105.370 232.400,104.600 232.400 C 103.830 232.400,103.200 232.580,103.200 232.800 C 103.200 233.020,102.570 233.200,101.800 233.200 C 101.030 233.200,100.400 233.380,100.400 233.600 C 100.400 233.820,99.680 234.000,98.800 234.000 C 97.920 234.000,97.200 234.180,97.200 234.400 C 97.200 234.620,96.671 234.800,96.024 234.800 C 95.377 234.800,94.736 234.980,94.600 235.200 C 94.464 235.420,93.823 235.600,93.176 235.600 C 91.620 235.600,91.669 236.234,93.250 236.550 C 94.861 236.872,226.128 236.879,226.967 236.557 C 228.075 236.132,227.649 235.600,226.200 235.600 C 225.430 235.600,224.800 235.420,224.800 235.200 C 224.800 234.980,224.260 234.800,223.600 234.800 C 222.940 234.800,222.400 234.620,222.400 234.400 C 222.400 234.180,221.680 234.000,220.800 234.000 C 219.920 234.000,219.200 233.820,219.200 233.600 C 219.200 233.380,218.660 233.200,218.000 233.200 C 217.340 233.200,216.800 233.020,216.800 232.800 C 216.800 232.580,216.091 232.400,215.224 232.400 C 214.357 232.400,213.536 232.220,213.400 232.000 C 213.264 231.780,212.533 231.600,211.776 231.600 C 211.019 231.600,210.400 231.420,210.400 231.200 C 210.400 230.980,209.871 230.800,209.224 230.800 C 208.577 230.800,207.936 230.620,207.800 230.400 C 207.664 230.180,207.034 230.000,206.400 230.000 C 205.766 230.000,205.136 229.820,205.000 229.600 C 204.864 229.380,204.133 229.200,203.376 229.200 C 202.619 229.200,202.000 229.020,202.000 228.800 C 202.000 228.580,201.728 228.400,201.395 228.400 C 199.566 228.400,194.800 224.231,194.800 222.631 C 194.800 222.064,194.620 221.600,194.400 221.600 C 194.180 221.600,194.000 220.981,194.000 220.224 C 194.000 219.467,193.820 218.736,193.600 218.600 C 192.936 218.190,193.073 205.200,193.741 205.200 C 194.038 205.200,194.846 204.660,195.537 204.000 C 196.228 203.340,196.992 202.800,197.236 202.800 C 197.480 202.800,198.183 202.260,198.800 201.600 C 199.417 200.940,200.130 200.400,200.386 200.400 C 200.642 200.400,201.729 199.500,202.800 198.400 C 203.871 197.300,204.855 196.400,204.985 196.400 C 205.328 196.400,212.800 188.975,212.800 188.634 C 212.800 188.477,213.700 187.471,214.800 186.400 C 215.900 185.329,216.800 184.242,216.800 183.986 C 216.800 183.730,217.340 183.017,218.000 182.400 C 218.660 181.783,219.200 181.031,219.200 180.728 C 219.200 180.425,219.560 179.917,220.000 179.600 C 220.440 179.283,220.800 178.743,220.800 178.400 C 220.800 178.057,221.160 177.517,221.600 177.200 C 222.040 176.883,222.400 176.303,222.400 175.912 C 222.400 175.520,222.535 175.200,222.700 175.200 C 223.124 175.199,225.200 171.414,225.200 170.641 C 225.200 170.288,225.380 170.000,225.600 170.000 C 225.820 170.000,226.000 169.640,226.000 169.200 C 226.000 168.760,226.180 168.400,226.400 168.400 C 226.620 168.400,226.800 167.860,226.800 167.200 C 226.800 166.540,226.980 166.000,227.200 166.000 C 227.420 166.000,227.600 165.640,227.600 165.200 C 227.600 164.760,227.780 164.400,228.000 164.400 C 228.220 164.400,228.400 163.661,228.400 162.757 C 228.400 161.854,228.656 159.919,228.970 158.457 C 230.187 152.779,230.400 150.741,230.400 144.746 L 230.400 138.539 235.100 138.570 C 240.270 138.603,241.823 138.113,244.079 135.737 C 246.189 133.513,246.382 132.817,249.208 117.200 C 251.169 106.369,250.558 102.657,246.133 98.500 C 244.138 96.627,242.483 96.331,239.046 97.232 C 238.141 97.469,236.680 97.852,235.800 98.083 C 233.173 98.772,229.977 100.361,227.618 102.151 C 224.559 104.473,224.522 104.490,223.245 104.210 C 221.204 103.762,221.200 103.712,221.196 78.481 C 221.192 59.054,221.091 54.668,220.608 53.076 C 218.955 47.629,215.159 43.568,209.600 41.297 C 207.132 40.289,203.800 40.000,194.669 40.005 C 182.204 40.011,180.303 40.480,174.400 45.004 C 165.096 52.134,154.635 52.235,145.540 45.283 C 138.934 40.234,137.936 39.991,124.027 40.036 C 116.446 40.060,112.424 40.230,111.157 40.580 M282.000 254.000 C 281.515 254.314,281.572 254.389,282.300 254.394 C 282.795 254.397,283.200 254.220,283.200 254.000 C 283.200 253.499,282.776 253.499,282.000 254.000 M283.600 254.800 C 283.600 255.020,283.870 255.200,284.200 255.200 C 284.530 255.200,284.800 255.020,284.800 254.800 C 284.800 254.580,284.530 254.400,284.200 254.400 C 283.870 254.400,283.600 254.580,283.600 254.800 M298.800 263.040 C 298.800 263.340,301.201 265.600,301.521 265.600 C 301.651 265.600,301.146 264.970,300.400 264.200 C 299.018 262.774,298.800 262.616,298.800 263.040 M306.000 270.400 C 306.000 270.620,306.168 270.800,306.373 270.800 C 306.578 270.800,306.860 271.160,307.000 271.600 C 307.140 272.040,307.497 272.400,307.794 272.400 C 308.090 272.400,308.424 272.625,308.535 272.900 C 308.654 273.194,308.750 273.218,308.768 272.959 C 308.799 272.534,306.597 270.000,306.197 270.000 C 306.088 270.000,306.000 270.180,306.000 270.400 M316.000 287.800 C 316.000 288.130,316.180 288.400,316.400 288.400 C 316.620 288.400,316.800 288.130,316.800 287.800 C 316.800 287.470,316.620 287.200,316.400 287.200 C 316.180 287.200,316.000 287.470,316.000 287.800 M316.800 290.376 C 316.800 290.829,316.980 291.200,317.200 291.200 C 317.420 291.200,317.600 290.941,317.600 290.624 C 317.600 290.307,317.420 289.936,317.200 289.800 C 316.980 289.664,316.800 289.923,316.800 290.376 M317.600 294.400 C 317.600 294.840,317.780 295.200,318.000 295.200 C 318.220 295.200,318.400 294.840,318.400 294.400 C 318.400 293.960,318.220 293.600,318.000 293.600 C 317.780 293.600,317.600 293.960,317.600 294.400 M318.400 305.600 C 318.400 309.867,318.549 312.400,318.800 312.400 C 319.051 312.400,319.200 309.867,319.200 305.600 C 319.200 301.333,319.051 298.800,318.800 298.800 C 318.549 298.800,318.400 301.333,318.400 305.600 M319.200 351.353 C 319.200 355.643,319.360 359.252,319.556 359.373 C 319.758 359.497,319.938 356.240,319.974 351.831 C 320.014 346.797,319.889 343.979,319.618 343.811 C 319.333 343.635,319.200 346.029,319.200 351.353 M319.200 387.800 C 319.200 388.396,319.372 388.741,319.600 388.600 C 319.820 388.464,320.000 388.104,320.000 387.800 C 320.000 387.496,319.820 387.136,319.600 387.000 C 319.372 386.859,319.200 387.204,319.200 387.800 M318.400 390.400 C 318.400 391.147,318.507 391.253,318.880 390.880 C 319.253 390.507,319.253 390.293,318.880 389.920 C 318.507 389.547,318.400 389.653,318.400 390.400 M317.260 392.242 C 316.531 393.066,317.000 393.457,317.781 392.676 C 318.121 392.336,318.400 391.954,318.400 391.829 C 318.400 391.409,317.806 391.624,317.260 392.242 M314.460 395.851 C 313.943 396.402,313.590 396.924,313.677 397.010 C 313.869 397.203,316.000 395.408,316.000 395.053 C 316.000 394.549,315.381 394.869,314.460 395.851 M311.660 397.842 C 310.931 398.666,311.400 399.057,312.181 398.276 C 312.521 397.936,312.800 397.554,312.800 397.429 C 312.800 397.009,312.206 397.224,311.660 397.842 " stroke="none" fill="#f5bb7d" fill-rule="evenodd"></path><path id="path2" d="M106.100 0.287 C 105.165 0.375,104.400 0.616,104.400 0.823 C 104.400 1.030,103.860 1.200,103.200 1.200 C 102.540 1.200,102.000 1.380,102.000 1.600 C 102.000 1.820,101.561 2.000,101.024 2.000 C 100.487 2.000,99.936 2.180,99.800 2.400 C 99.664 2.620,99.203 2.800,98.776 2.800 C 98.349 2.800,98.000 2.980,98.000 3.200 C 98.000 3.420,97.640 3.600,97.200 3.600 C 96.760 3.600,96.400 3.780,96.400 4.000 C 96.400 4.220,96.164 4.400,95.875 4.400 C 95.587 4.400,94.964 4.760,94.492 5.200 C 94.020 5.640,93.447 6.000,93.220 6.000 C 92.993 6.000,92.582 6.360,92.307 6.800 C 92.032 7.240,91.582 7.600,91.307 7.600 C 90.441 7.600,83.200 14.374,83.200 15.184 C 83.200 15.417,82.660 16.172,82.000 16.863 C 81.340 17.554,80.800 18.362,80.800 18.659 C 80.800 18.957,80.620 19.200,80.400 19.200 C 80.180 19.200,80.000 19.560,80.000 20.000 C 80.000 20.440,79.820 20.800,79.600 20.800 C 79.380 20.800,79.200 21.160,79.200 21.600 C 79.200 22.040,79.020 22.400,78.800 22.400 C 78.580 22.400,78.400 22.760,78.400 23.200 C 78.400 23.640,78.259 24.000,78.087 24.000 C 77.915 24.000,77.529 24.855,77.229 25.900 C 76.929 26.945,76.555 27.980,76.397 28.200 C 76.105 28.608,75.733 30.381,75.263 33.600 C 75.118 34.590,75.000 49.170,75.000 66.000 L 75.000 96.600 77.600 96.840 C 83.347 97.369,88.272 99.161,92.293 102.184 C 93.653 103.206,95.145 104.000,95.706 104.000 C 97.836 104.000,97.785 104.584,98.000 78.039 L 98.200 53.400 99.633 50.388 C 103.664 41.918,108.179 40.012,124.227 40.005 C 137.915 39.999,138.967 40.259,145.540 45.283 C 154.635 52.235,165.096 52.134,174.400 45.004 C 180.303 40.480,182.204 40.011,194.669 40.005 C 203.800 40.000,207.132 40.289,209.600 41.297 C 215.159 43.568,218.955 47.629,220.608 53.076 C 221.091 54.668,221.192 59.054,221.196 78.481 C 221.200 103.712,221.204 103.762,223.245 104.210 C 224.522 104.490,224.559 104.473,227.618 102.151 C 229.977 100.361,233.173 98.772,235.800 98.083 C 236.680 97.852,238.141 97.469,239.046 97.232 C 239.952 96.994,241.328 96.800,242.104 96.800 C 243.021 96.800,243.599 96.579,243.757 96.167 C 244.178 95.070,243.975 41.667,243.532 37.000 C 243.302 34.580,243.103 31.655,243.089 30.500 C 243.076 29.345,242.915 28.400,242.732 28.400 C 242.550 28.400,242.400 27.860,242.400 27.200 C 242.400 26.540,242.220 26.000,242.000 26.000 C 241.780 26.000,241.599 25.595,241.598 25.100 C 241.596 24.605,241.326 23.684,240.998 23.054 C 240.669 22.424,240.400 21.659,240.400 21.354 C 240.400 21.049,240.220 20.800,240.000 20.800 C 239.780 20.800,239.600 20.564,239.600 20.275 C 239.600 19.987,239.240 19.364,238.800 18.892 C 238.360 18.420,238.000 17.796,238.000 17.505 C 238.000 17.214,237.640 16.717,237.200 16.400 C 236.760 16.083,236.400 15.607,236.400 15.342 C 236.400 14.441,229.230 7.600,228.285 7.600 C 228.006 7.600,227.517 7.240,227.200 6.800 C 226.883 6.360,226.343 6.000,226.000 6.000 C 225.657 6.000,225.117 5.640,224.800 5.200 C 224.483 4.760,223.993 4.400,223.712 4.400 C 223.430 4.400,223.200 4.220,223.200 4.000 C 223.200 3.780,222.840 3.600,222.400 3.600 C 221.960 3.600,221.600 3.420,221.600 3.200 C 221.600 2.980,221.251 2.800,220.824 2.800 C 220.397 2.800,219.936 2.620,219.800 2.400 C 219.664 2.180,219.113 2.000,218.576 2.000 C 218.039 2.000,217.600 1.820,217.600 1.600 C 217.600 1.380,217.075 1.200,216.433 1.200 C 215.792 1.200,215.192 0.975,215.100 0.700 C 214.941 0.224,110.999 -0.170,106.100 0.287 " stroke="none" fill="#3c5969" fill-rule="evenodd"></path><path id="path3" d="M243.368 31.097 C 244.179 37.297,244.350 43.782,244.363 68.953 L 244.379 96.905 245.950 98.250 C 248.096 100.087,249.664 102.902,250.240 105.953 C 250.770 108.756,250.766 108.786,248.400 121.800 C 248.180 123.010,247.831 124.945,247.624 126.100 C 246.891 130.189,246.670 131.021,245.790 133.000 C 243.829 137.408,240.379 139.085,234.167 138.649 L 230.400 138.384 230.400 144.668 C 230.400 150.737,230.189 152.772,228.970 158.457 C 228.656 159.919,228.400 161.314,228.400 161.557 C 228.400 161.876,235.381 162.000,253.365 162.000 L 278.331 162.000 277.999 163.100 C 277.817 163.705,277.472 164.843,277.234 165.628 C 276.995 166.414,276.800 167.438,276.800 167.905 C 276.800 168.371,276.620 168.864,276.400 169.000 C 275.744 169.405,275.913 171.600,276.600 171.600 C 276.956 171.600,277.200 171.233,277.200 170.696 C 277.200 170.192,277.597 169.545,278.100 169.232 C 278.595 168.924,279.630 168.162,280.400 167.537 C 281.170 166.913,283.060 165.413,284.600 164.203 L 287.400 162.004 308.600 162.026 C 325.161 162.042,329.636 162.151,329.050 162.524 C 328.638 162.786,327.624 163.540,326.797 164.200 C 325.970 164.860,324.793 165.760,324.181 166.200 C 323.569 166.640,322.841 167.225,322.563 167.500 C 322.285 167.775,321.930 168.000,321.775 168.000 C 321.621 168.000,321.203 168.324,320.847 168.719 C 320.491 169.114,319.570 169.871,318.800 170.400 C 318.030 170.929,317.109 171.686,316.753 172.081 C 316.397 172.476,315.947 172.800,315.753 172.800 C 315.559 172.800,314.612 173.520,313.649 174.400 C 312.687 175.280,311.759 176.000,311.587 176.000 C 311.416 176.000,310.558 176.585,309.682 177.300 C 307.900 178.753,306.383 179.939,304.600 181.274 C 303.940 181.768,303.310 182.277,303.200 182.405 C 303.090 182.534,302.370 183.075,301.600 183.608 C 300.830 184.141,299.752 184.987,299.204 185.489 C 298.656 185.990,298.080 186.400,297.922 186.400 C 297.765 186.400,297.186 186.850,296.636 187.400 C 296.086 187.950,295.493 188.405,295.318 188.411 C 295.143 188.418,294.197 189.138,293.214 190.011 C 292.232 190.885,291.301 191.600,291.145 191.600 C 290.989 191.600,290.322 192.140,289.662 192.800 C 289.002 193.460,288.295 194.000,288.092 194.000 C 287.889 194.000,287.074 194.630,286.281 195.400 C 285.488 196.170,284.561 196.800,284.220 196.800 C 283.879 196.800,283.600 196.971,283.600 197.181 C 283.600 197.390,282.745 198.147,281.700 198.862 C 278.985 200.720,278.595 201.155,279.149 201.709 C 279.493 202.053,279.761 201.947,280.226 201.284 C 280.567 200.798,281.060 200.394,281.323 200.386 C 281.585 200.378,282.774 199.478,283.965 198.386 C 285.155 197.294,286.288 196.400,286.482 196.400 C 286.675 196.400,287.220 196.040,287.692 195.600 C 288.164 195.160,288.798 194.800,289.099 194.800 C 289.401 194.800,289.536 194.620,289.400 194.400 C 289.264 194.180,289.421 194.000,289.749 194.000 C 290.078 194.000,290.460 193.640,290.600 193.200 C 290.740 192.760,291.137 192.400,291.484 192.400 C 291.830 192.400,292.628 191.862,293.257 191.204 C 293.886 190.546,294.403 190.141,294.406 190.304 C 294.409 190.467,294.546 190.389,294.710 190.132 C 294.874 189.875,295.268 189.605,295.586 189.532 C 295.904 189.459,296.589 188.991,297.108 188.492 C 297.627 187.993,298.535 187.276,299.126 186.899 C 299.717 186.522,300.435 185.896,300.723 185.507 C 301.010 185.118,301.441 184.800,301.679 184.800 C 301.918 184.800,302.630 184.259,303.262 183.598 C 303.893 182.937,304.633 182.352,304.905 182.298 C 305.177 182.244,305.670 181.921,306.000 181.581 C 306.330 181.241,307.230 180.529,308.000 180.000 C 308.770 179.471,309.670 178.751,310.000 178.400 C 310.330 178.049,311.230 177.329,312.000 176.800 C 312.770 176.271,313.670 175.558,314.000 175.216 C 314.330 174.874,315.079 174.349,315.663 174.049 C 316.248 173.749,317.294 172.986,317.988 172.352 C 318.682 171.718,319.351 171.200,319.476 171.200 C 319.601 171.200,320.445 170.561,321.352 169.780 C 323.713 167.746,323.917 167.600,324.407 167.600 C 324.649 167.600,324.736 167.420,324.600 167.200 C 324.464 166.980,324.588 166.796,324.876 166.791 C 325.164 166.786,326.100 166.151,326.956 165.380 C 327.811 164.610,329.026 163.675,329.656 163.303 C 330.285 162.932,330.800 162.486,330.800 162.314 C 330.800 162.141,342.050 162.000,355.800 162.000 C 369.999 162.000,380.800 161.847,380.800 161.647 C 380.800 160.907,378.461 160.809,359.600 160.759 C 348.930 160.731,340.560 160.621,341.000 160.515 C 341.440 160.409,341.971 160.160,342.180 159.961 C 342.389 159.763,342.884 159.600,343.280 159.600 C 343.676 159.600,344.000 159.462,344.000 159.294 C 344.000 159.126,344.730 158.672,345.622 158.286 C 349.325 156.682,352.941 152.068,356.034 145.000 C 356.429 144.097,356.599 139.842,356.719 127.806 L 356.878 111.812 358.035 110.706 C 358.672 110.098,359.464 109.600,359.796 109.600 C 360.128 109.600,360.400 109.432,360.400 109.227 C 360.400 109.022,360.759 108.740,361.198 108.601 C 361.636 108.462,362.221 108.128,362.498 107.860 C 362.774 107.592,363.862 106.872,364.916 106.260 C 371.195 102.614,372.262 98.860,368.069 95.168 C 367.089 94.306,366.125 93.600,365.927 93.600 C 365.729 93.600,365.180 93.240,364.708 92.800 C 364.236 92.360,363.613 92.000,363.325 92.000 C 363.036 92.000,362.800 91.820,362.800 91.600 C 362.800 91.380,362.564 91.200,362.275 91.200 C 361.987 91.200,361.364 90.840,360.892 90.400 C 360.420 89.960,359.891 89.600,359.717 89.599 C 359.543 89.599,358.827 89.104,358.128 88.499 L 356.855 87.400 356.696 67.600 L 356.538 47.800 355.456 45.000 C 352.868 38.299,348.486 33.915,341.400 30.936 C 340.949 30.747,349.542 30.555,361.086 30.496 C 378.948 30.406,381.543 30.317,381.346 29.803 C 381.147 29.286,372.555 29.212,312.119 29.203 L 243.119 29.194 243.368 31.097 M382.000 30.594 C 382.000 30.975,382.374 31.200,383.005 31.200 C 383.558 31.200,384.323 31.360,384.705 31.556 C 385.087 31.752,386.297 32.337,387.394 32.856 C 389.589 33.895,394.928 38.714,395.842 40.481 C 396.467 41.689,397.200 41.970,397.200 41.000 C 397.200 40.670,397.020 40.400,396.800 40.400 C 396.580 40.400,396.400 40.118,396.400 39.773 C 396.400 39.003,390.536 33.200,389.759 33.200 C 389.452 33.200,389.200 33.056,389.200 32.880 C 389.200 32.482,385.794 30.800,384.989 30.800 C 384.665 30.800,384.400 30.658,384.400 30.485 C 384.400 30.312,383.860 30.129,383.200 30.079 C 382.354 30.014,382.000 30.166,382.000 30.594 M397.164 41.843 C 396.713 42.387,396.735 42.563,397.309 42.983 C 397.682 43.256,397.886 43.581,397.761 43.705 C 397.637 43.830,397.765 44.352,398.045 44.866 C 398.325 45.380,398.565 46.144,398.577 46.565 C 398.590 46.986,398.825 47.406,399.100 47.498 C 399.886 47.763,399.700 45.957,398.737 43.975 C 398.263 42.999,397.873 41.975,397.871 41.700 C 397.866 41.057,397.807 41.069,397.164 41.843 M399.452 48.900 C 399.032 50.467,399.177 142.145,399.600 142.800 C 399.852 143.189,399.990 126.644,399.994 95.700 C 399.997 69.465,399.931 48.000,399.847 48.000 C 399.762 48.000,399.585 48.405,399.452 48.900 M333.300 64.458 C 334.857 66.315,334.870 66.271,329.951 76.315 C 327.503 81.312,324.241 88.010,322.700 91.200 C 310.766 115.913,307.304 122.624,306.242 123.108 C 303.035 124.569,299.618 121.893,300.628 118.712 C 300.786 118.213,303.250 113.034,306.103 107.203 C 308.956 101.371,312.150 94.800,313.199 92.600 C 321.353 75.511,327.606 63.250,328.264 63.063 C 330.079 62.547,332.187 63.131,333.300 64.458 M289.905 83.853 C 294.287 87.195,293.402 89.514,285.877 94.412 C 277.523 99.849,278.114 99.373,278.757 100.148 C 279.054 100.506,279.446 100.800,279.627 100.800 C 281.128 100.800,291.981 108.890,292.225 110.191 C 292.892 113.749,288.820 117.509,285.959 115.978 C 283.046 114.419,266.381 103.102,265.673 102.202 C 263.879 99.921,264.685 97.155,267.749 95.070 C 276.762 88.940,286.653 82.800,287.515 82.800 C 288.070 82.800,289.146 83.274,289.905 83.853 M351.676 85.126 C 353.724 86.406,356.370 88.189,357.556 89.089 C 358.743 89.989,360.183 90.963,360.756 91.253 C 361.813 91.787,366.867 95.144,368.035 96.087 C 371.707 99.054,369.892 102.253,361.576 107.472 C 359.059 109.051,356.640 110.633,356.200 110.988 C 349.238 116.599,345.449 117.439,343.239 113.862 C 341.022 110.276,341.627 109.410,350.295 103.767 C 353.647 101.585,356.392 99.710,356.393 99.600 C 356.395 99.490,353.758 97.690,350.532 95.600 C 341.728 89.896,341.167 89.145,343.019 85.562 C 344.719 82.277,346.935 82.165,351.676 85.126 M398.483 144.785 C 398.593 145.532,398.462 146.044,398.128 146.172 C 397.838 146.284,397.600 146.653,397.600 146.993 C 397.600 149.580,392.083 156.017,388.162 158.005 C 387.083 158.552,386.140 159.135,386.067 159.300 C 385.993 159.465,385.599 159.600,385.190 159.600 C 384.782 159.600,384.331 159.787,384.190 160.016 C 384.048 160.245,383.613 160.331,383.223 160.207 C 382.399 159.946,381.200 160.323,381.200 160.843 C 381.200 162.283,390.956 158.437,391.987 156.590 C 392.235 156.145,392.969 155.425,393.618 154.990 C 394.267 154.556,394.798 154.067,394.799 153.905 C 394.800 153.620,395.660 152.480,396.700 151.384 C 396.975 151.094,397.200 150.574,397.200 150.229 C 397.200 149.883,397.380 149.600,397.600 149.600 C 397.820 149.600,398.000 149.240,398.000 148.800 C 398.000 148.360,398.180 148.000,398.400 148.000 C 398.620 148.000,398.800 147.651,398.800 147.224 C 398.800 146.797,398.980 146.336,399.200 146.200 C 399.888 145.775,399.683 143.600,398.955 143.600 C 398.467 143.600,398.352 143.889,398.483 144.785 M275.645 172.731 C 275.125 173.687,275.287 174.800,275.945 174.800 C 276.496 174.800,276.699 173.928,276.408 172.800 L 276.151 171.800 275.645 172.731 M274.800 176.776 C 274.800 177.423,274.620 178.064,274.400 178.200 C 274.180 178.336,274.000 179.067,274.000 179.824 C 274.000 180.581,274.180 181.200,274.400 181.200 C 274.812 181.200,274.943 180.473,274.816 178.900 C 274.776 178.405,274.936 178.000,275.171 178.000 C 275.407 178.000,275.600 177.460,275.600 176.800 C 275.600 176.140,275.420 175.600,275.200 175.600 C 274.980 175.600,274.800 176.129,274.800 176.776 M273.200 182.976 C 273.200 183.733,273.020 184.464,272.800 184.600 C 272.580 184.736,272.400 185.456,272.400 186.200 C 272.400 186.944,272.220 187.664,272.000 187.800 C 271.780 187.936,271.600 188.656,271.600 189.400 C 271.600 190.144,271.420 190.864,271.200 191.000 C 270.980 191.136,270.800 191.856,270.800 192.600 C 270.800 193.344,270.620 194.064,270.400 194.200 C 270.180 194.336,270.000 195.697,270.000 197.224 C 270.000 198.808,270.172 200.000,270.400 200.000 C 270.620 200.000,270.800 200.355,270.800 200.790 C 270.800 201.452,272.530 202.800,273.380 202.800 C 273.849 202.800,273.572 201.599,273.100 201.587 C 271.350 201.543,270.090 195.146,271.534 193.635 C 271.855 193.298,271.985 192.625,271.854 191.971 C 271.699 191.194,271.819 190.802,272.266 190.630 C 272.733 190.451,272.834 190.069,272.652 189.162 C 272.489 188.345,272.602 187.741,272.990 187.352 C 273.372 186.971,273.492 186.358,273.337 185.585 C 273.194 184.869,273.268 184.400,273.523 184.400 C 274.086 184.400,274.482 183.079,274.166 182.256 C 273.736 181.135,273.200 181.534,273.200 182.976 M277.400 202.000 C 277.264 202.220,276.428 202.400,275.543 202.400 C 273.888 202.400,273.484 203.248,275.000 203.542 C 276.092 203.754,278.800 202.752,278.800 202.136 C 278.800 201.513,277.763 201.412,277.400 202.000 M281.049 254.615 C 280.912 254.973,280.800 256.016,280.801 256.933 C 280.801 257.850,280.628 260.490,280.417 262.800 C 279.256 275.484,278.506 288.781,278.976 288.340 C 279.128 288.197,279.432 285.137,279.651 281.540 C 279.870 277.943,280.222 272.660,280.433 269.800 C 280.913 263.308,281.450 254.239,281.364 254.083 C 281.328 254.018,281.187 254.258,281.049 254.615 M35.306 258.600 C 35.299 259.920,35.425 262.170,35.586 263.600 L 35.878 266.200 35.896 263.600 C 35.905 262.170,35.779 259.920,35.615 258.600 L 35.318 256.200 35.306 258.600 M36.097 270.000 C 36.091 271.210,36.221 273.280,36.385 274.600 L 36.682 277.000 36.706 274.400 C 36.719 272.970,36.590 270.900,36.418 269.800 L 36.107 267.800 36.097 270.000 M36.897 281.200 C 36.891 282.410,37.021 284.480,37.185 285.800 L 37.482 288.200 37.506 285.600 C 37.519 284.170,37.390 282.100,37.218 281.000 L 36.907 279.000 36.897 281.200 M37.700 292.600 C 37.700 293.700,37.829 295.860,37.987 297.400 L 38.274 300.200 38.307 297.200 C 38.326 295.550,38.197 293.390,38.020 292.400 L 37.700 290.600 37.700 292.600 M278.300 292.956 C 278.135 294.032,278.020 295.922,278.045 297.156 L 278.089 299.400 278.463 297.446 C 278.669 296.371,278.783 294.481,278.718 293.246 L 278.600 291.000 278.300 292.956 M38.497 303.800 C 38.495 304.900,38.625 306.970,38.786 308.400 L 39.078 311.000 39.109 308.200 C 39.127 306.660,38.997 304.590,38.820 303.600 L 38.500 301.800 38.497 303.800 M277.500 303.756 C 277.335 304.832,277.220 306.722,277.245 307.956 L 277.289 310.200 277.663 308.246 C 277.869 307.171,277.983 305.281,277.918 304.046 L 277.800 301.800 277.500 303.756 M39.486 317.800 C 39.605 320.660,39.769 323.075,39.851 323.167 C 40.132 323.481,39.930 316.602,39.600 314.600 C 39.388 313.311,39.347 314.449,39.486 317.800 M276.700 315.333 C 276.535 315.736,276.422 317.446,276.449 319.133 L 276.498 322.200 276.857 319.800 C 277.276 317.000,277.177 314.168,276.700 315.333 M40.284 329.000 C 40.404 331.640,40.570 333.875,40.651 333.967 C 40.940 334.290,40.736 327.777,40.403 326.000 C 40.181 324.820,40.140 325.852,40.284 329.000 M275.900 326.133 C 275.735 326.536,275.621 328.246,275.647 329.933 L 275.694 333.000 276.061 330.800 C 276.489 328.240,276.376 324.969,275.900 326.133 M41.088 340.000 C 41.208 342.750,41.372 345.075,41.453 345.167 C 41.740 345.492,41.535 338.572,41.205 336.800 C 40.989 335.640,40.948 336.777,41.088 340.000 M275.105 337.200 C 274.943 337.750,274.830 339.550,274.854 341.200 L 274.898 344.200 275.257 341.800 C 275.690 338.911,275.580 335.588,275.105 337.200 M41.891 351.800 C 42.010 354.660,42.173 357.075,42.254 357.167 C 42.540 357.493,42.335 350.168,42.008 348.400 C 41.797 347.259,41.754 348.502,41.891 351.800 M274.346 347.700 C 274.265 347.849,273.630 358.298,273.368 363.800 C 273.242 366.440,272.973 368.771,272.769 368.980 C 272.566 369.189,272.400 369.776,272.400 370.285 C 272.400 372.255,269.092 376.382,266.579 377.547 C 265.931 377.847,265.040 378.287,264.600 378.523 C 264.038 378.825,232.526 379.004,158.600 379.126 L 53.400 379.299 51.231 378.252 C 50.038 377.676,48.979 377.287,48.879 377.388 C 48.779 377.488,49.170 377.786,49.748 378.049 C 51.658 378.919,50.853 379.200,46.446 379.200 C 38.541 379.200,34.589 381.679,33.216 387.500 C 31.934 392.932,36.912 400.000,42.019 400.000 C 43.474 400.000,42.810 399.272,41.100 398.992 C 38.787 398.614,34.802 395.540,34.800 394.133 C 34.800 393.877,34.594 393.598,34.341 393.514 C 32.619 392.940,34.221 384.654,36.411 382.808 C 36.808 382.474,37.510 381.885,37.971 381.500 C 38.432 381.115,39.062 380.800,39.371 380.800 C 39.680 380.800,39.993 380.634,40.067 380.430 C 40.148 380.205,86.811 380.013,159.248 379.941 L 278.297 379.821 280.048 380.731 C 288.562 385.156,287.304 397.318,278.155 399.035 C 276.395 399.365,275.999 400.000,277.553 400.000 C 278.213 400.000,278.864 399.820,279.000 399.600 C 279.136 399.380,279.577 399.200,279.980 399.200 C 282.745 399.200,286.200 393.867,286.200 389.600 C 286.200 382.310,282.564 379.514,272.800 379.295 C 265.186 379.124,264.934 379.053,267.217 377.723 C 272.170 374.837,273.160 372.478,273.982 361.600 C 274.865 349.899,274.952 346.586,274.346 347.700 M42.695 362.600 C 42.812 365.460,42.973 367.875,43.054 367.967 C 43.329 368.281,43.130 361.402,42.806 359.400 C 42.601 358.136,42.560 359.314,42.695 362.600 M43.434 369.800 C 43.721 371.832,45.107 374.209,47.052 376.000 L 48.572 377.400 46.931 375.558 C 45.002 373.393,44.453 372.437,43.738 370.002 L 43.209 368.200 43.434 369.800 " stroke="none" fill="#8cdbfb" fill-rule="evenodd"></path><path id="path4" d="M328.264 63.063 C 327.606 63.250,321.353 75.511,313.199 92.600 C 312.150 94.800,308.956 101.371,306.103 107.203 C 303.250 113.034,300.786 118.213,300.628 118.712 C 299.618 121.893,303.035 124.569,306.242 123.108 C 307.304 122.624,310.766 115.913,322.700 91.200 C 324.241 88.010,327.503 81.312,329.951 76.315 C 332.398 71.318,334.400 66.902,334.400 66.500 C 334.400 64.302,330.867 62.323,328.264 63.063 M278.153 88.238 C 266.358 95.916,265.751 96.349,265.249 97.451 C 264.539 99.011,264.715 100.984,265.673 102.202 C 266.381 103.102,283.046 114.419,285.959 115.978 C 288.820 117.509,292.892 113.749,292.225 110.191 C 291.981 108.890,281.128 100.800,279.627 100.800 C 279.446 100.800,279.054 100.506,278.757 100.148 C 278.114 99.373,277.523 99.849,285.877 94.412 C 293.402 89.514,294.287 87.195,289.905 83.853 C 287.701 82.172,287.161 82.373,278.153 88.238 M344.919 83.584 C 343.316 84.561,342.400 86.293,342.400 88.345 C 342.400 90.284,342.592 90.455,350.532 95.600 C 353.758 97.690,356.395 99.490,356.393 99.600 C 356.392 99.710,353.647 101.585,350.295 103.767 C 341.627 109.410,341.022 110.276,343.239 113.862 C 345.449 117.439,349.238 116.599,356.200 110.988 C 356.640 110.633,359.059 109.051,361.576 107.472 C 369.892 102.253,371.707 99.054,368.035 96.087 C 366.867 95.144,361.813 91.787,360.756 91.253 C 360.183 90.963,358.743 89.989,357.556 89.089 C 350.430 83.681,347.123 82.240,344.919 83.584 M42.400 236.900 C 42.400 237.065,41.950 237.200,41.400 237.200 C 40.850 237.200,40.400 237.350,40.400 237.532 C 40.400 237.715,39.916 238.120,39.325 238.432 C 37.949 239.159,36.400 240.693,36.400 241.330 C 36.400 241.601,36.040 242.083,35.600 242.400 C 35.160 242.717,34.800 243.387,34.800 243.888 C 34.800 244.390,34.620 244.800,34.400 244.800 C 34.154 244.800,34.000 246.800,34.000 250.000 C 34.000 254.226,34.106 255.200,34.568 255.200 C 35.340 255.200,35.536 256.356,36.028 263.800 C 36.473 270.543,36.713 273.976,38.398 297.800 C 38.600 300.660,38.957 305.610,39.190 308.800 C 39.423 311.990,39.797 317.210,40.021 320.400 C 40.244 323.590,40.600 328.540,40.812 331.400 C 41.023 334.260,41.377 339.210,41.598 342.400 C 41.819 345.590,42.176 350.630,42.392 353.600 C 42.608 356.570,42.952 361.340,43.157 364.200 C 43.765 372.704,45.304 375.510,50.755 378.051 L 53.400 379.284 158.600 379.119 C 232.539 379.002,264.038 378.825,264.600 378.523 C 265.040 378.287,265.931 377.847,266.579 377.547 C 269.092 376.382,272.400 372.255,272.400 370.285 C 272.400 369.776,272.566 369.189,272.769 368.980 C 272.973 368.771,273.244 366.440,273.371 363.800 C 273.499 361.160,273.776 356.660,273.987 353.800 C 274.197 350.940,274.564 345.900,274.801 342.600 C 275.464 333.367,275.962 326.509,276.392 320.700 C 276.608 317.785,276.961 312.700,277.178 309.400 C 277.394 306.100,277.747 301.060,277.961 298.200 C 278.175 295.340,278.530 289.760,278.751 285.800 C 279.200 277.761,279.823 269.118,280.411 262.800 C 280.625 260.490,280.801 257.850,280.801 256.933 C 280.800 254.882,281.113 254.000,281.843 254.000 C 282.287 254.000,282.400 253.065,282.400 249.400 C 282.400 246.600,282.243 244.800,282.000 244.800 C 281.780 244.800,281.600 244.390,281.600 243.888 C 281.600 243.387,281.240 242.717,280.800 242.400 C 280.360 242.083,280.000 241.575,280.000 241.272 C 280.000 240.617,277.217 238.023,276.500 238.009 C 276.225 238.004,276.000 237.820,276.000 237.600 C 276.000 237.380,275.550 237.200,275.000 237.200 C 274.450 237.200,274.000 237.065,274.000 236.900 C 274.000 236.735,221.890 236.600,158.200 236.600 C 94.510 236.600,42.400 236.735,42.400 236.900 M134.500 379.868 C 71.988 379.956,40.000 380.137,40.000 380.401 C 40.000 380.620,39.732 380.800,39.405 380.800 C 39.077 380.800,38.432 381.115,37.971 381.500 C 37.510 381.885,36.808 382.474,36.411 382.808 C 34.221 384.654,32.619 392.940,34.341 393.514 C 34.594 393.598,34.800 393.877,34.800 394.133 C 34.802 395.540,38.787 398.614,41.100 398.992 C 42.035 399.145,42.800 399.434,42.800 399.635 C 42.800 400.116,276.275 400.126,276.572 399.645 C 276.693 399.450,277.405 399.176,278.155 399.035 C 284.583 397.829,287.972 389.834,284.327 384.472 C 282.932 382.419,282.949 382.434,280.484 380.996 L 278.768 379.994 253.884 379.864 C 240.198 379.792,186.475 379.794,134.500 379.868 " stroke="none" fill="#f4f4f4" fill-rule="evenodd"></path></g></svg>