<svg id="Capa_1" enable-background="new 0 0 512 512" height="512" viewBox="0 0 512 512" width="512" xmlns="http://www.w3.org/2000/svg"><g><path d="m256 0h-256v75l286 60z" fill="#a1a1a1"/><path d="m256 0h75v120h-75z" fill="#828282"/><path d="m286 75h-286v75l286 75z" fill="#636363"/><path d="m256 210 256-60v-150h-181l-75 75z" fill="#434343"/><path d="m512 150h-256l-120 181 120 181h256z" fill="#0fdbff"/><path d="m0 150h256v362h-256z" fill="#80eeff"/><path d="m60 422h30v-46h80.667v-136h-110.667zm30-152h50.667v76h-50.667z" fill="#fff"/><path d="m341.333 240v182h30v-46h80.667v-136zm80.667 106h-50.667v-76h50.667z" fill="#c2f7ff"/><path d="m281.333 240v76h-25.333l-15 14.5 15 15.5h25.333v76h30v-182z" fill="#c2f7ff"/><path d="m230.667 316v-76h-30v182h30v-76h25.333v-30z" fill="#fff"/></g></svg>